NunitoSans-ExpandedSemiBold.ufo
<glyph name="exclam" format="2">
  <advance width="283.63253012048193"/>
  <unicode hex="0021"/>
  <outline>
    <contour>
      <point x="108.15662650602408" y="201.25301204819277" type="line"/>
      <point x="175.47590361445782" y="201.25301204819277" type="line"/>
      <point x="210.02409638554215" y="705.0" type="line"/>
      <point x="73.60843373493977" y="705.0" type="line"/>
    </contour>
    <contour>
      <point x="76.62650602409639" y="0.0" type="line"/>
      <point x="206.65060240963857" y="0.0" type="line"/>
      <point x="206.65060240963857" y="127.66867469879517" type="line"/>
      <point x="76.62650602409639" y="127.66867469879517" type="line"/>
    </contour>
  </outline>
</glyph>
<glyph name="numbersign" format="2">
  <advance width="727.6867469879518"/>
  <unicode hex="0023"/>
  <outline>
    <contour>
      <point x="102.20481927710844" y="0.0" type="line"/>
      <point x="186.39156626506022" y="0.0" type="line"/>
      <point x="229.54819277108436" y="175.0722891566265" type="line"/>
      <point x="410.8734939759036" y="175.0722891566265" type="line"/>
      <point x="367.71686746987956" y="0.0" type="line"/>
      <point x="451.9036144578313" y="0.0" type="line"/>
      <point x="494.7048192771084" y="175.0722891566265" type="line"/>
      <point x="666.8012048192771" y="175.0722891566265" type="line"/>
      <point x="666.8012048192771" y="248.34939759036143" type="line"/>
      <point x="511.4578313253012" y="248.34939759036143" type="line"/>
      <point x="564.6385542168674" y="464.6506024096385" type="line"/>
      <point x="692.222891566265" y="464.6506024096385" type="line"/>
      <point x="692.222891566265" y="537.9277108433735" type="line"/>
      <point x="581.3915662650602" y="537.9277108433735" type="line"/>
      <point x="622.9036144578313" y="705.0" type="line"/>
      <point x="538.7168674698796" y="705.0" type="line"/>
      <point x="497.5602409638554" y="537.9277108433735" type="line"/>
      <point x="316.5903614457832" y="537.9277108433735" type="line"/>
      <point x="357.7469879518072" y="705.0" type="line"/>
      <point x="273.2048192771084" y="705.0" type="line"/>
      <point x="232.40361445783134" y="537.9277108433735" type="line"/>
      <point x="60.885542168674704" y="537.9277108433735" type="line"/>
      <point x="60.885542168674704" y="464.6506024096385" type="line"/>
      <point x="215.65060240963854" y="464.6506024096385" type="line"/>
      <point x="162.46987951807228" y="248.34939759036143" type="line"/>
      <point x="35.463855421686745" y="248.34939759036143" type="line"/>
      <point x="35.463855421686745" y="175.0722891566265" type="line"/>
      <point x="145.00602409638557" y="175.0722891566265" type="line"/>
    </contour>
    <contour>
      <point x="246.65662650602408" y="248.34939759036143" type="line"/>
      <point x="300.1927710843374" y="464.6506024096385" type="line"/>
      <point x="480.45180722891564" y="464.6506024096385" type="line"/>
      <point x="426.9156626506024" y="248.34939759036143" type="line"/>
    </contour>
  </outline>
</glyph>
<glyph name="dollar" format="2">
  <advance width="748.0"/>
  <unicode hex="0024"/>
  <outline>
    <contour>
      <point x="339.5421686746988" y="-115.0" type="line"/>
      <point x="432.4578313253012" y="-115.0" type="line"/>
      <point x="432.4578313253012" y="15.686746987951807" type="line"/>
      <point x="403.37349397590367" y="-5.066265060240964" type="line"/>
      <point x="585.9036144578313" y="2.265060240963855"/>
      <point x="691.7469879518072" y="74.59638554216868"/>
      <point x="691.7469879518072" y="195.83734939759034" type="curve" smooth="yes"/>
      <point x="691.7469879518072" y="303.3253012048193"/>
      <point x="625.6144578313254" y="361.36746987951807"/>
      <point x="474.81325301204816" y="383.43373493975906" type="curve" smooth="yes"/>
      <point x="317.01807228915663" y="406.6325301204819" type="line" smooth="yes"/>
      <point x="229.2289156626506" y="418.72289156626505"/>
      <point x="186.2710843373494" y="446.5722891566265"/>
      <point x="186.2710843373494" y="506.8253012048193" type="curve" smooth="yes"/>
      <point x="186.2710843373494" y="574.2349397590361"/>
      <point x="257.0120481927711" y="614.1746987951807"/>
      <point x="377.86746987951807" y="614.1746987951807" type="curve" smooth="yes"/>
      <point x="480.066265060241" y="614.1746987951807"/>
      <point x="556.0421686746987" y="591.3734939759036"/>
      <point x="626.0662650602409" y="537.3253012048192" type="curve"/>
      <point x="667.4156626506024" y="622.8855421686748" type="line"/>
      <point x="606.6144578313254" y="675.777108433735"/>
      <point x="518.8373493975904" y="705.289156626506"/>
      <point x="415.54819277108436" y="709.710843373494" type="curve"/>
      <point x="432.4578313253012" y="694.222891566265" type="line"/>
      <point x="432.4578313253012" y="820.0" type="line"/>
      <point x="339.5421686746988" y="820.0" type="line"/>
      <point x="339.5421686746988" y="694.222891566265" type="line"/>
      <point x="358.6746987951807" y="709.0" type="line"/>
      <point x="182.31927710843374" y="702.6024096385543"/>
      <point x="72.51807228915663" y="622.3373493975903"/>
      <point x="72.51807228915663" y="499.84939759036143" type="curve" smooth="yes"/>
      <point x="72.51807228915663" y="391.00602409638554"/>
      <point x="146.2710843373494" y="329.03012048192767"/>
      <point x="290.7831325301205" y="309.7409638554217" type="curve" smooth="yes"/>
      <point x="449.5120481927711" y="288.3192771084337" type="line" smooth="yes"/>
      <point x="539.8132530120482" y="275.93975903614455"/>
      <point x="578.7048192771084" y="249.24698795180723"/>
      <point x="578.7048192771084" y="187.50602409638554" type="curve" smooth="yes"/>
      <point x="578.7048192771084" y="125.31927710843374"/>
      <point x="510.4096385542168" y="90.82530120481927"/>
      <point x="385.13253012048193" y="90.82530120481927" type="curve" smooth="yes"/>
      <point x="266.19879518072287" y="90.82530120481927"/>
      <point x="179.86746987951807" y="113.7590361445783"/>
      <point x="94.93373493975903" y="168.36144578313252" type="curve"/>
      <point x="53.58433734939759" y="78.89156626506025" type="line"/>
      <point x="128.45180722891564" y="27.644578313253014"/>
      <point x="235.00602409638554" y="-2.644578313253012"/>
      <point x="357.8072289156627" y="-5.421686746987952" type="curve"/>
      <point x="339.5421686746988" y="14.686746987951807" type="line"/>
    </contour>
  </outline>
</glyph>
<glyph name="ampersand" format="2">
  <advance width="868.1807228915663"/>
  <unicode hex="0026"/>
  <outline>
    <contour>
      <point x="346.7469879518072" y="-9.421686746987952" type="curve" smooth="yes"/>
      <point x="466.0602409638554" y="-9.421686746987952"/>
      <point x="565.4156626506024" y="28.313253012048193"/>
      <point x="636.9698795180723" y="96.71686746987952" type="curve"/>
      <point x="617.9277108433735" y="96.71686746987952" type="line"/>
      <point x="726.6204819277108" y="0.0" type="line"/>
      <point x="864.8132530120481" y="0.0" type="line"/>
      <point x="680.5361445783133" y="156.15060240963854" type="line"/>
      <point x="682.2469879518072" y="139.66265060240963" type="line"/>
      <point x="738.8674698795181" y="210.7951807228916"/>
      <point x="772.7108433734941" y="306.9277108433735"/>
      <point x="779.066265060241" y="419.9277108433735" type="curve"/>
      <point x="683.3072289156627" y="419.9277108433735" type="line"/>
      <point x="678.9518072289158" y="327.5903614457831"/>
      <point x="654.3072289156627" y="251.05421686746988"/>
      <point x="612.8614457831326" y="194.31927710843374" type="curve"/>
      <point x="631.7710843373494" y="194.31927710843374" type="line"/>
      <point x="412.0240963855422" y="388.9578313253012" type="line"/>
      <point x="397.29518072289153" y="365.0963855421687" type="line"/>
      <point x="524.8253012048193" y="417.83132530120486"/>
      <point x="588.7349397590361" y="483.16265060240966"/>
      <point x="588.7349397590361" y="564.1385542168674" type="curve" smooth="yes"/>
      <point x="588.7349397590361" y="654.3795180722892"/>
      <point x="511.42771084337346" y="714.4216867469879"/>
      <point x="387.32530120481925" y="714.4216867469879" type="curve" smooth="yes"/>
      <point x="264.4879518072289" y="714.4216867469879"/>
      <point x="179.56024096385545" y="649.9578313253012"/>
      <point x="179.56024096385545" y="556.2951807228916" type="curve" smooth="yes"/>
      <point x="179.56024096385545" y="488.91566265060237"/>
      <point x="224.03012048192772" y="435.98192771084337"/>
      <point x="283.7409638554217" y="384.53614457831327" type="curve"/>
      <point x="301.53614457831327" y="408.8192771084337" type="line"/>
      <point x="268.15662650602405" y="393.0843373493976" type="line" smooth="yes"/>
      <point x="161.4277108433735" y="348.7710843373494"/>
      <point x="72.95783132530121" y="281.4638554216868"/>
      <point x="72.95783132530121" y="177.2168674698795" type="curve" smooth="yes"/>
      <point x="72.95783132530121" y="63.463855421686745"/>
      <point x="179.17469879518072" y="-9.421686746987952"/>
    </contour>
    <contour>
      <point x="353.9216867469879" y="76.42771084337349" type="curve" smooth="yes"/>
      <point x="243.04819277108433" y="76.42771084337349"/>
      <point x="183.64457831325302" y="116.67469879518072"/>
      <point x="183.64457831325302" y="185.74698795180723" type="curve" smooth="yes"/>
      <point x="183.64457831325302" y="259.644578313253"/>
      <point x="247.96385542168673" y="299.4698795180723"/>
      <point x="326.30120481927713" y="334.0301204819277" type="curve" smooth="yes"/>
      <point x="359.90361445783134" y="350.0542168674699" type="line"/>
      <point x="320.28915662650604" y="354.6746987951807" type="line"/>
      <point x="564.0301204819277" y="139.3734939759036" type="line"/>
      <point x="564.0301204819277" y="151.79518072289156" type="line"/>
      <point x="513.2048192771084" y="102.05421686746988"/>
      <point x="442.33132530120486" y="76.42771084337349"/>
    </contour>
    <contour>
      <point x="386.9698795180723" y="636.6144578313252" type="curve" smooth="yes"/>
      <point x="449.81927710843377" y="636.6144578313252"/>
      <point x="490.71084337349396" y="605.9817590361446"/>
      <point x="490.71084337349396" y="558.9397590361446" type="curve" smooth="yes"/>
      <point x="490.71084337349396" y="490.6686746987952"/>
      <point x="409.17469879518075" y="454.3313253012048"/>
      <point x="340.8855421686747" y="424.01807228915663" type="curve"/>
      <point x="372.3433734939759" y="421.17469879518075" type="line"/>
      <point x="313.7409638554217" y="472.644578313253"/>
      <point x="277.93975903614455" y="506.5361445783133"/>
      <point x="277.93975903614455" y="553.3614457831325" type="curve" smooth="yes"/>
      <point x="277.93975903614455" y="604.3474939759037"/>
      <point x="321.4096385542168" y="636.6144578313252"/>
    </contour>
  </outline>
</glyph>
<glyph name="quotesingle" format="2">
  <advance width="275.4096385542168"/>
  <unicode hex="0027"/>
  <outline>
    <contour>
      <point x="101.02409638554218" y="419.45180722891564" type="line"/>
      <point x="174.3855421686747" y="419.45180722891564" type="line"/>
      <point x="202.9578313253012" y="705.0" type="line"/>
      <point x="73.16265060240964" y="705.0" type="line"/>
    </contour>
  </outline>
</glyph>
<glyph name="parenleft" format="2">
  <advance width="399.9096385542169"/>
  <unicode hex="0028"/>
  <outline>
    <contour>
      <point x="281.1024096385542" y="-193.55421686746988" type="curve"/>
      <point x="355.77710843373495" y="-159.36144578313252" type="line"/>
      <point x="275.84337349397595" y="-9.963855421686748"/>
      <point x="241.53012048192772" y="116.90963855421687"/>
      <point x="241.53012048192772" y="263.0" type="curve" smooth="yes"/>
      <point x="241.53012048192772" y="409.8012048192771"/>
      <point x="275.84337349397595" y="535.9638554216867"/>
      <point x="355.77710843373495" y="685.3614457831325" type="curve"/>
      <point x="281.1024096385542" y="719.5542168674699" type="line"/>
      <point x="175.3975903614458" y="574.6626506024096"/>
      <point x="123.86746987951807" y="426.2409638554217"/>
      <point x="123.86746987951807" y="263.0" type="curve" smooth="yes"/>
      <point x="123.86746987951807" y="100.46987951807229"/>
      <point x="175.3975903614458" y="-49.01807228915663"/>
    </contour>
  </outline>
</glyph>
<glyph name="parenright" format="2">
  <advance width="399.9096385542169"/>
  <unicode hex="0029"/>
  <outline>
    <contour>
      <point x="118.80722891566265" y="-193.55421686746988" type="line"/>
      <point x="224.5120481927711" y="-49.01807228915663"/>
      <point x="276.04216867469876" y="100.46987951807229"/>
      <point x="276.04216867469876" y="263.0" type="curve" smooth="yes"/>
      <point x="276.04216867469876" y="425.8855421686747"/>
      <point x="224.5120481927711" y="575.0180722891566"/>
      <point x="118.80722891566265" y="719.5542168674699" type="curve"/>
      <point x="44.13253012048193" y="685.3614457831325" type="line"/>
      <point x="123.71084337349397" y="535.9638554216867"/>
      <point x="159.09036144578315" y="409.4457831325301"/>
      <point x="159.09036144578315" y="263.0" type="curve" smooth="yes"/>
      <point x="159.09036144578315" y="116.55421686746988"/>
      <point x="123.71084337349397" y="-9.963855421686748"/>
      <point x="44.13253012048193" y="-159.36144578313252" type="curve"/>
    </contour>
  </outline>
</glyph>
<glyph name="asterisk" format="2">
  <advance width="495.3975903614458"/>
  <unicode hex="002A"/>
  <outline>
    <contour>
      <point x="175.63855421686748" y="314.0542168674699" type="line"/>
      <point x="254.39759036144576" y="469.566265060241" type="line"/>
      <point x="242.06626506024097" y="469.566265060241" type="line"/>
      <point x="319.46987951807233" y="314.34337349397595" type="line"/>
      <point x="388.5240963855422" y="353.5361445783132" type="line"/>
      <point x="291.7469879518072" y="504.91566265060237" type="line"/>
      <point x="276.86144578313247" y="484.4096385542169" type="line"/>
      <point x="457.95180722891564" y="475.855421686747" type="line"/>
      <point x="457.95180722891564" y="554.1746987951807" type="line"/>
      <point x="276.86144578313247" y="545.5542168674699" type="line"/>
      <point x="291.7469879518072" y="526.0481927710844" type="line"/>
      <point x="388.5240963855422" y="676.0722891566265" type="line"/>
      <point x="319.46987951807233" y="716.9759036144578" type="line"/>
      <point x="242.06626506024097" y="562.1746987951808" type="line"/>
      <point x="254.39759036144576" y="562.1746987951808" type="line"/>
      <point x="176.34939759036143" y="716.9759036144578" type="line"/>
      <point x="107.29518072289156" y="676.7831325301205" type="line"/>
      <point x="204.71686746987953" y="525.3373493975904" type="line"/>
      <point x="218.95783132530119" y="545.5542168674699" type="line"/>
      <point x="38.1566265060241" y="554.1746987951807" type="line"/>
      <point x="38.1566265060241" y="475.855421686747" type="line"/>
      <point x="218.95783132530119" y="484.4096385542169" type="line"/>
      <point x="204.00602409638554" y="504.91566265060237" type="line"/>
      <point x="106.58433734939759" y="353.5361445783132" type="line"/>
    </contour>
  </outline>
</glyph>
<glyph name="hyphen" format="2">
  <advance width="526.9939759036145"/>
  <unicode hex="002D"/>
  <outline>
    <contour>
      <point x="86.66867469879519" y="222.96385542168673" type="line"/>
      <point x="440.32530120481925" y="222.96385542168673" type="line"/>
      <point x="440.32530120481925" y="312.30120481927713" type="line"/>
      <point x="86.66867469879519" y="312.30120481927713" type="line"/>
    </contour>
  </outline>
</glyph>
<glyph name="period" format="2">
  <advance width="283.27710843373495"/>
  <unicode hex="002E"/>
  <outline>
    <contour>
      <point x="76.62650602409639" y="0.0" type="line"/>
      <point x="206.65060240963857" y="0.0" type="line"/>
      <point x="206.65060240963857" y="127.66867469879517" type="line"/>
      <point x="76.62650602409639" y="127.66867469879517" type="line"/>
    </contour>
  </outline>
</glyph>
<glyph name="slash" format="2">
  <advance width="354.9156626506024"/>
  <unicode hex="002F"/>
  <outline>
    <contour>
      <point x="60.361445783132524" y="-67.79518072289156" type="line"/>
      <point x="378.62650602409633" y="724.8012048192771" type="line"/>
      <point x="294.5542168674699" y="756.7951807228915" type="line"/>
      <point x="-23.710843373493976" y="-35.80120481927711" type="line"/>
    </contour>
  </outline>
</glyph>
<glyph name="zero" format="2">
  <advance width="748.0"/>
  <unicode hex="0030"/>
  <outline>
    <contour>
      <point x="374.0" y="-9.421686746987952" type="curve" smooth="yes"/>
      <point x="573.4638554216867" y="-9.421686746987952"/>
      <point x="684.9277108433735" y="121.13253012048193"/>
      <point x="684.9277108433735" y="353.35542168674704" type="curve" smooth="yes"/>
      <point x="684.9277108433735" y="584.5783132530121"/>
      <point x="573.4638554216866" y="714.4216867469879"/>
      <point x="374.0" y="714.4216867469879" type="curve" smooth="yes"/>
      <point x="174.89156626506025" y="714.4216867469879"/>
      <point x="63.0722891566265" y="584.5783132530121"/>
      <point x="63.0722891566265" y="352.0" type="curve" smooth="yes"/>
      <point x="63.0722891566265" y="120.77710843373494"/>
      <point x="174.89156626506025" y="-9.421686746987952"/>
    </contour>
    <contour>
      <point x="374.0" y="83.69277108433735" type="curve" smooth="yes"/>
      <point x="240.63253012048193" y="83.69277108433735"/>
      <point x="174.6265060240964" y="171.6325301204819"/>
      <point x="174.6265060240964" y="352.35542168674704" type="curve" smooth="yes"/>
      <point x="174.6265060240964" y="531.656626506024"/>
      <point x="240.63253012048193" y="621.3072289156626"/>
      <point x="374.0" y="621.3072289156626" type="curve" smooth="yes"/>
      <point x="507.72289156626505" y="621.3072289156626"/>
      <point x="573.3734939759036" y="532.656626506024"/>
      <point x="573.3734939759036" y="353.35542168674704" type="curve" smooth="yes"/>
      <point x="573.3734939759036" y="172.6325301204819"/>
      <point x="507.36746987951807" y="83.69277108433735"/>
    </contour>
  </outline>
</glyph>
<glyph name="one" format="2">
  <advance width="748.0"/>
  <unicode hex="0031"/>
  <outline>
    <contour>
      <point x="142.25301204819277" y="0.0" type="line"/>
      <point x="659.8975903614457" y="0.0" type="line"/>
      <point x="659.8975903614457" y="94.24698795180723" type="line"/>
      <point x="465.2951807228916" y="94.24698795180723" type="line"/>
      <point x="465.2951807228916" y="705.0" type="line"/>
      <point x="381.89156626506025" y="705.0" type="line"/>
      <point x="134.23493975903614" y="561.3373493975904" type="line"/>
      <point x="178.33734939759034" y="480.77710843373495" type="line"/>
      <point x="405.71084337349396" y="611.6867469879518" type="line"/>
      <point x="351.4096385542169" y="611.6867469879518" type="line"/>
      <point x="351.4096385542169" y="94.24698795180723" type="line"/>
      <point x="142.25301204819277" y="94.24698795180723" type="line"/>
    </contour>
  </outline>
</glyph>
<glyph name="two" format="2">
  <advance width="748.0"/>
  <unicode hex="0032"/>
  <outline>
    <contour>
      <point x="108.7831325301205" y="0.0" type="line"/>
      <point x="674.5060240963855" y="0.0" type="line"/>
      <point x="674.5060240963855" y="94.24698795180723" type="line"/>
      <point x="244.3313253012048" y="94.24698795180723" type="line"/>
      <point x="246.8192771084337" y="78.98192771084337" type="line"/>
      <point x="492.2409638554217" y="273.89156626506025" type="line" smooth="yes"/>
      <point x="560.012048192771" y="324.13253012048193"/>
      <point x="639.6385542168674" y="403.62048192771084"/>
      <point x="639.6385542168674" y="516.6024096385541" type="curve" smooth="yes"/>
      <point x="639.6385542168674" y="643.8012048192771"/>
      <point x="540.8192771084338" y="714.4216867469879"/>
      <point x="369.53614457831327" y="714.4216867469879" type="curve" smooth="yes"/>
      <point x="252.1144578313253" y="714.4216867469879"/>
      <point x="149.13855421686748" y="680.9096385542168"/>
      <point x="76.80722891566265" y="620.1746987951808" type="curve"/>
      <point x="121.71084337349399" y="534.2590361445783" type="line"/>
      <point x="188.8012048192771" y="590.3734939759037"/>
      <point x="267.8674698795181" y="618.1746987951807"/>
      <point x="361.91566265060237" y="618.1746987951807" type="curve" smooth="yes"/>
      <point x="468.16867469879514" y="618.1746987951807"/>
      <point x="525.2409638554217" y="581.8373493975903"/>
      <point x="525.2409638554217" y="504.42771084337346" type="curve" smooth="yes"/>
      <point x="525.2409638554217" y="420.2409638554217"/>
      <point x="457.6144578313253" y="365.1265060240964"/>
      <point x="420.3253012048193" y="334.9036144578313" type="curve" smooth="yes"/>
      <point x="108.7831325301205" y="84.04819277108433" type="line"/>
    </contour>
  </outline>
</glyph>
<glyph name="three" format="2">
  <advance width="748.0"/>
  <unicode hex="0033"/>
  <outline>
    <contour>
      <point x="365.53614457831327" y="-9.421686746987952" type="curve" smooth="yes"/>
      <point x="547.8192771084338" y="-9.421686746987952"/>
      <point x="663.1265060240964" y="65.13253012048193"/>
      <point x="663.1265060240964" y="191.90963855421685" type="curve" smooth="yes"/>
      <point x="663.1265060240964" y="289.4879518072289"/>
      <point x="594.4156626506024" y="353.9096385542169"/>
      <point x="471.2590361445783" y="370.4879518072289" type="curve"/>
      <point x="471.2590361445783" y="358.71084337349396" type="line"/>
      <point x="576.5481927710842" y="378.710843373494"/>
      <point x="637.7048192771084" y="442.51204819277103"/>
      <point x="637.7048192771084" y="531.6686746987953" type="curve" smooth="yes"/>
      <point x="637.7048192771084" y="645.8012048192771"/>
      <point x="536.9518072289155" y="714.4216867469879"/>
      <point x="369.37951807228916" y="714.4216867469879" type="curve" smooth="yes"/>
      <point x="252.18072289156626" y="714.4216867469879"/>
      <point x="147.0722891566265" y="680.5542168674699"/>
      <point x="77.16265060240964" y="620.1746987951808" type="curve"/>
      <point x="121.355421686747" y="535.5481927710842" type="line"/>
      <point x="188.8012048192771" y="592.3734939759037"/>
      <point x="264.3132530120482" y="618.1746987951807"/>
      <point x="360.2048192771084" y="618.1746987951807" type="curve" smooth="yes"/>
      <point x="466.94578313253015" y="618.1746987951807"/>
      <point x="525.7951807228916" y="582.9036144578313"/>
      <point x="525.7951807228916" y="515.9397590361446" type="curve" smooth="yes"/>
      <point x="525.7951807228916" y="445.7530120481927"/>
      <point x="461.43373493975906" y="403.8132530120482"/>
      <point x="347.7590361445783" y="403.8132530120482" type="curve" smooth="yes"/>
      <point x="225.0722891566265" y="403.8132530120482" type="line"/>
      <point x="225.0722891566265" y="309.921686746988" type="line"/>
      <point x="357.578313253012" y="309.921686746988" type="line" smooth="yes"/>
      <point x="487.144578313253" y="309.921686746988"/>
      <point x="551.2168674698795" y="274.49397590361446"/>
      <point x="551.2168674698795" y="200.79518072289156" type="curve" smooth="yes"/>
      <point x="551.2168674698795" y="126.31927710843374"/>
      <point x="485.87951807228916" y="86.82530120481927"/>
      <point x="363.7590361445783" y="86.82530120481927" type="curve" smooth="yes"/>
      <point x="262.6686746987952" y="86.82530120481927"/>
      <point x="183.86746987951807" y="111.69277108433735"/>
      <point x="105.71084337349399" y="166.93975903614458" type="curve"/>
      <point x="62.16265060240964" y="79.60240963855422" type="line"/>
      <point x="133.0963855421687" y="23.867469879518072"/>
      <point x="244.2048192771084" y="-9.421686746987952"/>
    </contour>
  </outline>
</glyph>
<glyph name="four" format="2">
  <advance width="748.0"/>
  <unicode hex="0034"/>
  <outline>
    <contour>
      <point x="465.4819277108434" y="0.0" type="line"/>
      <point x="577.5903614457831" y="0.0" type="line"/>
      <point x="577.5903614457831" y="140.12048192771084" type="line"/>
      <point x="707.3493975903614" y="140.12048192771084" type="line"/>
      <point x="707.3493975903614" y="232.94578313253012" type="line"/>
      <point x="577.5903614457831" y="232.94578313253012" type="line"/>
      <point x="577.5903614457831" y="705.0" type="line"/>
      <point x="483.144578313253" y="705.0" type="line"/>
      <point x="61.13855421686747" y="223.39156626506025" type="line"/>
      <point x="61.13855421686747" y="140.12048192771084" type="line"/>
      <point x="465.4819277108434" y="140.12048192771084" type="line"/>
    </contour>
    <contour>
      <point x="465.4819277108434" y="232.94578313253012" type="line"/>
      <point x="149.85542168674698" y="232.94578313253012" type="line"/>
      <point x="149.85542168674698" y="194.42168674698794" type="line"/>
      <point x="500.21084337349396" y="591.4036144578313" type="line"/>
      <point x="465.4819277108434" y="591.4036144578313" type="line"/>
    </contour>
  </outline>
</glyph>
<glyph name="five" format="2">
  <advance width="748.0"/>
  <unicode hex="0035"/>
  <outline>
    <contour>
      <point x="389.04819277108436" y="-9.421686746987952" type="curve" smooth="yes"/>
      <point x="574.9759036144577" y="-9.421686746987952"/>
      <point x="692.5060240963855" y="78.06626506024097"/>
      <point x="692.5060240963855" y="224.10843373493975" type="curve" smooth="yes"/>
      <point x="692.5060240963855" y="359.5301204819277"/>
      <point x="590.6626506024096" y="445.95180722891564"/>
      <point x="424.3975903614458" y="445.95180722891564" type="curve" smooth="yes"/>
      <point x="330.48192771084337" y="445.95180722891564"/>
      <point x="250.87951807228916" y="417.41566265060237"/>
      <point x="207.0120481927711" y="368.21084337349396" type="curve"/>
      <point x="232.74096385542168" y="368.21084337349396" type="line"/>
      <point x="232.74096385542168" y="611.4638554216867" type="line"/>
      <point x="639.7289156626506" y="611.4638554216867" type="line"/>
      <point x="639.7289156626506" y="705.0" type="line"/>
      <point x="123.47590361445783" y="705.0" type="line"/>
      <point x="123.47590361445783" y="279.84939759036143" type="line"/>
      <point x="204.2168674698795" y="279.84939759036143" type="line"/>
      <point x="255.50602409638554" y="329.43373493975906"/>
      <point x="318.55421686746985" y="353.6144578313253"/>
      <point x="397.6265060240964" y="353.6144578313253" type="curve" smooth="yes"/>
      <point x="514.5240963855422" y="353.6144578313253"/>
      <point x="580.5963855421686" y="302.09638554216866"/>
      <point x="580.5963855421686" y="220.10843373493975" type="curve" smooth="yes"/>
      <point x="580.5963855421686" y="133.47590361445785"/>
      <point x="508.5903614457831" y="86.82530120481927"/>
      <point x="388.33734939759034" y="86.82530120481927" type="curve" smooth="yes"/>
      <point x="294.8253012048193" y="86.82530120481927"/>
      <point x="215.60240963855424" y="112.69277108433735"/>
      <point x="139.22289156626508" y="166.2289156626506" type="curve"/>
      <point x="95.67469879518072" y="78.89156626506025" type="line"/>
      <point x="163.8313253012048" y="24.222891566265062"/>
      <point x="274.65060240963857" y="-9.421686746987952"/>
    </contour>
  </outline>
</glyph>
<glyph name="six" format="2">
  <advance width="748.0"/>
  <unicode hex="0036"/>
  <outline>
    <contour>
      <point x="401.93373493975906" y="-9.421686746987952" type="curve" smooth="yes"/>
      <point x="572.1506024096385" y="-9.421686746987952"/>
      <point x="686.9939759036145" y="87.13253012048193"/>
      <point x="686.9939759036145" y="223.17469879518075" type="curve" smooth="yes"/>
      <point x="686.9939759036145" y="355.3734939759036"/>
      <point x="579.1265060240963" y="448.8614457831325"/>
      <point x="420.1927710843373" y="448.8614457831325" type="curve" smooth="yes"/>
      <point x="289.4096385542169" y="448.8614457831325"/>
      <point x="189.36144578313252" y="382.5903614457831"/>
      <point x="174.16265060240963" y="278.84939759036143" type="curve"/>
      <point x="185.7831325301205" y="278.84939759036143" type="line"/>
      <point x="185.7831325301205" y="359.8373493975904" type="line" smooth="yes"/>
      <point x="185.7831325301205" y="530.987951807229"/>
      <point x="275.566265060241" y="618.1746987951807"/>
      <point x="432.39759036144574" y="618.1746987951807" type="curve" smooth="yes"/>
      <point x="509.9759036144578" y="618.1746987951807"/>
      <point x="583.3554216867469" y="593.7289156626506"/>
      <point x="642.933734939759" y="544.8373493975904" type="curve"/>
      <point x="685.4819277108434" y="630.7530120481928" type="line"/>
      <point x="626.0843373493976" y="682.3313253012047"/>
      <point x="528.5722891566264" y="714.4216867469879"/>
      <point x="433.7530120481928" y="714.4216867469879" type="curve" smooth="yes"/>
      <point x="208.82530120481925" y="714.4216867469879"/>
      <point x="75.58433734939759" y="579.777108433735"/>
      <point x="75.58433734939759" y="335.62048192771084" type="curve" smooth="yes"/>
      <point x="75.58433734939759" y="116.644578313253"/>
      <point x="196.18072289156626" y="-9.421686746987952"/>
    </contour>
    <contour>
      <point x="398.0" y="81.84939759036145" type="curve" smooth="yes"/>
      <point x="288.81325301204816" y="81.84939759036145"/>
      <point x="216.36144578313252" y="137.07831325301206"/>
      <point x="216.36144578313252" y="219.3975903614458" type="curve" smooth="yes"/>
      <point x="216.36144578313252" y="302.3614457831325"/>
      <point x="288.81325301204816" y="358.30120481927713"/>
      <point x="398.0" y="358.30120481927713" type="curve" smooth="yes"/>
      <point x="506.18674698795184" y="358.30120481927713"/>
      <point x="578.6385542168674" y="302.3614457831325"/>
      <point x="578.6385542168674" y="219.3975903614458" type="curve" smooth="yes"/>
      <point x="578.6385542168674" y="137.07831325301206"/>
      <point x="506.18674698795184" y="81.84939759036145"/>
    </contour>
  </outline>
</glyph>
<glyph name="seven" format="2">
  <advance width="748.0"/>
  <unicode hex="0037"/>
  <outline>
    <contour>
      <point x="133.25903614457835" y="0.0" type="line"/>
      <point x="264.2289156626506" y="0.0" type="line"/>
      <point x="669.8373493975904" y="620.1746987951807" type="line"/>
      <point x="669.8373493975904" y="705.0" type="line"/>
      <point x="77.93975903614458" y="705.0" type="line"/>
      <point x="77.93975903614458" y="607.1987951807229" type="line"/>
      <point x="570.9939759036145" y="607.1987951807229" type="line"/>
      <point x="569.9277108433736" y="650.4819277108434" type="line"/>
    </contour>
  </outline>
</glyph>
<glyph name="eight" format="2">
  <advance width="748.0"/>
  <unicode hex="0038"/>
  <outline>
    <contour>
      <point x="374.0" y="-9.421686746987952" type="curve" smooth="yes"/>
      <point x="576.8855421686746" y="-9.421686746987952"/>
      <point x="690.6385542168674" y="65.84337349397589"/>
      <point x="690.6385542168674" y="188.6867469879518" type="curve" smooth="yes"/>
      <point x="690.6385542168674" y="288.6867469879518"/>
      <point x="615.5722891566265" y="356.8192771084337"/>
      <point x="491.34939759036143" y="369.39759036144574" type="curve"/>
      <point x="491.34939759036143" y="350.80120481927713" type="line"/>
      <point x="601.5722891566265" y="368.73493975903614"/>
      <point x="669.9277108433735" y="435.5120481927711"/>
      <point x="669.9277108433735" y="526.5120481927711" type="curve" smooth="yes"/>
      <point x="669.9277108433735" y="643.710843373494"/>
      <point x="559.9518072289156" y="714.4216867469879"/>
      <point x="374.0" y="714.4216867469879" type="curve" smooth="yes"/>
      <point x="188.4036144578313" y="714.4216867469879"/>
      <point x="78.7831325301205" y="643.355421686747"/>
      <point x="78.7831325301205" y="527.222891566265" type="curve" smooth="yes"/>
      <point x="78.7831325301205" y="435.86746987951807"/>
      <point x="147.13855421686748" y="369.0903614457831"/>
      <point x="256.65060240963857" y="350.80120481927713" type="curve"/>
      <point x="256.65060240963857" y="369.39759036144574" type="line"/>
      <point x="133.13855421686748" y="356.46385542168673"/>
      <point x="57.36144578313253" y="288.3313253012048"/>
      <point x="57.36144578313253" y="188.6867469879518" type="curve" smooth="yes"/>
      <point x="57.36144578313253" y="65.84337349397589"/>
      <point x="171.1144578313253" y="-9.421686746987952"/>
    </contour>
    <contour>
      <point x="374.0" y="80.13855421686746" type="curve" smooth="yes"/>
      <point x="235.56626506024097" y="80.13855421686746"/>
      <point x="165.36144578313252" y="120.76506024096385"/>
      <point x="165.36144578313252" y="197.95180722891567" type="curve" smooth="yes"/>
      <point x="165.36144578313252" y="274.8493975903615"/>
      <point x="234.56626506024097" y="311.8975903614458"/>
      <point x="374.0" y="311.8975903614458" type="curve" smooth="yes"/>
      <point x="514.144578313253" y="311.8975903614458"/>
      <point x="582.6385542168674" y="274.8493975903615"/>
      <point x="582.6385542168674" y="197.95180722891567" type="curve" smooth="yes"/>
      <point x="582.6385542168674" y="120.76506024096385"/>
      <point x="513.144578313253" y="80.13855421686746"/>
    </contour>
    <contour>
      <point x="374.0" y="402.1024096385542" type="curve" smooth="yes"/>
      <point x="253.72289156626505" y="402.1024096385542"/>
      <point x="186.7831325301205" y="442.6626506024096"/>
      <point x="186.7831325301205" y="514.3373493975904" type="curve" smooth="yes"/>
      <point x="186.7831325301205" y="585.3012048192771"/>
      <point x="253.43373493975903" y="624.8614457831326"/>
      <point x="374.0" y="624.8614457831326" type="curve" smooth="yes"/>
      <point x="494.56626506024094" y="624.8614457831326"/>
      <point x="561.9277108433735" y="585.3012048192771"/>
      <point x="561.9277108433735" y="514.3373493975904" type="curve" smooth="yes"/>
      <point x="561.9277108433735" y="442.6626506024096"/>
      <point x="494.27710843373495" y="402.1024096385542"/>
    </contour>
  </outline>
</glyph>
<glyph name="nine" format="2">
  <advance width="748.0"/>
  <unicode hex="0039"/>
  <outline>
    <contour>
      <point x="314.9578313253012" y="-9.421686746987952" type="curve" smooth="yes"/>
      <point x="539.1746987951807" y="-9.421686746987952"/>
      <point x="672.4156626506024" y="125.93373493975903"/>
      <point x="672.4156626506024" y="369.37951807228916" type="curve" smooth="yes"/>
      <point x="672.4156626506024" y="588.355421686747"/>
      <point x="552.5301204819277" y="714.4216867469879"/>
      <point x="346.06626506024094" y="714.4216867469879" type="curve" smooth="yes"/>
      <point x="176.56024096385542" y="714.4216867469879"/>
      <point x="61.006024096385545" y="618.5783132530121"/>
      <point x="61.006024096385545" y="481.82530120481925" type="curve" smooth="yes"/>
      <point x="61.006024096385545" y="349.6265060240964"/>
      <point x="169.5843373493976" y="256.1385542168675"/>
      <point x="327.8072289156627" y="256.1385542168675" type="curve" smooth="yes"/>
      <point x="459.30120481927713" y="256.1385542168675"/>
      <point x="559.3493975903614" y="322.4096385542169"/>
      <point x="573.8373493975904" y="426.15060240963857" type="curve"/>
      <point x="562.9277108433735" y="426.15060240963857" type="line"/>
      <point x="562.9277108433735" y="345.1626506024096" type="line" smooth="yes"/>
      <point x="562.9277108433735" y="174.0120481927711"/>
      <point x="473.14457831325296" y="86.82530120481927"/>
      <point x="315.6024096385542" y="86.82530120481927" type="curve" smooth="yes"/>
      <point x="238.02409638554215" y="86.82530120481927"/>
      <point x="164.64457831325302" y="111.98192771084337"/>
      <point x="105.77710843373494" y="160.8734939759036" type="curve"/>
      <point x="62.51807228915663" y="74.9578313253012" type="line"/>
      <point x="122.62650602409639" y="23.37951807228916"/>
      <point x="219.4277108433735" y="-9.421686746987952"/>
    </contour>
    <contour>
      <point x="350.71084337349396" y="347.4096385542168" type="curve" smooth="yes"/>
      <point x="242.52409638554218" y="347.4096385542168"/>
      <point x="170.0722891566265" y="402.6385542168675"/>
      <point x="170.0722891566265" y="485.60240963855426" type="curve" smooth="yes"/>
      <point x="170.0722891566265" y="567.9216867469879"/>
      <point x="242.52409638554218" y="623.8614457831326"/>
      <point x="350.71084337349396" y="623.8614457831326" type="curve" smooth="yes"/>
      <point x="459.8975903614458" y="623.8614457831326"/>
      <point x="532.3493975903615" y="567.9216867469879"/>
      <point x="532.3493975903615" y="485.60240963855426" type="curve" smooth="yes"/>
      <point x="532.3493975903615" y="402.6385542168675"/>
      <point x="459.8975903614458" y="347.4096385542168"/>
    </contour>
  </outline>
</glyph>
<glyph name="colon" format="2">
  <advance width="283.27710843373495"/>
  <unicode hex="003A"/>
  <outline>
    <contour>
      <point x="76.62650602409639" y="360.59638554216866" type="line"/>
      <point x="206.65060240963857" y="360.59638554216866" type="line"/>
      <point x="206.65060240963857" y="487.5542168674699" type="line"/>
      <point x="76.62650602409639" y="487.5542168674699" type="line"/>
    </contour>
    <contour>
      <point x="76.62650602409639" y="0.0" type="line"/>
      <point x="206.65060240963857" y="0.0" type="line"/>
      <point x="206.65060240963857" y="127.66867469879517" type="line"/>
      <point x="76.62650602409639" y="127.66867469879517" type="line"/>
    </contour>
  </outline>
</glyph>
<glyph name="semicolon" format="2">
  <advance width="283.27710843373495"/>
  <unicode hex="003B"/>
  <outline>
    <contour>
      <point x="132.54819277108433" y="-127.01204819277109" type="line"/>
      <point x="185.7409638554217" y="-76.04216867469879"/>
      <point x="206.65060240963857" y="-29.313253012048193"/>
      <point x="206.65060240963857" y="38.68072289156626" type="curve" smooth="yes"/>
      <point x="206.65060240963857" y="127.66867469879517" type="line"/>
      <point x="76.62650602409639" y="127.66867469879517" type="line"/>
      <point x="76.62650602409639" y="0.0" type="line"/>
      <point x="163.789156626506" y="0.0" type="line"/>
      <point x="138.83734939759034" y="21.927710843373493" type="line"/>
      <point x="138.48192771084337" y="-22.957831325301207"/>
      <point x="124.21686746987952" y="-51.777108433734945"/>
      <point x="86.77710843373494" y="-90.15060240963855" type="curve"/>
    </contour>
    <contour>
      <point x="76.62650602409639" y="360.59638554216866" type="line"/>
      <point x="206.65060240963857" y="360.59638554216866" type="line"/>
      <point x="206.65060240963857" y="487.5542168674699" type="line"/>
      <point x="76.62650602409639" y="487.5542168674699" type="line"/>
    </contour>
  </outline>
</glyph>
<glyph name="less" format="2">
  <advance width="748.0"/>
  <unicode hex="003C"/>
  <outline>
    <contour>
      <point x="641.1325301204819" y="27.66867469879518" type="line"/>
      <point x="641.1325301204819" y="117.25301204819277" type="line"/>
      <point x="144.81927710843374" y="313.5722891566265" type="line"/>
      <point x="144.81927710843374" y="260.7831325301205" type="line"/>
      <point x="641.1325301204819" y="456.7469879518072" type="line"/>
      <point x="641.1325301204819" y="547.0421686746988" type="line"/>
      <point x="103.0" y="330.1024096385542" type="line"/>
      <point x="103.0" y="244.25301204819277" type="line"/>
    </contour>
  </outline>
</glyph>
<glyph name="equal" format="2">
  <advance width="748.0"/>
  <unicode hex="003D"/>
  <outline>
    <contour>
      <point x="103.0" y="351.3614457831325" type="line"/>
      <point x="645.0" y="351.3614457831325" type="line"/>
      <point x="645.0" y="430.1024096385542" type="line"/>
      <point x="103.0" y="430.1024096385542" type="line"/>
    </contour>
    <contour>
      <point x="103.0" y="144.60843373493975" type="line"/>
      <point x="645.0" y="144.60843373493975" type="line"/>
      <point x="645.0" y="222.63855421686748" type="line"/>
      <point x="103.0" y="222.63855421686748" type="line"/>
    </contour>
  </outline>
</glyph>
<glyph name="greater" format="2">
  <advance width="748.0"/>
  <unicode hex="003E"/>
  <outline>
    <contour>
      <point x="103.0" y="27.66867469879518" type="line"/>
      <point x="641.1325301204819" y="244.25301204819277" type="line"/>
      <point x="641.1325301204819" y="330.1024096385542" type="line"/>
      <point x="103.0" y="547.0421686746988" type="line"/>
      <point x="103.0" y="456.7469879518072" type="line"/>
      <point x="600.0240963855422" y="260.7831325301205" type="line"/>
      <point x="600.0240963855422" y="313.5722891566265" type="line"/>
      <point x="103.0" y="117.25301204819277" type="line"/>
    </contour>
  </outline>
</glyph>
<glyph name="question" format="2">
  <advance width="551.5903614457831"/>
  <unicode hex="003F"/>
  <outline>
    <contour>
      <point x="226.13253012048193" y="201.25301204819277" type="line"/>
      <point x="293.45180722891564" y="201.25301204819277" type="line"/>
      <point x="295.8072289156627" y="224.67469879518072" type="line" smooth="yes"/>
      <point x="301.16265060240966" y="271.30120481927713"/>
      <point x="326.3855421686747" y="310.41566265060237"/>
      <point x="411.60843373493975" y="374.9096385542169" type="curve" smooth="yes"/>
      <point x="495.83132530120486" y="439.7590361445783"/>
      <point x="527.0301204819277" y="488.04819277108436"/>
      <point x="527.0301204819277" y="547.1144578313254" type="curve" smooth="yes"/>
      <point x="527.0301204819277" y="651.7349397590361"/>
      <point x="429.5903614457831" y="714.4216867469879"/>
      <point x="284.3734939759036" y="714.4216867469879" type="curve" smooth="yes"/>
      <point x="174.95180722891567" y="714.4216867469879"/>
      <point x="67.39759036144578" y="677.9096385542168"/>
      <point x="0.06626506024096379" y="620.1746987951808" type="curve"/>
      <point x="44.25903614457831" y="534.2590361445783" type="line"/>
      <point x="114.06024096385542" y="590.7289156626506"/>
      <point x="189.43975903614458" y="618.1746987951807"/>
      <point x="278.0421686746988" y="618.1746987951807" type="curve" smooth="yes"/>
      <point x="361.7831325301205" y="618.1746987951807"/>
      <point x="412.63253012048193" y="591.4819277108434"/>
      <point x="412.63253012048193" y="535.0963855421687" type="curve" smooth="yes"/>
      <point x="412.63253012048193" y="499.6024096385542"/>
      <point x="393.3855421686747" y="468.1084337349398"/>
      <point x="331.0481927710843" y="418.32530120481925" type="curve" smooth="yes"/>
      <point x="246.8433734939759" y="351.3855421686747"/>
      <point x="226.13253012048193" y="295.84939759036143"/>
      <point x="226.13253012048193" y="237.24698795180723" type="curve" smooth="yes"/>
    </contour>
    <contour>
      <point x="194.6024096385542" y="0.0" type="line"/>
      <point x="324.98192771084337" y="0.0" type="line"/>
      <point x="324.98192771084337" y="127.66867469879517" type="line"/>
      <point x="194.6024096385542" y="127.66867469879517" type="line"/>
    </contour>
  </outline>
</glyph>
<glyph name="at" format="2">
  <advance width="1182.3072289156626"/>
  <unicode hex="0040"/>
  <outline>
    <contour>
      <point x="601.8192771084337" y="-164.4879518072289" type="curve" smooth="yes"/>
      <point x="749.8012048192771" y="-164.4879518072289"/>
      <point x="880.156626506024" y="-127.88554216867469"/>
      <point x="962.7349397590361" y="-61.68072289156626" type="curve"/>
      <point x="920.7168674698795" y="-2.313253012048193" type="line"/>
      <point x="847.3614457831325" y="-61.51807228915663"/>
      <point x="734.2469879518072" y="-93.98795180722891"/>
      <point x="602.1746987951807" y="-93.98795180722891" type="curve" smooth="yes"/>
      <point x="328.7710843373494" y="-93.98795180722891"/>
      <point x="156.65662650602408" y="42.43975903614458"/>
      <point x="156.65662650602408" y="267.5120481927711" type="curve" smooth="yes"/>
      <point x="156.65662650602408" y="495.00602409638554"/>
      <point x="332.90361445783134" y="643.9216867469879"/>
      <point x="622.7951807228915" y="643.9216867469879" type="curve" smooth="yes"/>
      <point x="875.644578313253" y="643.9216867469879"/>
      <point x="1030.4939759036145" y="529.2048192771084"/>
      <point x="1030.4939759036145" y="338.710843373494" type="curve" smooth="yes"/>
      <point x="1030.4939759036145" y="214.06024096385542"/>
      <point x="965.0" y="126.78915662650601"/>
      <point x="868.2831325301205" y="126.78915662650601" type="curve" smooth="yes"/>
      <point x="821.8132530120481" y="126.78915662650601"/>
      <point x="799.367469879518" y="146.94578313253012"/>
      <point x="799.367469879518" y="190.25903614457832" type="curve" smooth="yes"/>
      <point x="799.367469879518" y="207.4578313253012"/>
      <point x="803.5" y="228.210843373494"/>
      <point x="806.5" y="241.21084337349396" type="curve" smooth="yes"/>
      <point x="862.5240963855422" y="487.9096385542169" type="line"/>
      <point x="773.3614457831326" y="487.9096385542169" type="line"/>
      <point x="752.0060240963855" y="393.62048192771084" type="line"/>
      <point x="767.8253012048193" y="393.62048192771084" type="line"/>
      <point x="749.9819277108435" y="462.3975903614458"/>
      <point x="692.4698795180723" y="497.6867469879518"/>
      <point x="599.3132530120482" y="497.6867469879518" type="curve" smooth="yes"/>
      <point x="440.8012048192771" y="497.6867469879518"/>
      <point x="330.15662650602405" y="392.9759036144578"/>
      <point x="330.15662650602405" y="245.46385542168673" type="curve" smooth="yes"/>
      <point x="330.15662650602405" y="126.26506024096385"/>
      <point x="403.19879518072287" y="59.0"/>
      <point x="526.6867469879518" y="59.0" type="curve" smooth="yes"/>
      <point x="629.0180722891566" y="59.0"/>
      <point x="706.2409638554217" y="106.3975903614458"/>
      <point x="746.2409638554217" y="191.32530120481928" type="curve"/>
      <point x="721.4036144578313" y="186.22289156626508" type="line"/>
      <point x="713.843373493976" y="106.644578313253"/>
      <point x="762.7530120481928" y="59.0"/>
      <point x="861.0180722891566" y="59.0" type="curve" smooth="yes"/>
      <point x="1010.4156626506025" y="59.0"/>
      <point x="1110.5481927710844" y="173.35542168674698"/>
      <point x="1110.5481927710844" y="340.421686746988" type="curve" smooth="yes"/>
      <point x="1110.5481927710844" y="570.4879518072289"/>
      <point x="918.8614457831326" y="714.4216867469879"/>
      <point x="621.5301204819276" y="714.4216867469879" type="curve" smooth="yes"/>
      <point x="288.8674698795181" y="714.4216867469879"/>
      <point x="71.75903614457832" y="535.867469879518"/>
      <point x="71.75903614457832" y="268.28915662650604" type="curve" smooth="yes"/>
      <point x="71.75903614457832" y="2.8674698795180724"/>
      <point x="283.77710843373495" y="-164.4879518072289"/>
    </contour>
    <contour>
      <point x="545.1927710843374" y="130.56626506024097" type="curve" smooth="yes"/>
      <point x="465.4096385542168" y="130.56626506024097"/>
      <point x="422.8734939759036" y="170.74698795180723"/>
      <point x="422.8734939759036" y="248.53012048192772" type="curve" smooth="yes"/>
      <point x="422.8734939759036" y="354.2710843373494"/>
      <point x="499.5903614457831" y="426.12048192771084"/>
      <point x="615.9096385542168" y="426.12048192771084" type="curve" smooth="yes"/>
      <point x="695.2048192771084" y="426.12048192771084"/>
      <point x="735.2951807228915" y="392.2289156626506"/>
      <point x="735.2951807228915" y="317.0240963855421" type="curve" smooth="yes"/>
      <point x="735.2951807228915" y="211.83734939759037"/>
      <point x="658.066265060241" y="130.56626506024097"/>
    </contour>
  </outline>
</glyph>
<glyph name="A" format="2">
  <advance width="907.2349397590361"/>
  <unicode hex="0041"/>
  <anchor x="453.79518072289153" y="0.0" name="bottom"/>
  <anchor x="862.4156626506024" y="0.0" name="ogonek"/>
  <anchor x="454.1506024096385" y="705.0" name="top"/>
  <outline>
    <contour>
      <point x="15.120481927710845" y="0.0" type="line"/>
      <point x="134.7831325301205" y="0.0" type="line"/>
      <point x="242.2289156626506" y="199.02409638554215" type="line"/>
      <point x="185.19277108433735" y="168.12048192771084" type="line"/>
      <point x="720.1746987951807" y="168.12048192771084" type="line"/>
      <point x="664.0722891566265" y="199.02409638554215" type="line"/>
      <point x="771.8734939759037" y="0.0" type="line"/>
      <point x="892.8253012048193" y="0.0" type="line"/>
      <point x="505.2289156626506" y="705.0" type="line"/>
      <point x="402.7168674698795" y="705.0" type="line"/>
    </contour>
    <contour>
      <point x="452.1506024096385" y="594.289156626506" type="line"/>
      <point x="454.1506024096385" y="594.289156626506" type="line"/>
      <point x="646.0963855421686" y="231.90963855421685" type="line"/>
      <point x="679.8493975903615" y="258.03614457831327" type="line"/>
      <point x="225.5180722891566" y="258.03614457831327" type="line"/>
      <point x="260.5602409638554" y="231.90963855421685" type="line"/>
    </contour>
  </outline>
</glyph>
<glyph name="B" format="2">
  <advance width="845.3915662650602"/>
  <unicode hex="0042"/>
  <anchor x="423.46385542168673" y="0.0" name="bottom"/>
  <anchor x="423.81927710843377" y="705.0" name="top"/>
  <outline>
    <contour>
      <point x="103.78313253012048" y="0.0" type="line"/>
      <point x="490.03614457831327" y="0.0" type="line" smooth="yes"/>
      <point x="672.9258795180723" y="0.0"/>
      <point x="773.2530120481928" y="70.90963855421687"/>
      <point x="773.2530120481928" y="192.62048192771084" type="curve" smooth="yes"/>
      <point x="773.2530120481928" y="296.578313253012"/>
      <point x="700.6690120481927" y="355.3346506024096"/>
      <point x="570.8072289156626" y="368.9096385542169" type="curve"/>
      <point x="570.8072289156626" y="354.19879518072287" type="line"/>
      <point x="687.3891807228915" y="373.61657228915664"/>
      <point x="751.4759036144578" y="432.33132530120486"/>
      <point x="751.4759036144578" y="525.0662650602409" type="curve" smooth="yes"/>
      <point x="751.4759036144578" y="638.5783132530121"/>
      <point x="654.3809759036145" y="705.0"/>
      <point x="475.45783132530124" y="705.0" type="curve" smooth="yes"/>
      <point x="103.78313253012048" y="705.0" type="line"/>
    </contour>
    <contour>
      <point x="216.6024096385542" y="87.13855421686746" type="line"/>
      <point x="216.6024096385542" y="313.96385542168673" type="line"/>
      <point x="481.3734939759036" y="313.96385542168673" type="line" smooth="yes"/>
      <point x="549.5722891566265" y="313.96385542168673"/>
      <point x="658.1445783132531" y="308.63253012048193"/>
      <point x="658.1445783132531" y="201.3734939759036" type="curve" smooth="yes"/>
      <point x="658.1445783132531" y="93.18072289156626"/>
      <point x="546.3493975903615" y="87.13855421686746"/>
      <point x="479.43975903614455" y="87.13855421686746" type="curve" smooth="yes"/>
    </contour>
    <contour>
      <point x="216.6024096385542" y="401.1024096385542" type="line"/>
      <point x="216.6024096385542" y="617.8614457831326" type="line"/>
      <point x="460.3072289156627" y="617.8614457831326" type="line" smooth="yes"/>
      <point x="582.0722891566265" y="617.8614457831326"/>
      <point x="636.722891566265" y="583.3012048192771"/>
      <point x="636.722891566265" y="509.3373493975904" type="curve" smooth="yes"/>
      <point x="636.722891566265" y="435.01807228915663"/>
      <point x="582.7168674698795" y="401.1024096385542"/>
      <point x="461.59638554216866" y="401.1024096385542" type="curve" smooth="yes"/>
    </contour>
  </outline>
</glyph>
<glyph name="C" format="2">
  <advance width="836.3734939759037"/>
  <unicode hex="0043"/>
  <anchor x="478.6626506024096" y="0.0" name="bottom"/>
  <anchor x="480.3072289156626" y="705.0" name="top"/>
  <outline>
    <contour>
      <point x="485.06024096385545" y="-9.421686746987952" type="curve" smooth="yes"/>
      <point x="609.7710843373494" y="-9.421686746987952"/>
      <point x="716.6144578313252" y="24.44578313253012"/>
      <point x="787.9698795180723" y="86.1144578313253" type="curve"/>
      <point x="743.1987951807229" y="176.00602409638552" type="line"/>
      <point x="668.3313253012047" y="117.53614457831326"/>
      <point x="591.0180722891566" y="91.44578313253012"/>
      <point x="490.32530120481925" y="91.44578313253012" type="curve" smooth="yes"/>
      <point x="301.75994578313254" y="91.44578313253012"/>
      <point x="195.3975903614458" y="185.1867469879518"/>
      <point x="195.3975903614458" y="351.71084337349396" type="curve" smooth="yes"/>
      <point x="195.3975903614458" y="518.5903614457831"/>
      <point x="302.40452409638556" y="613.5542168674699"/>
      <point x="490.32530120481925" y="613.5542168674699" type="curve" smooth="yes"/>
      <point x="591.0180722891566" y="613.5542168674699"/>
      <point x="668.3313253012047" y="587.4638554216867"/>
      <point x="743.1987951807229" y="528.9939759036145" type="curve"/>
      <point x="787.9698795180723" y="618.8855421686748" type="line"/>
      <point x="716.6144578313252" y="681.2650602409637"/>
      <point x="610.4156626506024" y="714.4216867469879"/>
      <point x="486.3493975903615" y="714.4216867469879" type="curve" smooth="yes"/>
      <point x="230.90963855421685" y="714.4216867469879"/>
      <point x="71.75903614457832" y="575.8674698795181"/>
      <point x="71.75903614457832" y="352.0" type="curve" smooth="yes"/>
      <point x="71.75903614457832" y="128.77710843373492"/>
      <point x="229.90963855421685" y="-9.421686746987952"/>
    </contour>
  </outline>
</glyph>
<glyph name="D" format="2">
  <advance width="926.921686746988"/>
  <unicode hex="0044"/>
  <anchor x="461.2168674698795" y="0.0" name="bottom"/>
  <anchor x="226.99397590361446" y="358.0" name="center"/>
  <anchor x="461.5722891566265" y="705.0" name="top"/>
  <outline>
    <contour>
      <point x="103.78313253012048" y="0.0" type="line"/>
      <point x="419.83734939759034" y="0.0" type="line" smooth="yes"/>
      <point x="705.9216867469879" y="0.0"/>
      <point x="855.8734939759037" y="121.48795180722891"/>
      <point x="855.8734939759037" y="353.0" type="curve" smooth="yes"/>
      <point x="855.8734939759037" y="583.867469879518"/>
      <point x="706.210843373494" y="705.0"/>
      <point x="419.83734939759034" y="705.0" type="curve" smooth="yes"/>
      <point x="103.78313253012048" y="705.0" type="line"/>
    </contour>
    <contour>
      <point x="220.5120481927711" y="94.9578313253012" type="line"/>
      <point x="220.5120481927711" y="610.0421686746987" type="line"/>
      <point x="412.2831325301205" y="610.0421686746987" type="line" smooth="yes"/>
      <point x="634.4277108433735" y="610.0421686746987"/>
      <point x="734.0120481927711" y="530.5240963855422"/>
      <point x="734.0120481927711" y="353.0" type="curve" smooth="yes"/>
      <point x="734.0120481927711" y="174.83132530120483"/>
      <point x="634.7831325301205" y="94.9578313253012"/>
      <point x="412.2831325301205" y="94.9578313253012" type="curve" smooth="yes"/>
    </contour>
  </outline>
</glyph>
<glyph name="E" format="2">
  <advance width="725.4578313253012"/>
  <unicode hex="0045"/>
  <anchor x="402.46385542168673" y="0.0" name="bottom"/>
  <anchor x="620.1506024096385" y="0.0" name="ogonek"/>
  <anchor x="402.46385542168673" y="705.0" name="top"/>
  <anchor x="27.867469879518072" y="705.0" name="topleft"/>
  <outline>
    <contour>
      <point x="103.78313253012048" y="0.0" type="line"/>
      <point x="665.6807228915662" y="0.0" type="line"/>
      <point x="665.6807228915662" y="91.04819277108433" type="line"/>
      <point x="216.6024096385542" y="91.04819277108433" type="line"/>
      <point x="216.6024096385542" y="312.8313253012048" type="line"/>
      <point x="631.1686746987953" y="312.8313253012048" type="line"/>
      <point x="631.1686746987953" y="403.87951807228916" type="line"/>
      <point x="216.6024096385542" y="403.87951807228916" type="line"/>
      <point x="216.6024096385542" y="613.9518072289156" type="line"/>
      <point x="665.6807228915662" y="613.9518072289156" type="line"/>
      <point x="665.6807228915662" y="705.0" type="line"/>
      <point x="103.78313253012048" y="705.0" type="line"/>
    </contour>
  </outline>
</glyph>
<glyph name="F" format="2">
  <advance width="682.7469879518072"/>
  <unicode hex="0046"/>
  <anchor x="368.3975903614458" y="0.0" name="bottom"/>
  <anchor x="370.8855421686747" y="705.0" name="top"/>
  <outline>
    <contour>
      <point x="103.78313253012048" y="0.0" type="line"/>
      <point x="220.5120481927711" y="0.0" type="line"/>
      <point x="220.5120481927711" y="308.921686746988" type="line"/>
      <point x="628.3915662650602" y="308.921686746988" type="line"/>
      <point x="628.3915662650602" y="399.9698795180723" type="line"/>
      <point x="220.5120481927711" y="399.9698795180723" type="line"/>
      <point x="220.5120481927711" y="613.9518072289156" type="line"/>
      <point x="654.1024096385541" y="613.9518072289156" type="line"/>
      <point x="654.1024096385541" y="705.0" type="line"/>
      <point x="103.78313253012048" y="705.0" type="line"/>
    </contour>
  </outline>
</glyph>
<glyph name="G" format="2">
  <advance width="904.3493975903615"/>
  <unicode hex="0047"/>
  <anchor x="497.2831325301205" y="0.0" name="bottom"/>
  <anchor x="488.2831325301205" y="705.0" name="top"/>
  <outline>
    <contour>
      <point x="506.92771084337346" y="-9.421686746987952" type="curve" smooth="yes"/>
      <point x="616.8373493975904" y="-9.421686746987952"/>
      <point x="733.1927710843373" y="11.933734939759036"/>
      <point x="808.210843373494" y="45.77710843373494" type="curve"/>
      <point x="808.210843373494" y="376.2590361445783" type="line"/>
      <point x="490.84337349397595" y="376.2590361445783" type="line"/>
      <point x="490.84337349397595" y="291.2530120481928" type="line"/>
      <point x="708.1867469879518" y="291.2530120481928" type="line"/>
      <point x="708.1867469879518" y="93.60843373493977" type="line"/>
      <point x="726.6506024096385" y="124.0722891566265" type="line"/>
      <point x="657.2048192771084" y="100.75903614457832"/>
      <point x="584.644578313253" y="88.24698795180723"/>
      <point x="510.57228915662654" y="88.24698795180723" type="curve" smooth="yes"/>
      <point x="302.3032710843373" y="88.24698795180723"/>
      <point x="193.62048192771084" y="178.47590361445782"/>
      <point x="193.62048192771084" y="350.06626506024094" type="curve" smooth="yes"/>
      <point x="193.62048192771084" y="521.0120481927711"/>
      <point x="301.10419277108434" y="614.9759036144578"/>
      <point x="496.0120481927711" y="614.9759036144578" type="curve" smooth="yes"/>
      <point x="598.9036144578313" y="614.9759036144578"/>
      <point x="678.6385542168674" y="589.9518072289156"/>
      <point x="754.5722891566265" y="533.2590361445783" type="curve"/>
      <point x="800.0542168674699" y="622.0843373493975" type="line"/>
      <point x="726.9879518072289" y="681.6204819277109"/>
      <point x="618.656626506024" y="714.4216867469879"/>
      <point x="494.1686746987952" y="714.4216867469879" type="curve" smooth="yes"/>
      <point x="232.33132530120483" y="714.4216867469879"/>
      <point x="71.75903614457832" y="576.9337349397591"/>
      <point x="71.75903614457832" y="350.64457831325296" type="curve" smooth="yes"/>
      <point x="71.75903614457832" y="123.42168674698796"/>
      <point x="231.8433734939759" y="-9.421686746987952"/>
    </contour>
  </outline>
</glyph>
<glyph name="H" format="2">
  <advance width="950.3915662650602"/>
  <unicode hex="0048"/>
  <anchor x="475.3734939759036" y="0.0" name="bottom"/>
  <anchor x="475.3734939759036" y="558.3734939759036" name="center"/>
  <anchor x="475.0180722891566" y="705.0" name="top"/>
  <anchor x="27.867469879518072" y="705.0" name="topleft"/>
  <outline>
    <contour>
      <point x="103.78313253012048" y="0.0" type="line"/>
      <point x="220.5120481927711" y="0.0" type="line"/>
      <point x="220.5120481927711" y="310.3433734939759" type="line"/>
      <point x="729.8795180722892" y="310.3433734939759" type="line"/>
      <point x="729.8795180722892" y="0.0" type="line"/>
      <point x="846.6084337349397" y="0.0" type="line"/>
      <point x="846.6084337349397" y="705.0" type="line"/>
      <point x="729.8795180722892" y="705.0" type="line"/>
      <point x="729.8795180722892" y="405.30120481927713" type="line"/>
      <point x="220.5120481927711" y="405.30120481927713" type="line"/>
      <point x="220.5120481927711" y="705.0" type="line"/>
      <point x="103.78313253012048" y="705.0" type="line"/>
    </contour>
  </outline>
</glyph>
<glyph name="I" format="2">
  <advance width="323.58433734939763"/>
  <unicode hex="0049"/>
  <anchor x="162.32530120481928" y="0.0" name="bottom"/>
  <anchor x="199.5421686746988" y="0.0" name="ogonek"/>
  <anchor x="162.32530120481928" y="705.0" name="top"/>
  <anchor x="28.156626506024097" y="705.0" name="topleft"/>
  <outline>
    <contour>
      <point x="103.78313253012048" y="0.0" type="line"/>
      <point x="220.5120481927711" y="0.0" type="line"/>
      <point x="220.5120481927711" y="705.0" type="line"/>
      <point x="103.78313253012048" y="705.0" type="line"/>
    </contour>
  </outline>
</glyph>
<glyph name="J" format="2">
  <advance width="409.4698795180723"/>
  <unicode hex="004A"/>
  <anchor x="248.43373493975903" y="0.0" name="bottom"/>
  <anchor x="246.78915662650604" y="705.0" name="top"/>
  <outline>
    <contour>
      <point x="-7.024096385542169" y="-8.132530120481928" type="line"/>
      <point x="77.85542168674698" y="-3.7771084337349397" type="line" smooth="yes"/>
      <point x="225.32198192771085" y="5.218427710843374"/>
      <point x="305.6867469879518" y="77.75301204819277"/>
      <point x="305.6867469879518" y="204.32530120481928" type="curve" smooth="yes"/>
      <point x="305.6867469879518" y="705.0" type="line"/>
      <point x="188.95783132530119" y="705.0" type="line"/>
      <point x="188.95783132530119" y="204.19277108433735" type="line" smooth="yes"/>
      <point x="188.95783132530119" y="136.31927710843374"/>
      <point x="144.8433734939759" y="94.40361445783132"/>
      <point x="62.704819277108435" y="89.46987951807229" type="curve" smooth="yes"/>
      <point x="-14.933734939759036" y="85.1144578313253" type="line"/>
    </contour>
  </outline>
</glyph>
<glyph name="K" format="2">
  <advance width="784.421686746988"/>
  <unicode hex="004B"/>
  <anchor x="395.23493975903614" y="0.0" name="bottom"/>
  <anchor x="395.5903614457832" y="705.0" name="top"/>
  <anchor x="27.867469879518072" y="705.0" name="topleft"/>
  <outline>
    <contour>
      <point x="103.78313253012048" y="0.0" type="line"/>
      <point x="220.5120481927711" y="0.0" type="line"/>
      <point x="220.5120481927711" y="329.0481927710843" type="line"/>
      <point x="222.5120481927711" y="329.0481927710843" type="line"/>
      <point x="646.4698795180723" y="0.0" type="line"/>
      <point x="808.4819277108434" y="0.0" type="line"/>
      <point x="305.44578313253015" y="380.3734939759036" type="line"/>
      <point x="305.0903614457831" y="343.37951807228916" type="line"/>
      <point x="783.8795180722891" y="705.0" type="line"/>
      <point x="630.1325301204819" y="705.0" type="line"/>
      <point x="222.5120481927711" y="389.15060240963857" type="line"/>
      <point x="220.5120481927711" y="389.15060240963857" type="line"/>
      <point x="220.5120481927711" y="705.0" type="line"/>
      <point x="103.78313253012048" y="705.0" type="line"/>
    </contour>
  </outline>
</glyph>
<glyph name="L" format="2">
  <advance width="677.8554216867469"/>
  <unicode hex="004C"/>
  <anchor x="381.9759036144579" y="0.0" name="bottom"/>
  <anchor x="216.68072289156626" y="387.0" name="center"/>
  <anchor x="506.4096385542169" y="392.39759036144574" name="dot"/>
  <anchor x="162.32530120481928" y="705.0" name="top"/>
  <anchor x="358.2289156626506" y="705.0" name="topright"/>
  <outline>
    <contour>
      <point x="103.78313253012048" y="0.0" type="line"/>
      <point x="660.1686746987953" y="0.0" type="line"/>
      <point x="660.1686746987953" y="96.73493975903615" type="line"/>
      <point x="220.5120481927711" y="96.73493975903615" type="line"/>
      <point x="220.5120481927711" y="705.0" type="line"/>
      <point x="103.78313253012048" y="705.0" type="line"/>
    </contour>
  </outline>
</glyph>
<glyph name="M" format="2">
  <advance width="1070.6566265060242"/>
  <unicode hex="004D"/>
  <anchor x="536.5060240963855" y="0.0" name="bottom"/>
  <anchor x="536.5060240963855" y="705.0" name="top"/>
  <outline>
    <contour>
      <point x="105.78313253012048" y="0.0" type="line"/>
      <point x="213.33734939759034" y="0.0" type="line"/>
      <point x="213.33734939759034" y="559.3253012048192" type="line"/>
      <point x="188.84939759036143" y="559.3253012048192" type="line"/>
      <point x="501.8012048192771" y="107.51204819277108" type="line"/>
      <point x="570.0783132530121" y="107.51204819277108" type="line"/>
      <point x="880.4518072289158" y="558.3253012048192" type="line"/>
      <point x="858.0301204819277" y="558.3253012048192" type="line"/>
      <point x="858.0301204819277" y="0.0" type="line"/>
      <point x="965.5843373493976" y="0.0" type="line"/>
      <point x="965.5843373493976" y="705.0" type="line"/>
      <point x="864.1626506024096" y="705.0" type="line"/>
      <point x="518.4397590361446" y="193.8433734939759" type="line"/>
      <point x="554.9939759036146" y="193.8433734939759" type="line"/>
      <point x="207.13855421686745" y="705.0" type="line"/>
      <point x="105.78313253012048" y="705.0" type="line"/>
    </contour>
  </outline>
</glyph>
<glyph name="N" format="2">
  <advance width="923.4156626506024"/>
  <unicode hex="004E"/>
  <anchor x="461.88554216867465" y="0.0" name="bottom"/>
  <anchor x="461.88554216867465" y="705.0" name="top"/>
  <outline>
    <contour>
      <point x="103.78313253012048" y="0.0" type="line"/>
      <point x="214.95783132530119" y="0.0" type="line"/>
      <point x="214.95783132530119" y="568.3674698795181" type="line"/>
      <point x="189.7831325301205" y="568.3674698795181" type="line"/>
      <point x="728.2289156626506" y="0.0" type="line"/>
      <point x="819.6325301204819" y="0.0" type="line"/>
      <point x="819.6325301204819" y="705.0" type="line"/>
      <point x="708.4578313253012" y="705.0" type="line"/>
      <point x="708.4578313253012" y="137.34337349397592" type="line"/>
      <point x="734.632530120482" y="137.34337349397592" type="line"/>
      <point x="195.5421686746988" y="705.0" type="line"/>
      <point x="103.78313253012048" y="705.0" type="line"/>
    </contour>
  </outline>
</glyph>
<glyph name="O" format="2">
  <advance width="958.3433734939758"/>
  <unicode hex="004F"/>
  <anchor x="479.34939759036143" y="-9.421686746987952" name="Qtail"/>
  <anchor x="479.34939759036143" y="0.0" name="bottom"/>
  <anchor x="479.2168674698795" y="353.0" name="center"/>
  <anchor x="550.1265060240964" y="0.0" name="ogonek"/>
  <anchor x="479.7048192771084" y="705.0" name="top"/>
  <anchor x="30.066265060240966" y="705.0" name="topleft"/>
  <anchor x="569.5722891566265" y="705.0" name="topright"/>
  <outline>
    <contour>
      <point x="479.70481927710847" y="-9.421686746987952" type="curve" smooth="yes"/>
      <point x="727.0783132530121" y="-9.421686746987952"/>
      <point x="887.2951807228916" y="132.84337349397592"/>
      <point x="887.2951807228916" y="353.355421686747" type="curve" smooth="yes"/>
      <point x="887.2951807228916" y="573.8674698795181"/>
      <point x="727.0783132530121" y="714.4216867469879"/>
      <point x="479.70481927710847" y="714.4216867469879" type="curve" smooth="yes"/>
      <point x="231.97590361445782" y="714.4216867469879"/>
      <point x="71.75903614457832" y="572.8674698795181"/>
      <point x="71.75903614457832" y="352.0" type="curve" smooth="yes"/>
      <point x="71.75903614457832" y="131.4879518072289"/>
      <point x="231.62048192771084" y="-9.421686746987952"/>
    </contour>
    <contour>
      <point x="479.70481927710847" y="88.24698795180723" type="curve" smooth="yes"/>
      <point x="301.2710843373494" y="88.24698795180723"/>
      <point x="193.62048192771084" y="187.76506024096386"/>
      <point x="193.62048192771084" y="352.0" type="curve" smooth="yes"/>
      <point x="193.62048192771084" y="516.9457831325301"/>
      <point x="302.2710843373494" y="616.7530120481927"/>
      <point x="479.70481927710847" y="616.7530120481927" type="curve" smooth="yes"/>
      <point x="658.1385542168675" y="616.7530120481927"/>
      <point x="765.4337349397591" y="517.9457831325301"/>
      <point x="765.4337349397591" y="353.0" type="curve" smooth="yes"/>
      <point x="765.4337349397591" y="188.76506024096386"/>
      <point x="656.7831325301205" y="88.24698795180723"/>
    </contour>
  </outline>
</glyph>
<glyph name="P" format="2">
  <advance width="792.4096385542169"/>
  <unicode hex="0050"/>
  <anchor x="403.50602409638554" y="0.0" name="bottom"/>
  <anchor x="403.8614457831325" y="705.0" name="top"/>
  <outline>
    <contour>
      <point x="103.78313253012048" y="0.0" type="line"/>
      <point x="220.5120481927711" y="0.0" type="line"/>
      <point x="220.5120481927711" y="269.4096385542169" type="line"/>
      <point x="473.144578313253" y="269.4096385542169" type="line" smooth="yes"/>
      <point x="659.4604638554217" y="269.4096385542169"/>
      <point x="756.4518072289156" y="344.1626506024096"/>
      <point x="756.4518072289156" y="487.56024096385545" type="curve" smooth="yes"/>
      <point x="756.4518072289156" y="631.6024096385543"/>
      <point x="659.4604638554217" y="705.0"/>
      <point x="473.144578313253" y="705.0" type="curve" smooth="yes"/>
      <point x="103.78313253012048" y="705.0" type="line"/>
    </contour>
    <contour>
      <point x="220.5120481927711" y="359.7469879518072" type="line"/>
      <point x="220.5120481927711" y="614.6626506024096" type="line"/>
      <point x="460.99397590361446" y="614.6626506024096" type="line" smooth="yes"/>
      <point x="586.5602409638554" y="614.6626506024096"/>
      <point x="641.698795180723" y="576.3915662650602"/>
      <point x="641.698795180723" y="487.9156626506024" type="curve" smooth="yes"/>
      <point x="641.698795180723" y="399.7951807228916"/>
      <point x="584.4939759036145" y="359.7469879518072"/>
      <point x="460.99397590361446" y="359.7469879518072" type="curve" smooth="yes"/>
    </contour>
  </outline>
</glyph>
<glyph name="R" format="2">
  <advance width="837.210843373494"/>
  <unicode hex="0052"/>
  <anchor x="419.6385542168675" y="0.0" name="bottom"/>
  <anchor x="419.28313253012044" y="705.0" name="top"/>
  <outline>
    <contour>
      <point x="103.78313253012048" y="0.0" type="line"/>
      <point x="220.5120481927711" y="0.0" type="line"/>
      <point x="220.5120481927711" y="284.76506024096386" type="line"/>
      <point x="385.68674698795184" y="284.76506024096386" type="line" smooth="yes"/>
      <point x="467.9156626506024" y="284.76506024096386"/>
      <point x="497.16265060240966" y="269.18674698795184"/>
      <point x="531.433734939759" y="219.6024096385542" type="curve" smooth="yes"/>
      <point x="680.5240963855422" y="0.0" type="line"/>
      <point x="811.2951807228916" y="0.0" type="line"/>
      <point x="658.0240963855422" y="219.31927710843374" type="line" smooth="yes"/>
      <point x="618.0240963855422" y="276.8975903614458"/>
      <point x="569.1807228915662" y="302.5421686746988"/>
      <point x="505.18072289156623" y="302.5421686746988" type="curve" smooth="yes"/>
      <point x="470.87951807228916" y="302.5421686746988" type="line"/>
      <point x="458.30120481927713" y="287.76506024096386" type="line"/>
      <point x="649.7650602409639" y="287.76506024096386"/>
      <point x="756.4518072289156" y="364.09638554216866"/>
      <point x="756.4518072289156" y="500.56024096385545" type="curve" smooth="yes"/>
      <point x="756.4518072289156" y="632.3132530120482"/>
      <point x="656.1204819277108" y="705.0"/>
      <point x="471.72289156626505" y="705.0" type="curve" smooth="yes"/>
      <point x="103.78313253012048" y="705.0" type="line"/>
    </contour>
    <contour>
      <point x="220.5120481927711" y="370.1265060240964" type="line"/>
      <point x="220.5120481927711" y="614.6626506024096" type="line"/>
      <point x="457.7048192771084" y="614.6626506024096" type="line" smooth="yes"/>
      <point x="584.9819277108434" y="614.6626506024096"/>
      <point x="641.698795180723" y="575.6807228915662"/>
      <point x="641.698795180723" y="493.78313253012044" type="curve" smooth="yes"/>
      <point x="641.698795180723" y="410.5301204819277"/>
      <point x="584.9819277108434" y="370.1265060240964"/>
      <point x="457.7048192771084" y="370.1265060240964" type="curve" smooth="yes"/>
    </contour>
  </outline>
</glyph>
<glyph name="S" format="2">
  <advance width="766.3012048192771"/>
  <unicode hex="0053"/>
  <anchor x="396.15060240963857" y="0.0" name="bottom"/>
  <anchor x="391.7710843373494" y="705.0" name="top"/>
  <outline>
    <contour>
      <point x="391.3734939759036" y="-9.421686746987952" type="curve" smooth="yes"/>
      <point x="597.5903614457831" y="-9.421686746987952"/>
      <point x="722.6084337349398" y="67.0421686746988"/>
      <point x="722.6084337349398" y="194.06024096385542" type="curve" smooth="yes"/>
      <point x="722.6084337349398" y="305.48192771084337"/>
      <point x="641.1204819277109" y="360.72289156626505"/>
      <point x="481.76506024096386" y="383.78915662650604" type="curve" smooth="yes"/>
      <point x="329.6566265060241" y="405.921686746988" type="line" smooth="yes"/>
      <point x="234.73493975903614" y="419.7228915662651"/>
      <point x="191.4879518072289" y="446.9277108433735"/>
      <point x="191.4879518072289" y="507.89156626506025" type="curve" smooth="yes"/>
      <point x="191.4879518072289" y="577.5903614457832"/>
      <point x="263.8734939759036" y="618.8855421686748"/>
      <point x="390.8614457831325" y="618.8855421686748" type="curve" smooth="yes"/>
      <point x="500.9277108433735" y="618.8855421686748"/>
      <point x="579.2831325301205" y="593.3734939759036"/>
      <point x="656.2168674698795" y="535.9036144578313" type="curve"/>
      <point x="697.566265060241" y="621.4638554216867" type="line"/>
      <point x="625.855421686747" y="681.4879518072289"/>
      <point x="518.7469879518072" y="714.4216867469879"/>
      <point x="395.5481927710843" y="714.4216867469879" type="curve" smooth="yes"/>
      <point x="201.6867469879518" y="714.4216867469879"/>
      <point x="75.24698795180723" y="632.156626506024"/>
      <point x="75.24698795180723" y="499.84939759036143" type="curve" smooth="yes"/>
      <point x="75.24698795180723" y="390.9397590361446"/>
      <point x="148.93373493975903" y="328.96385542168673"/>
      <point x="302.71084337349396" y="307.6084337349398" type="curve" smooth="yes"/>
      <point x="461.7951807228916" y="286.18674698795184" type="line" smooth="yes"/>
      <point x="553.2951807228916" y="273.45180722891564"/>
      <point x="606.0120481927711" y="254.6265060240964"/>
      <point x="606.0120481927711" y="188.5722891566265" type="curve" smooth="yes"/>
      <point x="606.0120481927711" y="122.31927710843374"/>
      <point x="532.8493975903614" y="86.1144578313253"/>
      <point x="396.7710843373494" y="86.1144578313253" type="curve" smooth="yes"/>
      <point x="278.1927710843373" y="86.1144578313253"/>
      <point x="189.79518072289156" y="111.46987951807228"/>
      <point x="98.01807228915662" y="169.78313253012047" type="curve"/>
      <point x="56.31325301204819" y="80.3132530120482" type="line"/>
      <point x="138.44578313253012" y="22.933734939759034"/>
      <point x="258.5301204819277" y="-9.421686746987952"/>
    </contour>
  </outline>
</glyph>
<glyph name="T" format="2">
  <advance width="751.5"/>
  <unicode hex="0054"/>
  <anchor x="375.9277108433735" y="0.0" name="bottom"/>
  <anchor x="376.2831325301205" y="358.0" name="center"/>
  <anchor x="376.2831325301205" y="705.0" name="top"/>
  <outline>
    <contour>
      <point x="317.7409638554217" y="0.0" type="line"/>
      <point x="434.4698795180723" y="0.0" type="line"/>
      <point x="434.4698795180723" y="610.0421686746987" type="line"/>
      <point x="749.722891566265" y="610.0421686746987" type="line"/>
      <point x="749.722891566265" y="705.0" type="line"/>
      <point x="2.4879518072289155" y="705.0" type="line"/>
      <point x="2.4879518072289155" y="610.0421686746987" type="line"/>
      <point x="317.7409638554217" y="610.0421686746987" type="line"/>
    </contour>
  </outline>
</glyph>
<glyph name="U" format="2">
  <advance width="909.8373493975904"/>
  <unicode hex="0055"/>
  <anchor x="454.59638554216866" y="0.0" name="bottom"/>
  <anchor x="525.2409638554217" y="0.0" name="ogonek"/>
  <anchor x="454.59638554216866" y="705.0" name="top"/>
  <anchor x="721.3373493975904" y="705.0" name="topright"/>
  <outline>
    <contour>
      <point x="455.3072289156626" y="-9.421686746987952" type="curve" smooth="yes"/>
      <point x="693.301204819277" y="-9.421686746987952"/>
      <point x="812.0542168674699" y="90.33132530120481"/>
      <point x="812.0542168674699" y="283.99397590361446" type="curve" smooth="yes"/>
      <point x="812.0542168674699" y="705.0" type="line"/>
      <point x="696.0361445783132" y="705.0" type="line"/>
      <point x="696.0361445783132" y="287.50602409638554" type="line" smooth="yes"/>
      <point x="696.0361445783132" y="155.93975903614458"/>
      <point x="616.6084337349397" y="88.24698795180723"/>
      <point x="455.3072289156626" y="88.24698795180723" type="curve" smooth="yes"/>
      <point x="294.6506024096385" y="88.24698795180723"/>
      <point x="213.86746987951807" y="155.93975903614458"/>
      <point x="213.86746987951807" y="287.50602409638554" type="curve" smooth="yes"/>
      <point x="213.86746987951807" y="705.0" type="line"/>
      <point x="97.13855421686746" y="705.0" type="line"/>
      <point x="97.13855421686746" y="283.99397590361446" type="line" smooth="yes"/>
      <point x="97.13855421686746" y="91.04216867469879"/>
      <point x="216.9578313253012" y="-9.421686746987952"/>
    </contour>
  </outline>
</glyph>
<glyph name="V" format="2">
  <advance width="860.3855421686746"/>
  <unicode hex="0056"/>
  <anchor x="430.1927710843373" y="0.0" name="bottom"/>
  <anchor x="430.1927710843373" y="705.0" name="top"/>
  <outline>
    <contour>
      <point x="377.1807228915663" y="0.0" type="line"/>
      <point x="483.2048192771084" y="0.0" type="line"/>
      <point x="867.2469879518072" y="705.0" type="line"/>
      <point x="741.1867469879518" y="705.0" type="line"/>
      <point x="413.7951807228916" y="90.62048192771083" type="line"/>
      <point x="452.144578313253" y="90.62048192771083" type="line"/>
      <point x="124.04216867469879" y="705.0" type="line"/>
      <point x="-6.861445783132529" y="705.0" type="line"/>
    </contour>
  </outline>
</glyph>
<glyph name="W" format="2">
  <advance width="1372.8373493975905"/>
  <unicode hex="0057"/>
  <anchor x="687.8855421686748" y="0.0" name="bottom"/>
  <anchor x="686.9518072289156" y="705.0" name="top"/>
  <outline>
    <contour>
      <point x="338.6927710843374" y="0.0" type="line"/>
      <point x="440.07228915662654" y="0.0" type="line"/>
      <point x="697.3734939759036" y="567.6385542168675" type="line"/>
      <point x="674.5301204819277" y="567.6385542168675" type="line"/>
      <point x="932.1867469879518" y="0.0" type="line"/>
      <point x="1034.5" y="0.0" type="line"/>
      <point x="1340.987951807229" y="705.0" type="line"/>
      <point x="1223.1024096385543" y="705.0" type="line"/>
      <point x="963.2228915662652" y="107.59036144578313" type="line"/>
      <point x="1002.9518072289158" y="107.59036144578313" type="line"/>
      <point x="735.6746987951807" y="705.0" type="line"/>
      <point x="641.6265060240963" y="705.0" type="line"/>
      <point x="373.99397590361446" y="107.59036144578313" type="line"/>
      <point x="416.94578313253015" y="107.59036144578313" type="line"/>
      <point x="157.06626506024097" y="705.0" type="line"/>
      <point x="32.915662650602414" y="705.0" type="line"/>
    </contour>
  </outline>
</glyph>
<glyph name="X" format="2">
  <advance width="812.1204819277108"/>
  <unicode hex="0058"/>
  <anchor x="407.06024096385545" y="0.0" name="bottom"/>
  <anchor x="407.0602409638554" y="705.0" name="top"/>
  <outline>
    <contour>
      <point x="4.186746987951809" y="0.0" type="line"/>
      <point x="146.64457831325302" y="0.0" type="line"/>
      <point x="425.30120481927713" y="303.1024096385542" type="line"/>
      <point x="384.10843373493975" y="303.1024096385542" type="line"/>
      <point x="663.0542168674699" y="0.0" type="line"/>
      <point x="809.066265060241" y="0.0" type="line"/>
      <point x="456.0722891566265" y="382.5722891566265" type="line"/>
      <point x="456.0722891566265" y="335.7409638554217" type="line"/>
      <point x="793.9096385542168" y="705.0" type="line"/>
      <point x="651.8072289156626" y="705.0" type="line"/>
      <point x="390.9759036144579" y="416.36746987951807" type="line"/>
      <point x="425.43373493975906" y="416.36746987951807" type="line"/>
      <point x="163.22289156626505" y="705.0" type="line"/>
      <point x="17.21084337349398" y="705.0" type="line"/>
      <point x="356.7590361445783" y="335.7409638554217" type="line"/>
      <point x="356.7590361445783" y="382.5722891566265" type="line"/>
    </contour>
  </outline>
</glyph>
<glyph name="Y" format="2">
  <advance width="743.7650602409639"/>
  <unicode hex="0059"/>
  <anchor x="371.06024096385545" y="0.0" name="bottom"/>
  <anchor x="372.1265060240964" y="705.0" name="top"/>
  <anchor x="18.066265060240966" y="705.0" name="topleft"/>
  <outline>
    <contour>
      <point x="313.2289156626506" y="0.0" type="line"/>
      <point x="429.9578313253012" y="0.0" type="line"/>
      <point x="429.9578313253012" y="357.355421686747" type="line"/>
      <point x="407.2289156626506" y="293.30120481927713" type="line"/>
      <point x="765.6024096385541" y="705.0" type="line"/>
      <point x="635.4096385542168" y="705.0" type="line"/>
      <point x="360.7951807228916" y="393.0783132530121" type="line"/>
      <point x="388.1024096385542" y="393.0783132530121" type="line"/>
      <point x="116.13253012048193" y="705.0" type="line"/>
      <point x="-21.83734939759036" y="705.0" type="line"/>
      <point x="337.6024096385542" y="293.30120481927713" type="line"/>
      <point x="313.2289156626506" y="357.355421686747" type="line"/>
    </contour>
  </outline>
</glyph>
<glyph name="Z" format="2">
  <advance width="733.9457831325302"/>
  <unicode hex="005A"/>
  <anchor x="382.3734939759036" y="0.0" name="bottom"/>
  <anchor x="382.01807228915663" y="705.0" name="top"/>
  <outline>
    <contour>
      <point x="56.644578313253014" y="0.0" type="line"/>
      <point x="709.3012048192771" y="0.0" type="line"/>
      <point x="709.3012048192771" y="92.46987951807229" type="line"/>
      <point x="174.50602409638554" y="92.46987951807229" type="line"/>
      <point x="174.50602409638554" y="58.45180722891566" type="line"/>
      <point x="692.2349397590361" y="621.9518072289156" type="line"/>
      <point x="692.2349397590361" y="705.0" type="line"/>
      <point x="56.644578313253014" y="705.0" type="line"/>
      <point x="56.644578313253014" y="612.5301204819277" type="line"/>
      <point x="575.0180722891566" y="612.5301204819277" type="line"/>
      <point x="575.0180722891566" y="647.2590361445783" type="line"/>
      <point x="56.644578313253014" y="83.04819277108433" type="line"/>
    </contour>
  </outline>
</glyph>
<glyph name="bracketleft" format="2">
  <advance width="397.355421686747"/>
  <unicode hex="005B"/>
  <outline>
    <contour>
      <point x="132.44578313253012" y="-180.0" type="line"/>
      <point x="389.2469879518072" y="-180.0" type="line"/>
      <point x="389.2469879518072" y="-95.57228915662651" type="line"/>
      <point x="243.8433734939759" y="-95.57228915662651" type="line"/>
      <point x="243.8433734939759" y="620.5722891566265" type="line"/>
      <point x="389.2469879518072" y="620.5722891566265" type="line"/>
      <point x="389.2469879518072" y="705.0" type="line"/>
      <point x="132.44578313253012" y="705.0" type="line"/>
    </contour>
  </outline>
</glyph>
<glyph name="bracketright" format="2">
  <advance width="397.355421686747"/>
  <unicode hex="005D"/>
  <outline>
    <contour>
      <point x="8.108433734939759" y="-180.0" type="line"/>
      <point x="265.26506024096386" y="-180.0" type="line"/>
      <point x="265.26506024096386" y="705.0" type="line"/>
      <point x="8.108433734939759" y="705.0" type="line"/>
      <point x="8.108433734939759" y="620.5722891566265" type="line"/>
      <point x="153.8674698795181" y="620.5722891566265" type="line"/>
      <point x="153.8674698795181" y="-95.57228915662651" type="line"/>
      <point x="8.108433734939759" y="-95.57228915662651" type="line"/>
    </contour>
  </outline>
</glyph>
<glyph name="asciicircum" format="2">
  <advance width="748.0"/>
  <unicode hex="005E"/>
  <outline>
    <contour>
      <point x="80.09638554216868" y="139.98192771084337" type="line"/>
      <point x="169.39156626506022" y="139.98192771084337" type="line"/>
      <point x="400.5722891566265" y="587.1807228915663" type="line"/>
      <point x="348.1385542168675" y="587.1807228915663" type="line"/>
      <point x="578.6084337349398" y="139.98192771084337" type="line"/>
      <point x="667.9036144578314" y="139.98192771084337" type="line"/>
      <point x="416.7469879518072" y="627.355421686747" type="line"/>
      <point x="331.2530120481928" y="627.355421686747" type="line"/>
    </contour>
  </outline>
</glyph>
<glyph name="underscore" format="2">
  <advance width="619.1325301204819"/>
  <unicode hex="005F"/>
  <outline>
    <contour>
      <point x="22.066265060240966" y="-67.69879518072288" type="line"/>
      <point x="597.066265060241" y="-67.69879518072288" type="line"/>
      <point x="597.066265060241" y="0.0" type="line"/>
      <point x="22.066265060240966" y="0.0" type="line"/>
    </contour>
  </outline>
</glyph>
<glyph name="a" format="2">
  <advance width="662.0120481927711"/>
  <unicode hex="0061"/>
  <anchor x="333.3734939759036" y="0.0" name="bottom"/>
  <anchor x="556.5903614457832" y="0.0" name="ogonek"/>
  <anchor x="338.0843373493976" y="484.0" name="top"/>
  <outline>
    <contour>
      <point x="277.578313253012" y="-9.421686746987952" type="curve" smooth="yes"/>
      <point x="383.1807228915663" y="-9.421686746987952"/>
      <point x="453.2048192771084" y="37.24698795180723"/>
      <point x="480.8734939759036" y="112.46987951807229" type="curve"/>
      <point x="468.65060240963857" y="111.82530120481928" type="line"/>
      <point x="468.65060240963857" y="0.0" type="line"/>
      <point x="573.7168674698795" y="0.0" type="line"/>
      <point x="573.7168674698795" y="298.3855421686747" type="line" smooth="yes"/>
      <point x="573.7168674698795" y="433.5783132530121"/>
      <point x="493.12048192771084" y="496.9759036144578"/>
      <point x="330.9759036144579" y="496.9759036144578" type="curve" smooth="yes"/>
      <point x="245.77710843373495" y="496.9759036144578"/>
      <point x="148.69277108433735" y="473.33132530120486"/>
      <point x="88.00602409638554" y="435.68674698795184" type="curve"/>
      <point x="121.80120481927712" y="356.5903614457831" type="line"/>
      <point x="181.355421686747" y="392.6807228915663"/>
      <point x="253.8433734939759" y="411.6144578313253"/>
      <point x="330.62048192771084" y="411.6144578313253" type="curve" smooth="yes"/>
      <point x="422.8253012048193" y="411.6144578313253"/>
      <point x="466.9397590361446" y="380.566265060241"/>
      <point x="466.9397590361446" y="312.53614457831327" type="curve" smooth="yes"/>
      <point x="466.9397590361446" y="202.06626506024097" type="line" smooth="yes"/>
      <point x="466.9397590361446" y="122.96987951807229"/>
      <point x="391.0240963855422" y="68.96385542168676"/>
      <point x="294.4397590361446" y="68.96385542168676" type="curve" smooth="yes"/>
      <point x="218.144578313253" y="68.96385542168676"/>
      <point x="173.4277108433735" y="100.94578313253012"/>
      <point x="173.4277108433735" y="149.17469879518075" type="curve" smooth="yes"/>
      <point x="173.4277108433735" y="196.1144578313253"/>
      <point x="209.7409638554217" y="218.51807228915663"/>
      <point x="377.6686746987952" y="218.51807228915663" type="curve" smooth="yes"/>
      <point x="483.7831325301205" y="218.51807228915663" type="line"/>
      <point x="483.7831325301205" y="285.5963855421687" type="line"/>
      <point x="375.73493975903614" y="285.5963855421687" type="line" smooth="yes"/>
      <point x="136.1144578313253" y="285.5963855421687"/>
      <point x="63.006024096385545" y="238.46385542168673"/>
      <point x="63.006024096385545" y="146.39759036144576" type="curve" smooth="yes"/>
      <point x="63.006024096385545" y="56.48795180722892"/>
      <point x="151.33734939759037" y="-9.421686746987952"/>
    </contour>
  </outline>
</glyph>
<glyph name="b" format="2">
  <advance width="731.2349397590361"/>
  <unicode hex="0062"/>
  <anchor x="384.5120481927711" y="0.0" name="bottom"/>
  <anchor x="383.3072289156626" y="705.0" name="top"/>
  <outline>
    <contour>
      <point x="409.5421686746988" y="-9.421686746987952" type="curve" smooth="yes"/>
      <point x="568.9638554216867" y="-9.421686746987952"/>
      <point x="676.9638554216867" y="90.355421686747"/>
      <point x="676.9638554216867" y="244.13253012048193" type="curve" smooth="yes"/>
      <point x="676.9638554216867" y="397.9096385542169"/>
      <point x="568.9638554216867" y="496.9759036144578"/>
      <point x="409.5421686746988" y="496.9759036144578" type="curve" smooth="yes"/>
      <point x="306.62650602409633" y="496.9759036144578"/>
      <point x="220.75903614457832" y="450.7951807228916"/>
      <point x="188.2710843373494" y="378.4578313253012" type="curve"/>
      <point x="202.40361445783134" y="378.4578313253012" type="line"/>
      <point x="202.40361445783134" y="705.0" type="line"/>
      <point x="91.00602409638554" y="705.0" type="line"/>
      <point x="91.00602409638554" y="0.0" type="line"/>
      <point x="200.9819277108434" y="0.0" type="line"/>
      <point x="200.9819277108434" y="109.80722891566265" type="line"/>
      <point x="188.27108433734938" y="109.80722891566265" type="line"/>
      <point x="220.75903614457832" y="36.75903614457832"/>
      <point x="306.2710843373494" y="-9.421686746987952"/>
    </contour>
    <contour>
      <point x="382.3072289156626" y="76.29518072289157" type="curve" smooth="yes"/>
      <point x="268.6987951807229" y="76.29518072289157"/>
      <point x="200.69277108433735" y="140.6566265060241"/>
      <point x="200.69277108433735" y="244.13253012048193" type="curve" smooth="yes"/>
      <point x="200.69277108433735" y="347.60843373493975"/>
      <point x="268.6987951807229" y="411.2590361445783"/>
      <point x="382.3072289156626" y="411.2590361445783" type="curve" smooth="yes"/>
      <point x="495.2048192771084" y="411.2590361445783"/>
      <point x="563.9216867469879" y="347.60843373493975"/>
      <point x="563.9216867469879" y="244.13253012048193" type="curve" smooth="yes"/>
      <point x="563.9216867469879" y="140.6566265060241"/>
      <point x="495.2048192771084" y="76.29518072289157"/>
    </contour>
  </outline>
</glyph>
<glyph name="c" format="2">
  <advance width="576.5722891566265"/>
  <unicode hex="0063"/>
  <anchor x="347.1746987951807" y="0.0" name="bottom"/>
  <anchor x="347.1746987951807" y="484.0" name="top"/>
  <outline>
    <contour>
      <point x="346.8614457831325" y="-9.421686746987952" type="curve" smooth="yes"/>
      <point x="430.4156626506024" y="-9.421686746987952"/>
      <point x="506.8132530120482" y="14.156626506024097"/>
      <point x="557.8132530120481" y="54.825301204819276" type="curve"/>
      <point x="519.2409638554217" y="133.47590361445785" type="line"/>
      <point x="471.3734939759036" y="96.51807228915663"/>
      <point x="414.57228915662654" y="77.71686746987952"/>
      <point x="353.32530120481925" y="77.71686746987952" type="curve" smooth="yes"/>
      <point x="237.45180722891567" y="77.71686746987952"/>
      <point x="169.09036144578315" y="141.72289156626505"/>
      <point x="169.09036144578315" y="243.42168674698797" type="curve" smooth="yes"/>
      <point x="169.09036144578315" y="345.5421686746988"/>
      <point x="237.45180722891567" y="409.83734939759034"/>
      <point x="353.68072289156623" y="409.83734939759034" type="curve" smooth="yes"/>
      <point x="414.2831325301205" y="409.83734939759034"/>
      <point x="471.50602409638554" y="391.32530120481925"/>
      <point x="519.2409638554217" y="355.433734939759" type="curve"/>
      <point x="557.8132530120481" y="432.7289156626506" type="line"/>
      <point x="508.1686746987952" y="474.10843373493975"/>
      <point x="431.4156626506024" y="496.9759036144578"/>
      <point x="346.8614457831325" y="496.9759036144578" type="curve" smooth="yes"/>
      <point x="169.1566265060241" y="496.9759036144578"/>
      <point x="54.27108433734939" y="396.9096385542169"/>
      <point x="54.27108433734939" y="243.77710843373495" type="curve" smooth="yes"/>
      <point x="54.27108433734939" y="90.28915662650603"/>
      <point x="169.1566265060241" y="-9.421686746987952"/>
    </contour>
  </outline>
</glyph>
<glyph name="d" format="2">
  <advance width="731.2349397590361"/>
  <unicode hex="0064"/>
  <anchor x="367.08433734939763" y="0.0" name="bottom"/>
  <anchor x="363.10843373493975" y="245.710843373494" name="center"/>
  <anchor x="520.5301204819276" y="586.3975903614457" name="stroke"/>
  <anchor x="365.43975903614455" y="484.0" name="top"/>
  <anchor x="695.698795180723" y="705.0" name="topright"/>
  <outline>
    <contour>
      <point x="323.6265060240964" y="-9.421686746987952" type="curve" smooth="yes"/>
      <point x="425.5421686746988" y="-9.421686746987952"/>
      <point x="512.343373493976" y="35.46987951807229"/>
      <point x="542.8975903614459" y="107.87349397590361" type="curve"/>
      <point x="530.2530120481928" y="107.87349397590361" type="line"/>
      <point x="530.2530120481928" y="0.0" type="line"/>
      <point x="640.2289156626506" y="0.0" type="line"/>
      <point x="640.2289156626506" y="705.0" type="line"/>
      <point x="528.8313253012049" y="705.0" type="line"/>
      <point x="528.8313253012049" y="380.39156626506025" type="line"/>
      <point x="542.8975903614457" y="380.39156626506025" type="line"/>
      <point x="512.343373493976" y="452.08433734939763"/>
      <point x="425.8975903614458" y="496.9759036144578"/>
      <point x="323.6265060240964" y="496.9759036144578" type="curve" smooth="yes"/>
      <point x="160.98192771084337" y="496.9759036144578"/>
      <point x="54.27108433734939" y="397.9096385542169"/>
      <point x="54.27108433734939" y="244.13253012048193" type="curve" smooth="yes"/>
      <point x="54.27108433734939" y="90.355421686747"/>
      <point x="160.98192771084337" y="-9.421686746987952"/>
    </contour>
    <contour>
      <point x="348.9277108433735" y="76.29518072289157" type="curve" smooth="yes"/>
      <point x="235.31927710843374" y="76.29518072289157"/>
      <point x="167.31325301204816" y="140.6566265060241"/>
      <point x="167.31325301204816" y="244.13253012048193" type="curve" smooth="yes"/>
      <point x="167.31325301204816" y="347.60843373493975"/>
      <point x="235.31927710843374" y="411.2590361445783"/>
      <point x="348.9277108433735" y="411.2590361445783" type="curve" smooth="yes"/>
      <point x="461.82530120481925" y="411.2590361445783"/>
      <point x="530.5421686746989" y="347.60843373493975"/>
      <point x="530.5421686746989" y="244.13253012048193" type="curve" smooth="yes"/>
      <point x="530.5421686746989" y="140.6566265060241"/>
      <point x="461.82530120481925" y="76.29518072289157"/>
    </contour>
  </outline>
</glyph>
<glyph name="e" format="2">
  <advance width="659.7951807228916"/>
  <unicode hex="0065"/>
  <anchor x="346.77710843373495" y="0.0" name="bottom"/>
  <anchor x="470.05421686746985" y="0.0" name="ogonek"/>
  <anchor x="354.59638554216866" y="484.0" name="top"/>
  <outline>
    <contour>
      <point x="367.7048192771084" y="-9.421686746987952" type="curve" smooth="yes"/>
      <point x="467.1927710843374" y="-9.421686746987952"/>
      <point x="558.3915662650602" y="16.734939759036145"/>
      <point x="605.9457831325301" y="56.75903614457831" type="curve"/>
      <point x="573.2168674698795" y="131.5" type="line"/>
      <point x="523.5481927710844" y="94.45180722891565"/>
      <point x="456.34939759036143" y="75.93975903614458"/>
      <point x="374.8373493975904" y="75.93975903614458" type="curve" smooth="yes"/>
      <point x="228.0120481927711" y="75.93975903614458"/>
      <point x="162.33734939759037" y="137.85542168674698"/>
      <point x="162.33734939759037" y="246.3975903614458" type="curve" smooth="yes"/>
      <point x="162.33734939759037" y="253.46385542168673" type="line" smooth="yes"/>
      <point x="162.33734939759037" y="355.7831325301205"/>
      <point x="231.5" y="420.0120481927711"/>
      <point x="352.5301204819277" y="420.0120481927711" type="curve" smooth="yes"/>
      <point x="459.84939759036143" y="420.0120481927711"/>
      <point x="518.9216867469879" y="367.65060240963857"/>
      <point x="519.9879518072289" y="270.3072289156626" type="curve"/>
      <point x="542.0542168674699" y="286.92771084337346" type="line"/>
      <point x="140.56024096385542" y="286.92771084337346" type="line"/>
      <point x="140.56024096385542" y="219.13855421686748" type="line"/>
      <point x="615.9457831325301" y="219.13855421686748" type="line"/>
      <point x="615.9457831325301" y="253.9578313253012" type="line" smooth="yes"/>
      <point x="615.9457831325301" y="406.644578313253"/>
      <point x="515.0602409638554" y="496.9759036144578"/>
      <point x="349.62048192771084" y="496.9759036144578" type="curve" smooth="yes"/>
      <point x="175.09036144578315" y="496.9759036144578"/>
      <point x="54.27108433734939" y="394.19879518072287"/>
      <point x="54.27108433734939" y="240.4879518072289" type="curve" smooth="yes"/>
      <point x="54.27108433734939" y="85.71084337349397"/>
      <point x="175.86746987951807" y="-9.421686746987952"/>
    </contour>
  </outline>
</glyph>
<glyph name="f" format="2">
  <advance width="417.98192771084337"/>
  <unicode hex="0066"/>
  <anchor x="179.43373493975903" y="0.0" name="bottom"/>
  <anchor x="179.43373493975903" y="705.0" name="top"/>
  <outline>
    <contour>
      <point x="123.37951807228916" y="0.0" type="line"/>
      <point x="234.77710843373495" y="0.0" type="line"/>
      <point x="234.77710843373495" y="404.8373493975904" type="line"/>
      <point x="407.8253012048193" y="404.8373493975904" type="line"/>
      <point x="407.8253012048193" y="487.5542168674699" type="line"/>
      <point x="210.5602409638554" y="487.5542168674699" type="line"/>
      <point x="234.77710843373495" y="463.6927710843374" type="line"/>
      <point x="234.77710843373495" y="508.8012048192771" type="line" smooth="yes"/>
      <point x="234.77710843373495" y="583.277108433735"/>
      <point x="277.6927710843373" y="617.7710843373494"/>
      <point x="370.58433734939763" y="622.4156626506024" type="curve" smooth="yes"/>
      <point x="436.8253012048193" y="626.1265060240964" type="line"/>
      <point x="428.3373493975904" y="709.1325301204819" type="line"/>
      <point x="368.23493975903614" y="705.3554216867469" type="line" smooth="yes"/>
      <point x="202.90963855421685" y="694.8674698795181"/>
      <point x="123.37951807228916" y="626.1807228915662"/>
      <point x="123.37951807228916" y="492.16265060240966" type="curve" smooth="yes"/>
      <point x="123.37951807228916" y="463.3373493975904" type="line"/>
      <point x="147.95180722891567" y="487.5542168674699" type="line"/>
      <point x="3.8674698795180724" y="487.5542168674699" type="line"/>
      <point x="3.8674698795180724" y="404.8373493975904" type="line"/>
      <point x="123.37951807228916" y="404.8373493975904" type="line"/>
    </contour>
  </outline>
</glyph>
<glyph name="g" format="2">
  <advance width="733.0120481927711"/>
  <unicode hex="0067"/>
  <anchor x="367.0843373493976" y="484.0" name="top"/>
  <outline>
    <contour>
      <point x="355.5120481927711" y="-189.42168674698794" type="curve" smooth="yes"/>
      <point x="546.5000000000001" y="-189.42168674698794"/>
      <point x="642.0060240963855" y="-112.02409638554217"/>
      <point x="642.0060240963855" y="43.96987951807229" type="curve" smooth="yes"/>
      <point x="642.0060240963855" y="487.5542168674699" type="line"/>
      <point x="532.0301204819277" y="487.5542168674699" type="line"/>
      <point x="532.0301204819277" y="380.39156626506025" type="line"/>
      <point x="543.9638554216867" y="380.39156626506025" type="line"/>
      <point x="517.6746987951807" y="452.08433734939763"/>
      <point x="433.00602409638554" y="496.9759036144578"/>
      <point x="324.6927710843373" y="496.9759036144578" type="curve" smooth="yes"/>
      <point x="160.27108433734938" y="496.9759036144578"/>
      <point x="54.27108433734939" y="402.9759036144578"/>
      <point x="54.27108433734939" y="254.8433734939759" type="curve" smooth="yes"/>
      <point x="54.27108433734939" y="106.71084337349397"/>
      <point x="160.6265060240964" y="12.0"/>
      <point x="325.7590361445783" y="12.0" type="curve" smooth="yes"/>
      <point x="433.3614457831326" y="12.0"/>
      <point x="517.6746987951807" y="56.891566265060234"/>
      <point x="543.9638554216868" y="128.93975903614458" type="curve"/>
      <point x="532.3855421686748" y="128.93975903614458" type="line"/>
      <point x="532.3855421686748" y="30.572289156626503" type="line" smooth="yes"/>
      <point x="532.3855421686748" y="-58.07831325301205"/>
      <point x="472.2048192771084" y="-104.06024096385542"/>
      <point x="354.7349397590362" y="-104.06024096385542" type="curve" smooth="yes"/>
      <point x="262.86746987951807" y="-104.06024096385542"/>
      <point x="185.36144578313255" y="-87.57228915662651"/>
      <point x="120.3132530120482" y="-42.59036144578314" type="curve"/>
      <point x="86.2289156626506" y="-120.10843373493975" type="line"/>
      <point x="148.67469879518075" y="-167.71084337349396"/>
      <point x="245.56024096385542" y="-189.42168674698794"/>
    </contour>
    <contour>
      <point x="349.99397590361446" y="97.71686746987952" type="curve" smooth="yes"/>
      <point x="236.74096385542168" y="97.71686746987952"/>
      <point x="167.31325301204816" y="158.07831325301206"/>
      <point x="167.31325301204816" y="254.8433734939759" type="curve" smooth="yes"/>
      <point x="167.31325301204816" y="351.6084337349398"/>
      <point x="236.74096385542168" y="411.2590361445783"/>
      <point x="349.99397590361446" y="411.2590361445783" type="curve" smooth="yes"/>
      <point x="463.2469879518072" y="411.2590361445783"/>
      <point x="532.6746987951808" y="351.6084337349398"/>
      <point x="532.6746987951808" y="254.8433734939759" type="curve" smooth="yes"/>
      <point x="532.6746987951808" y="158.07831325301206"/>
      <point x="463.2469879518072" y="97.71686746987952"/>
    </contour>
  </outline>
</glyph>
<glyph name="h" format="2">
  <advance width="712.2349397590361"/>
  <unicode hex="0068"/>
  <anchor x="355.5722891566265" y="0.0" name="bottom"/>
  <anchor x="355.5722891566265" y="247.4879518072289" name="center"/>
  <anchor x="322.2590361445783" y="352.28915662650604" name="dot"/>
  <anchor x="208.4156626506024" y="586.3975903614457" name="stroke"/>
  <anchor x="356.9277108433735" y="705.0" name="top"/>
  <anchor x="244.2289156626506" y="705.0" name="topright"/>
  <outline>
    <contour>
      <point x="91.00602409638554" y="0.0" type="line"/>
      <point x="202.40361445783134" y="0.0" type="line"/>
      <point x="202.40361445783134" y="251.73493975903614" type="line" smooth="yes"/>
      <point x="202.40361445783134" y="342.144578313253"/>
      <point x="268.8975903614458" y="408.7710843373494"/>
      <point x="377.3734939759036" y="408.7710843373494" type="curve" smooth="yes"/>
      <point x="463.2710843373494" y="408.7710843373494"/>
      <point x="512.5421686746989" y="374.0120481927711"/>
      <point x="512.5421686746989" y="270.1144578313253" type="curve" smooth="yes"/>
      <point x="512.5421686746989" y="0.0" type="line"/>
      <point x="623.9397590361446" y="0.0" type="line"/>
      <point x="623.9397590361446" y="274.89156626506025" type="line" smooth="yes"/>
      <point x="623.9397590361446" y="438.0903614457831"/>
      <point x="542.6927710843373" y="496.9759036144578"/>
      <point x="408.0060240963855" y="496.9759036144578" type="curve" smooth="yes"/>
      <point x="302.6024096385542" y="496.9759036144578"/>
      <point x="232.3132530120482" y="452.7289156626506"/>
      <point x="192.4036144578313" y="379.06024096385545" type="curve"/>
      <point x="202.75903614457832" y="379.06024096385545" type="line"/>
      <point x="202.40361445783134" y="705.0" type="line"/>
      <point x="91.00602409638554" y="705.0" type="line"/>
    </contour>
  </outline>
</glyph>
<glyph name="i" format="2">
  <advance width="293.4096385542169"/>
  <unicode hex="0069"/>
  <anchor x="147.06024096385542" y="0.0" name="bottom"/>
  <anchor x="182.85542168674698" y="0.0" name="ogonek"/>
  <outline>
    <contour>
      <point x="78.84939759036145" y="598.4518072289156" type="line"/>
      <point x="213.20481927710844" y="598.4518072289156" type="line"/>
      <point x="213.20481927710844" y="710.301204819277" type="line"/>
      <point x="78.84939759036145" y="710.301204819277" type="line"/>
    </contour>
    <contour>
      <point x="91.00602409638554" y="0.0" type="line"/>
      <point x="202.40361445783134" y="0.0" type="line"/>
      <point x="202.40361445783134" y="487.5542168674699" type="line"/>
      <point x="91.00602409638554" y="487.5542168674699" type="line"/>
    </contour>
  </outline>
</glyph>
<glyph name="k" format="2">
  <advance width="627.4457831325302"/>
  <unicode hex="006B"/>
  <anchor x="313.7228915662651" y="0.0" name="bottom"/>
  <anchor x="356.9277108433735" y="705.0" name="top"/>
  <outline>
    <contour>
      <point x="89.07228915662651" y="0.0" type="line"/>
      <point x="200.4698795180723" y="0.0" type="line"/>
      <point x="200.4698795180723" y="221.0722891566265" type="line"/>
      <point x="202.4698795180723" y="221.0722891566265" type="line"/>
      <point x="490.0240963855422" y="0.0" type="line"/>
      <point x="642.6626506024097" y="0.0" type="line"/>
      <point x="280.5843373493976" y="275.10843373493975" type="line"/>
      <point x="280.5843373493976" y="230.86746987951807" type="line"/>
      <point x="617.9698795180723" y="487.5542168674699" type="line"/>
      <point x="470.7530120481928" y="487.5542168674699" type="line"/>
      <point x="202.4698795180723" y="277.3493975903615" type="line"/>
      <point x="200.4698795180723" y="277.3493975903615" type="line"/>
      <point x="200.4698795180723" y="705.0" type="line"/>
      <point x="89.07228915662651" y="705.0" type="line"/>
    </contour>
  </outline>
</glyph>
<glyph name="l" format="2">
  <advance width="368.96385542168673"/>
  <unicode hex="006C"/>
  <anchor x="230.95180722891567" y="0.0" name="bottom"/>
  <anchor x="156.34939759036143" y="357.0" name="center"/>
  <anchor x="350.5120481927711" y="357.0" name="dot"/>
  <anchor x="144.4156626506024" y="705.0" name="top"/>
  <anchor x="255.65060240963854" y="705.0" name="topright"/>
  <outline>
    <contour>
      <point x="281.2831325301205" y="-9.421686746987952" type="curve" smooth="yes"/>
      <point x="307.1686746987952" y="-9.421686746987952"/>
      <point x="333.27710843373495" y="-6.355421686746988"/>
      <point x="358.12048192771084" y="-1.2891566265060241" type="curve"/>
      <point x="361.4096385542169" y="87.62650602409639" type="line"/>
      <point x="346.6746987951807" y="83.98192771084337"/>
      <point x="324.96385542168673" y="82.33734939759037"/>
      <point x="307.96385542168673" y="82.33734939759037" type="curve" smooth="yes"/>
      <point x="236.56024096385542" y="82.33734939759037"/>
      <point x="200.4698795180723" y="118.16265060240964"/>
      <point x="200.4698795180723" y="183.87951807228916" type="curve" smooth="yes"/>
      <point x="200.4698795180723" y="705.0" type="line"/>
      <point x="89.07228915662651" y="705.0" type="line"/>
      <point x="89.07228915662651" y="175.1024096385542" type="line" smooth="yes"/>
      <point x="89.07228915662651" y="55.975903614457835"/>
      <point x="154.4036144578313" y="-9.421686746987952"/>
    </contour>
  </outline>
</glyph>
<glyph name="m" format="2">
  <advance width="1073.855421686747"/>
  <unicode hex="006D"/>
  <anchor x="538.2831325301205" y="0.0" name="bottom"/>
  <anchor x="538.2831325301205" y="484.0" name="top"/>
  <outline>
    <contour>
      <point x="93.00602409638554" y="0.0" type="line"/>
      <point x="204.40361445783134" y="0.0" type="line"/>
      <point x="204.40361445783134" y="251.73493975903617" type="line" smooth="yes"/>
      <point x="204.40361445783134" y="342.144578313253"/>
      <point x="264.9638554216868" y="408.7710843373494"/>
      <point x="363.2168674698795" y="408.7710843373494" type="curve" smooth="yes"/>
      <point x="438.89156626506025" y="408.7710843373494"/>
      <point x="482.2289156626506" y="374.0120481927711"/>
      <point x="482.2289156626506" y="269.7590361445783" type="curve" smooth="yes"/>
      <point x="482.2289156626506" y="0.0" type="line"/>
      <point x="593.6265060240963" y="0.0" type="line"/>
      <point x="593.6265060240963" y="251.73493975903617" type="line" smooth="yes"/>
      <point x="593.6265060240963" y="342.144578313253"/>
      <point x="654.8975903614459" y="408.7710843373494"/>
      <point x="752.4397590361446" y="408.7710843373494" type="curve" smooth="yes"/>
      <point x="828.8253012048193" y="408.7710843373494"/>
      <point x="872.1626506024096" y="374.0120481927711"/>
      <point x="872.1626506024096" y="269.7590361445783" type="curve" smooth="yes"/>
      <point x="872.1626506024096" y="0.0" type="line"/>
      <point x="983.5602409638553" y="0.0" type="line"/>
      <point x="983.5602409638553" y="274.89156626506025" type="line" smooth="yes"/>
      <point x="983.5602409638553" y="438.0903614457831"/>
      <point x="907.4961807228915" y="496.9759036144578"/>
      <point x="780.2289156626506" y="496.9759036144578" type="curve" smooth="yes"/>
      <point x="679.2266144578313" y="496.9759036144578"/>
      <point x="609.362204819277" y="452.46743373493973"/>
      <point x="569.6506024096386" y="378.7048192771084" type="curve"/>
      <point x="579.9397590361447" y="378.7048192771084" type="line"/>
      <point x="553.4290602409638" y="465.09015060240966"/>
      <point x="487.714734939759" y="496.9759036144578"/>
      <point x="393.84939759036143" y="496.9759036144578" type="curve" smooth="yes"/>
      <point x="296.6686746987952" y="496.9759036144578"/>
      <point x="230.89156626506025" y="451.7289156626506"/>
      <point x="191.6265060240964" y="379.06024096385545" type="curve"/>
      <point x="201.98192771084337" y="379.06024096385545" type="line"/>
      <point x="201.98192771084337" y="487.5542168674699" type="line"/>
      <point x="93.00602409638554" y="487.5542168674699" type="line"/>
    </contour>
  </outline>
</glyph>
<glyph name="n" format="2">
  <advance width="712.2349397590361"/>
  <unicode hex="006E"/>
  <anchor x="354.5722891566265" y="0.0" name="bottom"/>
  <anchor x="354.5722891566265" y="484.0" name="top"/>
  <outline>
    <contour>
      <point x="91.00602409638554" y="0.0" type="line"/>
      <point x="202.40361445783134" y="0.0" type="line"/>
      <point x="202.40361445783134" y="251.73493975903614" type="line" smooth="yes"/>
      <point x="202.40361445783134" y="342.144578313253"/>
      <point x="268.8975903614458" y="408.7710843373494"/>
      <point x="377.3734939759036" y="408.7710843373494" type="curve" smooth="yes"/>
      <point x="463.2710843373494" y="408.7710843373494"/>
      <point x="512.5421686746989" y="374.0120481927711"/>
      <point x="512.5421686746989" y="270.1144578313253" type="curve" smooth="yes"/>
      <point x="512.5421686746989" y="0.0" type="line"/>
      <point x="623.9397590361446" y="0.0" type="line"/>
      <point x="623.9397590361446" y="274.89156626506025" type="line" smooth="yes"/>
      <point x="623.9397590361446" y="438.0903614457832"/>
      <point x="542.6927710843373" y="496.9759036144578"/>
      <point x="408.0060240963855" y="496.9759036144578" type="curve" smooth="yes"/>
      <point x="302.6024096385542" y="496.9759036144578"/>
      <point x="229.53614457831324" y="452.7289156626506"/>
      <point x="189.6265060240964" y="379.06024096385545" type="curve"/>
      <point x="199.98192771084337" y="379.06024096385545" type="line"/>
      <point x="199.98192771084337" y="487.5542168674699" type="line"/>
      <point x="91.00602409638554" y="487.5542168674699" type="line"/>
    </contour>
  </outline>
</glyph>
<glyph name="o" format="2">
  <advance width="697.855421686747"/>
  <unicode hex="006F"/>
  <anchor x="348.9277108433735" y="0.0" name="bottom"/>
  <anchor x="346.34939759036143" y="244.13253012048193" name="center"/>
  <anchor x="387.23493975903614" y="0.0" name="ogonek"/>
  <anchor x="348.9277108433735" y="484.0" name="top"/>
  <anchor x="410.6144578313253" y="484.0" name="topright"/>
  <outline>
    <contour>
      <point x="348.9277108433735" y="-9.421686746987952" type="curve" smooth="yes"/>
      <point x="531.4759036144578" y="-9.421686746987952"/>
      <point x="643.5843373493975" y="92.77710843373495"/>
      <point x="643.5843373493975" y="244.13253012048193" type="curve" smooth="yes"/>
      <point x="643.5843373493975" y="394.77710843373495"/>
      <point x="531.4759036144578" y="496.9759036144578"/>
      <point x="348.9277108433735" y="496.9759036144578" type="curve" smooth="yes"/>
      <point x="165.66867469879517" y="496.9759036144578"/>
      <point x="54.27108433734939" y="394.77710843373495"/>
      <point x="54.27108433734939" y="244.13253012048193" type="curve" smooth="yes"/>
      <point x="54.27108433734939" y="92.77710843373495"/>
      <point x="165.66867469879517" y="-9.421686746987952"/>
    </contour>
    <contour>
      <point x="348.9277108433735" y="76.29518072289157" type="curve" smooth="yes"/>
      <point x="234.67469879518072" y="76.29518072289157"/>
      <point x="167.31325301204816" y="140.6566265060241"/>
      <point x="167.31325301204816" y="244.13253012048193" type="curve" smooth="yes"/>
      <point x="167.31325301204816" y="347.60843373493975"/>
      <point x="234.67469879518072" y="411.2590361445783"/>
      <point x="348.9277108433735" y="411.2590361445783" type="curve" smooth="yes"/>
      <point x="462.4698795180723" y="411.2590361445783"/>
      <point x="530.5421686746989" y="347.60843373493975"/>
      <point x="530.5421686746989" y="244.13253012048193" type="curve" smooth="yes"/>
      <point x="530.5421686746989" y="140.6566265060241"/>
      <point x="462.4698795180723" y="76.29518072289157"/>
    </contour>
  </outline>
</glyph>
<glyph name="q" format="2">
  <advance width="730.8795180722891"/>
  <unicode hex="0071"/>
  <anchor x="364.21686746987956" y="0.0" name="bottom"/>
  <anchor x="364.21686746987956" y="484.0" name="top"/>
  <outline>
    <contour>
      <point x="528.4759036144578" y="-180.0" type="line"/>
      <point x="639.8734939759036" y="-180.0" type="line"/>
      <point x="639.8734939759036" y="487.5542168674699" type="line"/>
      <point x="528.8313253012049" y="487.5542168674699" type="line"/>
      <point x="528.8313253012049" y="380.7469879518072" type="line"/>
      <point x="541.8313253012049" y="380.7469879518072" type="line"/>
      <point x="515.1867469879519" y="452.0843373493976"/>
      <point x="431.9397590361446" y="496.9759036144578"/>
      <point x="325.0481927710843" y="496.9759036144578" type="curve" smooth="yes"/>
      <point x="159.56024096385542" y="496.9759036144578"/>
      <point x="54.27108433734939" y="397.9096385542169"/>
      <point x="54.27108433734939" y="244.13253012048193" type="curve" smooth="yes"/>
      <point x="54.27108433734939" y="90.355421686747"/>
      <point x="159.56024096385542" y="-9.421686746987952"/>
      <point x="325.0481927710843" y="-9.421686746987952" type="curve" smooth="yes"/>
      <point x="432.2951807228916" y="-9.421686746987952"/>
      <point x="515.1867469879519" y="35.46987951807229"/>
      <point x="541.8313253012049" y="107.51807228915663" type="curve"/>
      <point x="528.4759036144578" y="107.51807228915663" type="line"/>
    </contour>
    <contour>
      <point x="348.9277108433735" y="76.29518072289157" type="curve" smooth="yes"/>
      <point x="236.0301204819277" y="76.29518072289157"/>
      <point x="167.31325301204816" y="141.0120481927711"/>
      <point x="167.31325301204816" y="244.13253012048193" type="curve" smooth="yes"/>
      <point x="167.31325301204816" y="347.2530120481928"/>
      <point x="236.0301204819277" y="411.2590361445783"/>
      <point x="348.9277108433735" y="411.2590361445783" type="curve" smooth="yes"/>
      <point x="461.1144578313253" y="411.2590361445783"/>
      <point x="530.5421686746989" y="347.60843373493975"/>
      <point x="530.5421686746989" y="244.13253012048193" type="curve" smooth="yes"/>
      <point x="530.5421686746989" y="140.6566265060241"/>
      <point x="461.1144578313253" y="76.29518072289157"/>
    </contour>
  </outline>
</glyph>
<glyph name="r" format="2">
  <advance width="451.2469879518072"/>
  <unicode hex="0072"/>
  <anchor x="147.41566265060243" y="0.0" name="bottom"/>
  <anchor x="270.1265060240964" y="484.0" name="top"/>
  <outline>
    <contour>
      <point x="91.00602409638554" y="0.0" type="line"/>
      <point x="204.18072289156623" y="0.0" type="line"/>
      <point x="204.18072289156623" y="263.4518072289157" type="line" smooth="yes"/>
      <point x="204.18072289156623" y="342.1686746987952"/>
      <point x="261.60843373493975" y="390.46385542168673"/>
      <point x="376.1686746987952" y="400.4638554216868" type="curve" smooth="yes"/>
      <point x="445.37951807228916" y="406.3072289156627" type="line"/>
      <point x="436.89156626506025" y="500.26506024096386" type="line"/>
      <point x="398.7409638554217" y="497.5542168674699" type="line" smooth="yes"/>
      <point x="290.60843373493975" y="489.5542168674699"/>
      <point x="216.16265060240963" y="450.644578313253"/>
      <point x="186.98192771084337" y="366.77710843373495" type="curve"/>
      <point x="199.98192771084337" y="366.77710843373495" type="line"/>
      <point x="199.98192771084337" y="487.5542168674699" type="line"/>
      <point x="91.00602409638554" y="487.5542168674699" type="line"/>
    </contour>
  </outline>
</glyph>
<glyph name="s" format="2">
  <advance width="597.4397590361446"/>
  <unicode hex="0073"/>
  <anchor x="304.55421686746985" y="0.0" name="bottom"/>
  <anchor x="307.46385542168673" y="484.0" name="top"/>
  <outline>
    <contour>
      <point x="303.8433734939759" y="-9.421686746987952" type="curve" smooth="yes"/>
      <point x="448.8373493975904" y="-9.421686746987952"/>
      <point x="543.5" y="49.554216867469876"/>
      <point x="543.5" y="142.50602409638552" type="curve" smooth="yes"/>
      <point x="543.5" y="214.54819277108433"/>
      <point x="490.6566265060241" y="257.7469879518072"/>
      <point x="391.0120481927711" y="270.25903614457826" type="curve" smooth="yes"/>
      <point x="253.86144578313252" y="288.1927710843373" type="line" smooth="yes"/>
      <point x="198.144578313253" y="294.9277108433735"/>
      <point x="177.03012048192772" y="317.53012048192767"/>
      <point x="177.03012048192772" y="348.6686746987952" type="curve" smooth="yes"/>
      <point x="177.03012048192772" y="387.8072289156627"/>
      <point x="216.3012048192771" y="418.30120481927713"/>
      <point x="304.9759036144578" y="418.30120481927713" type="curve" smooth="yes"/>
      <point x="376.13253012048193" y="418.30120481927713"/>
      <point x="442.95180722891564" y="401.72289156626505"/>
      <point x="496.7048192771084" y="367.05421686746985" type="curve"/>
      <point x="531.0120481927711" y="438.3072289156626" type="line"/>
      <point x="486.81325301204816" y="475.0421686746988"/>
      <point x="407.1265060240964" y="496.9759036144578"/>
      <point x="311.3734939759036" y="496.9759036144578" type="curve" smooth="yes"/>
      <point x="164.71084337349396" y="496.9759036144578"/>
      <point x="72.65060240963855" y="431.8433734939759"/>
      <point x="72.65060240963855" y="343.82530120481925" type="curve" smooth="yes"/>
      <point x="72.65060240963855" y="274.5602409638554"/>
      <point x="124.2710843373494" y="226.00602409638554"/>
      <point x="221.46987951807228" y="213.13855421686748" type="curve" smooth="yes"/>
      <point x="358.62048192771084" y="195.2048192771084" type="line" smooth="yes"/>
      <point x="416.93975903614455" y="187.46987951807228"/>
      <point x="439.4759036144579" y="167.57831325301203"/>
      <point x="439.4759036144579" y="136.95180722891567" type="curve" smooth="yes"/>
      <point x="439.4759036144579" y="95.59036144578313"/>
      <point x="391.9156626506024" y="68.89759036144578"/>
      <point x="311.3072289156627" y="68.89759036144578" type="curve" smooth="yes"/>
      <point x="228.99397590361446" y="68.89759036144578"/>
      <point x="146.8433734939759" y="87.1867469879518"/>
      <point x="88.37951807228916" y="121.3433734939759" type="curve"/>
      <point x="59.98192771084337" y="47.31325301204819" type="line"/>
      <point x="109.66867469879519" y="12.156626506024097"/>
      <point x="197.93373493975903" y="-9.421686746987952"/>
    </contour>
  </outline>
</glyph>
<glyph name="t" format="2">
  <advance width="439.6024096385542"/>
  <unicode hex="0074"/>
  <anchor x="270.0361445783132" y="0.0" name="bottom"/>
  <anchor x="206.8132530120482" y="262.46987951807233" name="center"/>
  <anchor x="176.07831325301203" y="635.0" name="top"/>
  <anchor x="313.51807228915663" y="705.0" name="topright"/>
  <outline>
    <contour>
      <point x="332.6566265060241" y="-9.421686746987952" type="curve" smooth="yes"/>
      <point x="379.76506024096386" y="-9.421686746987952"/>
      <point x="422.89759036144574" y="-1.4216867469879517"/>
      <point x="450.5602409638554" y="12.487951807228916" type="curve"/>
      <point x="432.8072289156626" y="94.56024096385542" type="line"/>
      <point x="408.09638554216866" y="86.62650602409639"/>
      <point x="381.2289156626506" y="82.33734939759037"/>
      <point x="353.00602409638554" y="82.33734939759037" type="curve" smooth="yes"/>
      <point x="270.89156626506025" y="82.33734939759037"/>
      <point x="231.42168674698794" y="116.03012048192771"/>
      <point x="231.42168674698794" y="190.96987951807228" type="curve" smooth="yes"/>
      <point x="231.42168674698794" y="404.8373493975904" type="line"/>
      <point x="422.53614457831327" y="404.8373493975904" type="line"/>
      <point x="422.53614457831327" y="487.5542168674699" type="line"/>
      <point x="231.42168674698794" y="487.5542168674699" type="line"/>
      <point x="231.42168674698794" y="635.0" type="line"/>
      <point x="120.02409638554217" y="635.0" type="line"/>
      <point x="120.02409638554217" y="487.5542168674699" type="line"/>
      <point x="1.1566265060240966" y="487.5542168674699" type="line"/>
      <point x="1.1566265060240966" y="404.8373493975904" type="line"/>
      <point x="120.02409638554217" y="404.8373493975904" type="line"/>
      <point x="120.02409638554217" y="181.96987951807228" type="line" smooth="yes"/>
      <point x="120.02409638554217" y="56.62048192771084"/>
      <point x="196.77710843373492" y="-9.421686746987952"/>
    </contour>
  </outline>
</glyph>
<glyph name="u" format="2">
  <advance width="705.301204819277"/>
  <unicode hex="0075"/>
  <anchor x="352.43975903614455" y="0.0" name="bottom"/>
  <anchor x="596.5240963855422" y="0.0" name="ogonek"/>
  <anchor x="352.43975903614455" y="485.0" name="top"/>
  <anchor x="525.3554216867469" y="484.0" name="topright"/>
  <outline>
    <contour>
      <point x="300.2289156626506" y="-9.421686746987952" type="curve" smooth="yes"/>
      <point x="404.21355421686746" y="-9.421686746987952"/>
      <point x="475.210421686747" y="35.45222289156626"/>
      <point x="515.3192771084338" y="108.84939759036145" type="curve"/>
      <point x="505.31927710843377" y="108.84939759036145" type="line"/>
      <point x="505.31927710843377" y="0.0" type="line"/>
      <point x="614.2951807228915" y="0.0" type="line"/>
      <point x="614.2951807228915" y="487.5542168674699" type="line"/>
      <point x="502.8975903614458" y="487.5542168674699" type="line"/>
      <point x="502.8975903614458" y="235.10843373493975" type="line" smooth="yes"/>
      <point x="502.8975903614458" y="144.6987951807229"/>
      <point x="437.4488975903614" y="78.78313253012047"/>
      <point x="331.57228915662654" y="78.78313253012047" type="curve" smooth="yes"/>
      <point x="247.27437349397587" y="78.78313253012047"/>
      <point x="199.69277108433735" y="112.83132530120481"/>
      <point x="199.69277108433735" y="217.0843373493976" type="curve" smooth="yes"/>
      <point x="199.69277108433735" y="487.5542168674699" type="line"/>
      <point x="88.29518072289157" y="487.5542168674699" type="line"/>
      <point x="88.29518072289157" y="213.0180722891566" type="line" smooth="yes"/>
      <point x="88.29518072289157" y="49.81927710843374"/>
      <point x="168.50341566265058" y="-9.421686746987952"/>
    </contour>
  </outline>
</glyph>
<glyph name="v" format="2">
  <advance width="639.9036144578314"/>
  <unicode hex="0076"/>
  <anchor x="321.01807228915663" y="0.0" name="bottom"/>
  <anchor x="321.01807228915663" y="484.0" name="top"/>
  <outline>
    <contour>
      <point x="269.1385542168675" y="0.0" type="line"/>
      <point x="370.76506024096386" y="0.0" type="line"/>
      <point x="634.4518072289156" y="487.5542168674699" type="line"/>
      <point x="519.3192771084338" y="487.5542168674699" type="line"/>
      <point x="304.75301204819283" y="78.8433734939759" type="line"/>
      <point x="341.7710843373494" y="78.8433734939759" type="line"/>
      <point x="127.9156626506024" y="487.5542168674699" type="line"/>
      <point x="5.807228915662652" y="487.5542168674699" type="line"/>
    </contour>
  </outline>
</glyph>
<glyph name="w" format="2">
  <advance width="1048.2590361445784"/>
  <unicode hex="0077"/>
  <anchor x="524.3072289156627" y="0.0" name="bottom"/>
  <anchor x="524.3072289156627" y="484.0" name="top"/>
  <outline>
    <contour>
      <point x="252.89156626506025" y="0.0" type="line"/>
      <point x="357.45180722891564" y="0.0" type="line"/>
      <point x="550.5481927710844" y="410.80120481927713" type="line"/>
      <point x="498.421686746988" y="410.80120481927713" type="line"/>
      <point x="691.5180722891566" y="0.0" type="line"/>
      <point x="796.433734939759" y="0.0" type="line"/>
      <point x="1024.4939759036145" y="487.5542168674699" type="line"/>
      <point x="909.3614457831326" y="487.5542168674699" type="line"/>
      <point x="732.3313253012047" y="88.01807228915662" type="line"/>
      <point x="758.1987951807229" y="88.01807228915662" type="line"/>
      <point x="570.3674698795181" y="487.5542168674699" type="line"/>
      <point x="482.5783132530121" y="487.5542168674699" type="line"/>
      <point x="294.3915662650602" y="88.01807228915662" type="line"/>
      <point x="321.8373493975904" y="88.01807228915662" type="line"/>
      <point x="146.2289156626506" y="487.5542168674699" type="line"/>
      <point x="24.120481927710845" y="487.5542168674699" type="line"/>
    </contour>
  </outline>
</glyph>
<glyph name="x" format="2">
  <advance width="654.7650602409639"/>
  <unicode hex="0078"/>
  <anchor x="328.4156626506024" y="0.0" name="bottom"/>
  <anchor x="328.4156626506024" y="484.0" name="top"/>
  <outline>
    <contour>
      <point x="10.83132530120482" y="0.0" type="line"/>
      <point x="146.04819277108436" y="0.0" type="line"/>
      <point x="347.0120481927711" y="205.09638554216866" type="line"/>
      <point x="308.3975903614458" y="205.09638554216866" type="line"/>
      <point x="505.2951807228916" y="0.0" type="line"/>
      <point x="646.644578313253" y="0.0" type="line"/>
      <point x="374.3614457831325" y="276.3493975903615" type="line"/>
      <point x="374.3614457831325" y="226.56024096385542" type="line"/>
      <point x="631.222891566265" y="487.5542168674699" type="line"/>
      <point x="496.0060240963855" y="487.5542168674699" type="line"/>
      <point x="308.68674698795184" y="296.16867469879514" type="line"/>
      <point x="348.43373493975906" y="296.16867469879514" type="line"/>
      <point x="166.31325301204816" y="487.5542168674699" type="line"/>
      <point x="25.60843373493976" y="487.5542168674699" type="line"/>
      <point x="283.6927710843373" y="225.33734939759034" type="line"/>
      <point x="283.6927710843373" y="278.5722891566265" type="line"/>
    </contour>
  </outline>
</glyph>
<glyph name="y" format="2">
  <advance width="639.5481927710842"/>
  <unicode hex="0079"/>
  <anchor x="488.63253012048193" y="0.0" name="bottom"/>
  <anchor x="320.66265060240966" y="484.0" name="top"/>
  <outline>
    <contour>
      <point x="157.0120481927711" y="-180.0" type="line"/>
      <point x="274.3433734939759" y="-180.0" type="line"/>
      <point x="634.4518072289158" y="487.5542168674699" type="line"/>
      <point x="518.9638554216867" y="487.5542168674699" type="line"/>
      <point x="308.8855421686747" y="86.0421686746988" type="line"/>
      <point x="338.34939759036143" y="86.0421686746988" type="line"/>
      <point x="127.56024096385542" y="487.5542168674699" type="line"/>
      <point x="5.451807228915664" y="487.5542168674699" type="line"/>
      <point x="275.8734939759036" y="-13.180722891566266" type="line"/>
      <point x="275.8734939759036" y="39.87951807228916" type="line"/>
    </contour>
  </outline>
</glyph>
<glyph name="z" format="2">
  <advance width="575.7710843373494"/>
  <unicode hex="007A"/>
  <anchor x="296.46385542168673" y="0.0" name="bottom"/>
  <anchor x="296.46385542168673" y="484.0" name="top"/>
  <outline>
    <contour>
      <point x="64.18072289156626" y="0.0" type="line"/>
      <point x="542.3915662650602" y="0.0" type="line"/>
      <point x="542.3915662650602" y="82.7168674698795" type="line"/>
      <point x="164.98192771084337" y="82.7168674698795" type="line"/>
      <point x="164.98192771084337" y="52.92168674698795" type="line"/>
      <point x="528.3915662650602" y="413.61445783132535" type="line"/>
      <point x="528.3915662650602" y="487.5542168674699" type="line"/>
      <point x="64.18072289156626" y="487.5542168674699" type="line"/>
      <point x="64.18072289156626" y="404.8373493975904" type="line"/>
      <point x="425.81325301204816" y="404.8373493975904" type="line"/>
      <point x="425.81325301204816" y="435.34337349397595" type="line"/>
      <point x="64.18072289156626" y="73.93975903614458" type="line"/>
    </contour>
  </outline>
</glyph>
<glyph name="braceleft" format="2">
  <advance width="443.71084337349396"/>
  <unicode hex="007B"/>
  <outline>
    <contour>
      <point x="308.72289156626505" y="-180.0" type="curve" smooth="yes"/>
      <point x="435.6024096385542" y="-180.0" type="line"/>
      <point x="435.6024096385542" y="-95.57228915662651" type="line"/>
      <point x="344.77710843373495" y="-95.57228915662651" type="line" smooth="yes"/>
      <point x="309.77710843373495" y="-95.57228915662651"/>
      <point x="290.19879518072287" y="-77.28313253012048"/>
      <point x="290.19879518072287" y="-45.34939759036145" type="curve" smooth="yes"/>
      <point x="290.19879518072287" y="152.2710843373494" type="line" smooth="yes"/>
      <point x="290.19879518072287" y="218.31325301204816"/>
      <point x="243.35542168674698" y="264.28915662650604"/>
      <point x="175.73493975903614" y="264.28915662650604" type="curve"/>
      <point x="175.73493975903614" y="260.28915662650604" type="line"/>
      <point x="243.35542168674698" y="260.28915662650604"/>
      <point x="290.19879518072287" y="306.62048192771084"/>
      <point x="290.19879518072287" y="372.6626506024096" type="curve" smooth="yes"/>
      <point x="290.19879518072287" y="570.3493975903614" type="line" smooth="yes"/>
      <point x="290.19879518072287" y="602.2831325301205"/>
      <point x="309.77710843373495" y="620.5722891566265"/>
      <point x="344.77710843373495" y="620.5722891566265" type="curve" smooth="yes"/>
      <point x="435.6024096385542" y="620.5722891566265" type="line"/>
      <point x="435.6024096385542" y="705.0" type="line"/>
      <point x="308.72289156626505" y="705.0" type="line" smooth="yes"/>
      <point x="226.8855421686747" y="705.0"/>
      <point x="178.8012048192771" y="661.3373493975904"/>
      <point x="178.8012048192771" y="586.0542168674698" type="curve" smooth="yes"/>
      <point x="178.8012048192771" y="385.2590361445783" type="line" smooth="yes"/>
      <point x="178.8012048192771" y="327.1686746987952"/>
      <point x="151.4879518072289" y="309.4578313253012"/>
      <point x="92.3975903614458" y="305.7469879518072" type="curve" smooth="yes"/>
      <point x="56.24698795180723" y="303.32530120481925" type="line"/>
      <point x="56.24698795180723" y="221.96385542168673" type="line"/>
      <point x="92.3975903614458" y="219.5421686746988" type="line" smooth="yes"/>
      <point x="155.355421686747" y="215.83132530120483"/>
      <point x="178.8012048192771" y="193.25301204819277"/>
      <point x="178.8012048192771" y="139.67469879518072" type="curve" smooth="yes"/>
      <point x="178.8012048192771" y="-61.05421686746988" type="line" smooth="yes"/>
      <point x="178.8012048192771" y="-136.33734939759037"/>
      <point x="226.8855421686747" y="-180.0"/>
    </contour>
  </outline>
</glyph>
<glyph name="braceright" format="2">
  <advance width="443.71084337349396"/>
  <unicode hex="007D"/>
  <outline>
    <contour>
      <point x="8.108433734939759" y="-180.0" type="line"/>
      <point x="135.3433734939759" y="-180.0" type="line" smooth="yes"/>
      <point x="217.1807228915663" y="-180.0"/>
      <point x="265.26506024096386" y="-136.33734939759034"/>
      <point x="265.26506024096386" y="-61.05421686746988" type="curve" smooth="yes"/>
      <point x="265.26506024096386" y="139.67469879518072" type="line" smooth="yes"/>
      <point x="265.26506024096386" y="193.25301204819277"/>
      <point x="288.35542168674704" y="215.83132530120483"/>
      <point x="351.3132530120482" y="219.5421686746988" type="curve" smooth="yes"/>
      <point x="387.8192771084337" y="221.96385542168673" type="line"/>
      <point x="387.8192771084337" y="303.32530120481925" type="line"/>
      <point x="351.3132530120482" y="305.7469879518072" type="line" smooth="yes"/>
      <point x="292.2228915662651" y="309.1024096385542"/>
      <point x="265.26506024096386" y="327.1686746987952"/>
      <point x="265.26506024096386" y="385.2590361445783" type="curve" smooth="yes"/>
      <point x="265.26506024096386" y="586.0542168674698" type="line" smooth="yes"/>
      <point x="265.26506024096386" y="661.3373493975904"/>
      <point x="217.1807228915663" y="705.0"/>
      <point x="135.3433734939759" y="705.0" type="curve" smooth="yes"/>
      <point x="8.108433734939759" y="705.0" type="line"/>
      <point x="8.108433734939759" y="620.5722891566265" type="line"/>
      <point x="99.64457831325302" y="620.5722891566265" type="line" smooth="yes"/>
      <point x="134.28915662650604" y="620.5722891566265"/>
      <point x="153.8674698795181" y="602.2831325301205"/>
      <point x="153.8674698795181" y="570.3493975903614" type="curve" smooth="yes"/>
      <point x="153.8674698795181" y="372.6626506024096" type="line" smooth="yes"/>
      <point x="153.8674698795181" y="306.62048192771084"/>
      <point x="201.06626506024097" y="260.28915662650604"/>
      <point x="267.9759036144578" y="260.28915662650604" type="curve"/>
      <point x="267.9759036144578" y="264.28915662650604" type="line"/>
      <point x="201.06626506024097" y="264.28915662650604"/>
      <point x="153.8674698795181" y="218.66867469879517"/>
      <point x="153.8674698795181" y="152.2710843373494" type="curve" smooth="yes"/>
      <point x="153.8674698795181" y="-45.34939759036145" type="line" smooth="yes"/>
      <point x="153.8674698795181" y="-77.28313253012048"/>
      <point x="134.28915662650604" y="-95.57228915662651"/>
      <point x="99.64457831325302" y="-95.57228915662651" type="curve" smooth="yes"/>
      <point x="8.108433734939759" y="-95.57228915662651" type="line"/>
    </contour>
  </outline>
</glyph>
<glyph name="asciitilde" format="2">
  <advance width="748.0"/>
  <unicode hex="007E"/>
  <outline>
    <contour>
      <point x="503.1566265060241" y="210.6265060240964" type="curve" smooth="yes"/>
      <point x="573.0421686746988" y="210.6265060240964"/>
      <point x="619.6385542168675" y="241.02409638554218"/>
      <point x="657.0843373493976" y="313.1566265060241" type="curve"/>
      <point x="592.9819277108434" y="349.92771084337346" type="line"/>
      <point x="566.9578313253012" y="303.81325301204816"/>
      <point x="543.2469879518072" y="287.4578313253012"/>
      <point x="503.73493975903614" y="287.4578313253012" type="curve" smooth="yes"/>
      <point x="475.31325301204816" y="287.4578313253012"/>
      <point x="444.98192771084337" y="298.81325301204816"/>
      <point x="387.22289156626505" y="323.1265060240964" type="curve" smooth="yes"/>
      <point x="310.9096385542169" y="354.1506024096385"/>
      <point x="279.77710843373495" y="363.43975903614455"/>
      <point x="243.55421686746988" y="363.43975903614455" type="curve" smooth="yes"/>
      <point x="175.24698795180723" y="363.43975903614455"/>
      <point x="128.00602409638554" y="332.6867469879518"/>
      <point x="90.91566265060241" y="260.19879518072287" type="curve"/>
      <point x="156.7951807228916" y="224.13855421686748" type="line"/>
      <point x="181.0421686746988" y="269.8975903614458"/>
      <point x="205.10843373493975" y="286.60843373493975"/>
      <point x="246.26506024096386" y="286.60843373493975" type="curve" smooth="yes"/>
      <point x="275.4879518072289" y="286.60843373493975"/>
      <point x="296.7530120481928" y="276.9638554216868"/>
      <point x="362.1987951807229" y="250.22891566265062" type="curve" smooth="yes"/>
      <point x="435.5120481927711" y="219.91566265060243"/>
      <point x="465.578313253012" y="210.6265060240964"/>
    </contour>
  </outline>
</glyph>
<glyph name="exclamdown" format="2">
  <advance width="283.63253012048193"/>
  <unicode hex="00A1"/>
  <outline>
    <contour>
      <point x="73.60843373493977" y="-180.0" type="line"/>
      <point x="210.02409638554215" y="-180.0" type="line"/>
      <point x="175.47590361445782" y="285.94578313253015" type="line"/>
      <point x="108.15662650602408" y="285.94578313253015" type="line"/>
    </contour>
    <contour>
      <point x="76.98192771084338" y="359.8855421686747" type="line"/>
      <point x="207.00602409638554" y="359.8855421686747" type="line"/>
      <point x="207.00602409638554" y="487.5542168674699" type="line"/>
      <point x="76.98192771084338" y="487.5542168674699" type="line"/>
    </contour>
  </outline>
</glyph>
<glyph name="cent" format="2">
  <advance width="748.0"/>
  <unicode hex="00A2"/>
  <outline>
    <contour>
      <point x="351.09638554216866" y="-115.0" type="line"/>
      <point x="444.0120481927711" y="-115.0" type="line"/>
      <point x="444.0120481927711" y="17.53012048192771" type="line"/>
      <point x="415.43975903614455" y="-6.0" type="line"/>
      <point x="502.7048192771084" y="-5.355421686746988"/>
      <point x="580.1024096385543" y="18.222891566265062"/>
      <point x="630.4578313253011" y="58.24698795180723" type="curve"/>
      <point x="591.8855421686748" y="137.96385542168673" type="line"/>
      <point x="546.5963855421687" y="102.0722891566265"/>
      <point x="486.2168674698795" y="82.56024096385542"/>
      <point x="416.2590361445783" y="82.56024096385542" type="curve" smooth="yes"/>
      <point x="298.8072289156627" y="82.56024096385542"/>
      <point x="225.31325301204816" y="144.43373493975903"/>
      <point x="225.31325301204816" y="244.13253012048193" type="curve" smooth="yes"/>
      <point x="225.31325301204816" y="344.18674698795184"/>
      <point x="299.1626506024096" y="406.7710843373494"/>
      <point x="417.32530120481925" y="406.7710843373494" type="curve" smooth="yes"/>
      <point x="486.28313253012044" y="406.7710843373494"/>
      <point x="546.4397590361447" y="387.54819277108436"/>
      <point x="592.2409638554218" y="352.0120481927711" type="curve"/>
      <point x="630.4578313253011" y="429.3072289156627" type="line"/>
      <point x="581.8132530120482" y="470.04216867469876"/>
      <point x="503.7048192771084" y="493.26506024096386"/>
      <point x="416.43975903614455" y="493.5542168674699" type="curve"/>
      <point x="444.0120481927711" y="466.22289156626505" type="line"/>
      <point x="444.0120481927711" y="607.9096385542169" type="line"/>
      <point x="351.09638554216866" y="607.9096385542169" type="line"/>
      <point x="351.09638554216866" y="460.89156626506025" type="line"/>
      <point x="371.51807228915663" y="490.71084337349396" type="line"/>
      <point x="212.93975903614458" y="479.1807228915663"/>
      <point x="110.49397590361446" y="384.0240963855422"/>
      <point x="110.49397590361446" y="243.77710843373492" type="curve" smooth="yes"/>
      <point x="110.49397590361446" y="102.10843373493975"/>
      <point x="214.71686746987953" y="6.596385542168674"/>
      <point x="375.7831325301205" y="-4.22289156626506" type="curve"/>
      <point x="351.09638554216866" y="22.15060240963855" type="line"/>
    </contour>
  </outline>
</glyph>
<glyph name="sterling" format="2">
  <advance width="748.0"/>
  <unicode hex="00A3"/>
  <outline>
    <contour>
      <point x="60.602409638554214" y="0.0" type="line"/>
      <point x="694.3734939759036" y="0.0" type="line"/>
      <point x="694.3734939759036" y="93.53614457831324" type="line"/>
      <point x="297.7168674698795" y="93.53614457831324" type="line"/>
      <point x="297.7168674698795" y="311.96385542168673" type="line"/>
      <point x="515.5481927710844" y="311.96385542168673" type="line"/>
      <point x="515.5481927710844" y="395.4578313253012" type="line"/>
      <point x="297.7168674698795" y="395.4578313253012" type="line"/>
      <point x="297.7168674698795" y="500.2530120481928" type="line" smooth="yes"/>
      <point x="297.7168674698795" y="588.9698795180723"/>
      <point x="349.210843373494" y="622.4397590361447"/>
      <point x="454.3734939759036" y="622.4397590361447" type="curve" smooth="yes"/>
      <point x="540.066265060241" y="622.4397590361447"/>
      <point x="606.0903614457832" y="599.7048192771084"/>
      <point x="663.6686746987951" y="550.3012048192771" type="curve"/>
      <point x="711.4397590361447" y="633.6626506024096" type="line"/>
      <point x="649.7289156626506" y="685.2650602409639"/>
      <point x="552.1746987951808" y="714.4216867469879"/>
      <point x="454.77710843373495" y="714.4216867469879" type="curve" smooth="yes"/>
      <point x="276.42771084337346" y="714.4216867469879"/>
      <point x="180.27710843373495" y="643.7590361445783"/>
      <point x="180.27710843373495" y="504.29518072289153" type="curve" smooth="yes"/>
      <point x="180.27710843373495" y="395.4578313253012" type="line"/>
      <point x="60.602409638554214" y="395.4578313253012" type="line"/>
      <point x="60.602409638554214" y="311.96385542168673" type="line"/>
      <point x="180.27710843373495" y="311.96385542168673" type="line"/>
      <point x="180.27710843373495" y="93.53614457831324" type="line"/>
      <point x="60.602409638554214" y="93.53614457831324" type="line"/>
    </contour>
  </outline>
</glyph>
<glyph name="currency" format="2">
  <advance width="748.0"/>
  <unicode hex="00A4"/>
  <outline>
    <contour>
      <point x="137.30722891566265" y="-28.397590361445783" type="line"/>
      <point x="217.0180722891566" y="47.66867469879518" type="line"/>
      <point x="259.2409638554217" y="16.57831325301205"/>
      <point x="313.6867469879518" y="-1.9337349397590362"/>
      <point x="374.355421686747" y="-1.9337349397590362" type="curve" smooth="yes"/>
      <point x="435.31325301204816" y="-1.9337349397590362"/>
      <point x="489.7590361445783" y="16.933734939759034"/>
      <point x="531.9819277108434" y="47.66867469879518" type="curve"/>
      <point x="611.4036144578313" y="-28.397590361445783" type="line"/>
      <point x="659.7530120481928" y="22.7289156626506" type="line"/>
      <point x="581.7530120481928" y="96.37349397590361" type="line"/>
      <point x="614.1325301204819" y="137.95180722891567"/>
      <point x="632.289156626506" y="189.0421686746988"/>
      <point x="632.289156626506" y="245.710843373494" type="curve" smooth="yes"/>
      <point x="632.289156626506" y="302.0903614457831"/>
      <point x="614.1325301204819" y="353.82530120481925"/>
      <point x="582.3975903614457" y="395.04819277108436" type="curve"/>
      <point x="659.3975903614457" y="469.0481927710843" type="line"/>
      <point x="611.4036144578314" y="519.8192771084338" type="line"/>
      <point x="531.6927710843374" y="443.7530120481927" type="line"/>
      <point x="489.1144578313253" y="474.8433734939759"/>
      <point x="435.0240963855422" y="493.355421686747"/>
      <point x="374.355421686747" y="493.355421686747" type="curve" smooth="yes"/>
      <point x="313.0421686746988" y="493.355421686747"/>
      <point x="259.59638554216866" y="474.8433734939759"/>
      <point x="216.3734939759036" y="443.7530120481928" type="curve"/>
      <point x="136.95180722891567" y="519.4638554216867" type="line"/>
      <point x="88.60240963855422" y="469.40361445783134" type="line"/>
      <point x="165.95783132530119" y="395.40361445783134" type="line"/>
      <point x="134.22289156626505" y="353.82530120481925"/>
      <point x="116.06626506024097" y="302.4457831325301"/>
      <point x="116.06626506024097" y="245.710843373494" type="curve" smooth="yes"/>
      <point x="116.06626506024097" y="189.33132530120483"/>
      <point x="134.57831325301203" y="137.5963855421687"/>
      <point x="165.95783132530119" y="96.7289156626506" type="curve"/>
      <point x="88.60240963855422" y="22.7289156626506" type="line"/>
    </contour>
    <contour>
      <point x="374.355421686747" y="76.80722891566265" type="curve" smooth="yes"/>
      <point x="273.23493975903614" y="76.80722891566265"/>
      <point x="201.45180722891564" y="150.10240963855424"/>
      <point x="201.45180722891564" y="245.710843373494" type="curve" smooth="yes"/>
      <point x="201.45180722891564" y="342.0301204819277"/>
      <point x="272.87951807228916" y="415.32530120481925"/>
      <point x="374.355421686747" y="415.32530120481925" type="curve" smooth="yes"/>
      <point x="476.12048192771084" y="414.96987951807233"/>
      <point x="546.9036144578313" y="342.0301204819277"/>
      <point x="546.9036144578313" y="245.710843373494" type="curve" smooth="yes"/>
      <point x="546.9036144578313" y="150.10240963855424"/>
      <point x="476.12048192771084" y="76.80722891566265"/>
    </contour>
  </outline>
</glyph>
<glyph name="yen" format="2">
  <advance width="748.0"/>
  <unicode hex="00A5"/>
  <outline>
    <contour>
      <point x="315.81325301204816" y="0.0" type="line"/>
      <point x="432.89759036144574" y="0.0" type="line"/>
      <point x="432.89759036144574" y="166.31927710843374" type="line"/>
      <point x="661.5301204819277" y="166.31927710843374" type="line"/>
      <point x="661.5301204819277" y="242.70481927710844" type="line"/>
      <point x="432.89759036144574" y="242.70481927710844" type="line"/>
      <point x="432.89759036144574" y="319.8734939759036" type="line"/>
      <point x="661.5301204819277" y="319.8734939759036" type="line"/>
      <point x="661.5301204819277" y="396.2590361445783" type="line"/>
      <point x="462.8072289156626" y="396.2590361445783" type="line"/>
      <point x="462.8072289156626" y="378.95180722891564" type="line"/>
      <point x="758.0602409638553" y="705.0" type="line"/>
      <point x="628.487951807229" y="705.0" type="line"/>
      <point x="360.37951807228916" y="407.29518072289153" type="line"/>
      <point x="388.68674698795184" y="407.29518072289153" type="line"/>
      <point x="120.93373493975903" y="705.0" type="line"/>
      <point x="-9.349397590361445" y="705.0" type="line"/>
      <point x="290.1686746987952" y="378.95180722891564" type="line"/>
      <point x="290.1686746987952" y="396.2590361445783" type="line"/>
      <point x="87.18072289156626" y="396.2590361445783" type="line"/>
      <point x="87.18072289156626" y="319.8734939759036" type="line"/>
      <point x="315.81325301204816" y="319.8734939759036" type="line"/>
      <point x="315.81325301204816" y="242.70481927710844" type="line"/>
      <point x="87.18072289156626" y="242.70481927710844" type="line"/>
      <point x="87.18072289156626" y="166.31927710843374" type="line"/>
      <point x="315.81325301204816" y="166.31927710843374" type="line"/>
    </contour>
  </outline>
</glyph>
<glyph name="brokenbar" format="2">
  <advance width="328.96385542168673"/>
  <unicode hex="00A6"/>
  <outline>
    <contour>
      <point x="108.78313253012048" y="372.0" type="line"/>
      <point x="220.18072289156626" y="372.0" type="line"/>
      <point x="220.18072289156626" y="705.0" type="line"/>
      <point x="108.78313253012048" y="705.0" type="line"/>
    </contour>
    <contour>
      <point x="108.78313253012048" y="-180.0" type="line"/>
      <point x="220.18072289156626" y="-180.0" type="line"/>
      <point x="220.18072289156626" y="153.710843373494" type="line"/>
      <point x="108.78313253012048" y="153.710843373494" type="line"/>
    </contour>
  </outline>
</glyph>
<glyph name="section" format="2">
  <advance width="680.3855421686746"/>
  <unicode hex="00A7"/>
  <outline>
    <contour>
      <point x="313.1927710843373" y="-189.42168674698794" type="curve" smooth="yes"/>
      <point x="482.45180722891564" y="-189.42168674698794"/>
      <point x="582.9819277108434" y="-122.0"/>
      <point x="582.9819277108434" y="-8.668674698795181" type="curve" smooth="yes"/>
      <point x="582.9819277108434" y="29.216867469879517"/>
      <point x="571.6506024096385" y="60.25903614457832"/>
      <point x="546.210843373494" y="90.87951807228916" type="curve"/>
      <point x="536.3012048192771" y="60.24096385542168" type="line"/>
      <point x="599.9397590361447" y="99.86144578313252"/>
      <point x="633.3373493975903" y="152.06024096385542"/>
      <point x="633.3373493975903" y="212.23493975903614" type="curve" smooth="yes"/>
      <point x="633.3373493975903" y="288.6566265060241"/>
      <point x="587.2048192771084" y="335.6987951807229"/>
      <point x="462.5120481927711" y="382.30120481927713" type="curve" smooth="yes"/>
      <point x="310.7469879518072" y="437.54216867469876" type="line" smooth="yes"/>
      <point x="237.8734939759036" y="464.36746987951807"/>
      <point x="207.53614457831324" y="495.99397590361446"/>
      <point x="207.53614457831324" y="540.644578313253" type="curve" smooth="yes"/>
      <point x="207.53614457831324" y="598.5421686746988"/>
      <point x="262.60843373493975" y="634.0361445783133"/>
      <point x="359.70481927710847" y="634.0361445783133" type="curve" smooth="yes"/>
      <point x="434.9277108433735" y="634.0361445783133"/>
      <point x="513.5722891566264" y="612.9457831325301"/>
      <point x="569.8132530120481" y="578.9216867469879" type="curve"/>
      <point x="606.1867469879519" y="652.2409638554217" type="line"/>
      <point x="553.9216867469879" y="690.9759036144578"/>
      <point x="464.9457831325301" y="714.1325301204819"/>
      <point x="368.2590361445783" y="714.1325301204819" type="curve" smooth="yes"/>
      <point x="199.0" y="714.1325301204819"/>
      <point x="98.46987951807229" y="646.710843373494"/>
      <point x="98.46987951807229" y="533.3795180722892" type="curve" smooth="yes"/>
      <point x="98.46987951807229" y="495.49397590361446"/>
      <point x="109.8012048192771" y="464.45180722891564"/>
      <point x="135.24096385542168" y="433.8313253012048" type="curve"/>
      <point x="145.15060240963857" y="464.46987951807233" type="line"/>
      <point x="81.51204819277109" y="424.84939759036143"/>
      <point x="48.1144578313253" y="372.6506024096385"/>
      <point x="48.1144578313253" y="312.4759036144578" type="curve" smooth="yes"/>
      <point x="48.1144578313253" y="236.0542168674699"/>
      <point x="94.24698795180723" y="189.0120481927711"/>
      <point x="218.93975903614458" y="142.40963855421688" type="curve" smooth="yes"/>
      <point x="370.70481927710847" y="87.16867469879519" type="line" smooth="yes"/>
      <point x="442.86746987951807" y="60.6987951807229"/>
      <point x="473.9156626506024" y="28.716867469879517"/>
      <point x="473.9156626506024" y="-15.578313253012048" type="curve" smooth="yes"/>
      <point x="473.9156626506024" y="-74.1867469879518"/>
      <point x="418.13253012048193" y="-109.32530120481928"/>
      <point x="322.81325301204816" y="-109.32530120481928" type="curve" smooth="yes"/>
      <point x="237.87951807228916" y="-109.32530120481928"/>
      <point x="148.77108433734938" y="-85.32530120481928"/>
      <point x="94.15060240963855" y="-47.10240963855422" type="curve"/>
      <point x="57.066265060240966" y="-122.90963855421687" type="line"/>
      <point x="113.46385542168674" y="-165.4879518072289"/>
      <point x="206.5722891566265" y="-189.42168674698794"/>
    </contour>
    <contour>
      <point x="149.20481927710844" y="333.84939759036143" type="curve" smooth="yes"/>
      <point x="149.20481927710844" y="365.3855421686747"/>
      <point x="164.65060240963854" y="392.0542168674699"/>
      <point x="196.60843373493975" y="413.21084337349396" type="curve"/>
      <point x="164.0120481927711" y="414.21084337349396" type="line"/>
      <point x="188.1024096385542" y="390.16265060240966"/>
      <point x="235.99397590361446" y="366.7831325301205"/>
      <point x="286.5783132530121" y="348.2469879518072" type="curve" smooth="yes"/>
      <point x="406.1927710843373" y="303.84939759036143" type="line" smooth="yes"/>
      <point x="501.8674698795181" y="268.0903614457832"/>
      <point x="532.2469879518072" y="240.06626506024094"/>
      <point x="532.2469879518072" y="190.86144578313252" type="curve" smooth="yes"/>
      <point x="532.2469879518072" y="159.32530120481928"/>
      <point x="516.8012048192771" y="132.65662650602408"/>
      <point x="484.84337349397595" y="111.5" type="curve"/>
      <point x="517.4397590361446" y="110.5" type="line"/>
      <point x="493.3493975903615" y="134.54819277108433"/>
      <point x="445.1024096385542" y="158.28313253012047"/>
      <point x="394.8734939759036" y="176.46385542168676" type="curve" smooth="yes"/>
      <point x="275.25903614457826" y="220.86144578313255" type="line" smooth="yes"/>
      <point x="180.2289156626506" y="256.26506024096386"/>
      <point x="149.20481927710844" y="284.644578313253"/>
    </contour>
  </outline>
</glyph>
<glyph name="copyright" format="2">
  <advance width="1013.1325301204819"/>
  <unicode hex="00A9"/>
  <outline>
    <contour>
      <point x="507.06626506024094" y="-9.421686746987952" type="curve" smooth="yes"/>
      <point x="773.066265060241" y="-9.421686746987952"/>
      <point x="957.2650602409639" y="138.71084337349396"/>
      <point x="957.2650602409639" y="353.0" type="curve" smooth="yes"/>
      <point x="957.2650602409639" y="566.644578313253"/>
      <point x="773.4216867469879" y="714.4216867469879"/>
      <point x="507.06626506024094" y="714.4216867469879" type="curve" smooth="yes"/>
      <point x="241.06626506024097" y="714.4216867469879"/>
      <point x="56.86746987951807" y="566.289156626506"/>
      <point x="56.86746987951807" y="352.0" type="curve" smooth="yes"/>
      <point x="56.86746987951807" y="138.35542168674698"/>
      <point x="240.710843373494" y="-9.421686746987952"/>
    </contour>
    <contour>
      <point x="522.0180722891566" y="137.0" type="curve" smooth="yes"/>
      <point x="597.3734939759037" y="137.0"/>
      <point x="662.4397590361446" y="155.93373493975903"/>
      <point x="705.6626506024096" y="190.02409638554218" type="curve"/>
      <point x="670.066265060241" y="254.0120481927711" type="line"/>
      <point x="627.2650602409639" y="224.0542168674699"/>
      <point x="589.1746987951808" y="212.8975903614458"/>
      <point x="531.9939759036145" y="212.8975903614458" type="curve" smooth="yes"/>
      <point x="418.89759036144574" y="212.8975903614458"/>
      <point x="359.84939759036143" y="260.7469879518072"/>
      <point x="359.84939759036143" y="354.355421686747" type="curve" smooth="yes"/>
      <point x="359.84939759036143" y="445.5421686746988"/>
      <point x="418.54216867469876" y="492.10240963855426"/>
      <point x="532.2168674698795" y="492.10240963855426" type="curve" smooth="yes"/>
      <point x="589.6867469879519" y="492.10240963855426"/>
      <point x="627.777108433735" y="480.2349397590362"/>
      <point x="670.066265060241" y="450.27710843373495" type="curve"/>
      <point x="705.6626506024096" y="514.9759036144578" type="line"/>
      <point x="660.6626506024096" y="549.777108433735"/>
      <point x="595.9518072289156" y="568.0"/>
      <point x="519.3072289156626" y="568.0" type="curve" smooth="yes"/>
      <point x="360.19879518072287" y="568.0"/>
      <point x="262.6686746987952" y="487.22289156626505"/>
      <point x="262.6686746987952" y="353.578313253012" type="curve" smooth="yes"/>
      <point x="262.6686746987952" y="219.71084337349396"/>
      <point x="362.13253012048193" y="137.0"/>
    </contour>
    <contour>
      <point x="507.06626506024094" y="40.72891566265061" type="curve" smooth="yes"/>
      <point x="270.8192771084337" y="40.72891566265061"/>
      <point x="112.43975903614458" y="165.3975903614458"/>
      <point x="112.43975903614458" y="352.0" type="curve" smooth="yes"/>
      <point x="112.43975903614458" y="538.6024096385543"/>
      <point x="271.46385542168673" y="664.2710843373494"/>
      <point x="507.06626506024094" y="664.2710843373494" type="curve" smooth="yes"/>
      <point x="744.0240963855422" y="664.2710843373494"/>
      <point x="901.6927710843373" y="539.6024096385543"/>
      <point x="901.6927710843373" y="353.0" type="curve" smooth="yes"/>
      <point x="901.6927710843373" y="166.3975903614458"/>
      <point x="743.3795180722891" y="40.72891566265061"/>
    </contour>
  </outline>
</glyph>
<glyph name="ordfeminine" format="2">
  <advance width="409.1265060240964"/>
  <unicode hex="00AA"/>
  <outline>
    <contour>
      <point x="170.93373493975903" y="409.0903614457831" type="curve" smooth="yes"/>
      <point x="227.06626506024097" y="409.0903614457831"/>
      <point x="266.86746987951807" y="429.0903614457831"/>
      <point x="289.9578313253012" y="469.22289156626505" type="curve"/>
      <point x="292.6024096385542" y="469.22289156626505" type="line"/>
      <point x="292.6024096385542" y="414.80120481927713" type="line"/>
      <point x="365.0120481927711" y="414.80120481927713" type="line"/>
      <point x="365.0120481927711" y="590.2048192771085" type="line" smooth="yes"/>
      <point x="365.0120481927711" y="673.4457831325302"/>
      <point x="314.6144578313253" y="714.4216867469879"/>
      <point x="209.39759036144576" y="714.4216867469879" type="curve" smooth="yes"/>
      <point x="147.19879518072287" y="714.4216867469879"/>
      <point x="86.22289156626506" y="700.777108433735"/>
      <point x="46.536144578313255" y="677.0662650602409" type="curve"/>
      <point x="66.93373493975903" y="627.0963855421686" type="line"/>
      <point x="102.19879518072288" y="647.6746987951808"/>
      <point x="151.04216867469881" y="660.2530120481928"/>
      <point x="201.26506024096386" y="660.2530120481928" type="curve" smooth="yes"/>
      <point x="263.18072289156623" y="660.2530120481928"/>
      <point x="289.7590361445783" y="644.0060240963855"/>
      <point x="289.7590361445783" y="600.0903614457832" type="curve" smooth="yes"/>
      <point x="289.7590361445783" y="535.8915662650603" type="line" smooth="yes"/>
      <point x="289.7590361445783" y="492.6867469879518"/>
      <point x="243.93373493975903" y="459.9277108433735"/>
      <point x="183.30722891566265" y="459.9277108433735" type="curve" smooth="yes"/>
      <point x="138.19277108433735" y="459.9277108433735"/>
      <point x="108.36746987951807" y="477.9518072289157"/>
      <point x="108.36746987951807" y="504.13253012048193" type="curve" smooth="yes"/>
      <point x="108.36746987951807" y="537.7349397590361"/>
      <point x="150.5" y="546.7590361445783"/>
      <point x="237.44578313253012" y="546.7590361445783" type="curve" smooth="yes"/>
      <point x="300.18072289156623" y="546.7590361445783" type="line"/>
      <point x="300.18072289156623" y="587.5542168674699" type="line"/>
      <point x="236.1566265060241" y="587.5542168674699" type="line" smooth="yes"/>
      <point x="91.18072289156626" y="587.5542168674699"/>
      <point x="32.18072289156626" y="563.843373493976"/>
      <point x="32.18072289156626" y="504.71084337349396" type="curve" smooth="yes"/>
      <point x="32.18072289156626" y="448.86746987951807"/>
      <point x="90.37951807228916" y="409.0903614457831"/>
    </contour>
  </outline>
</glyph>
<glyph name="logicalnot" format="2">
  <advance width="748.0"/>
  <unicode hex="00AC"/>
  <outline>
    <contour>
      <point x="559.1927710843373" y="139.98192771084337" type="line"/>
      <point x="645.0" y="139.98192771084337" type="line"/>
      <point x="645.0" y="427.7710843373494" type="line"/>
      <point x="103.0" y="427.7710843373494" type="line"/>
      <point x="103.0" y="349.0301204819277" type="line"/>
      <point x="559.1927710843373" y="349.0301204819277" type="line"/>
    </contour>
  </outline>
</glyph>
<glyph name="registered" format="2">
  <advance width="1013.1325301204819"/>
  <unicode hex="00AE"/>
  <outline>
    <contour>
      <point x="507.06626506024094" y="-9.421686746987952" type="curve" smooth="yes"/>
      <point x="773.066265060241" y="-9.421686746987952"/>
      <point x="957.2650602409639" y="138.71084337349396"/>
      <point x="957.2650602409639" y="353.0" type="curve" smooth="yes"/>
      <point x="957.2650602409639" y="566.644578313253"/>
      <point x="773.4216867469879" y="714.4216867469879"/>
      <point x="507.06626506024094" y="714.4216867469879" type="curve" smooth="yes"/>
      <point x="241.06626506024097" y="714.4216867469879"/>
      <point x="56.86746987951807" y="566.289156626506"/>
      <point x="56.86746987951807" y="352.0" type="curve" smooth="yes"/>
      <point x="56.86746987951807" y="138.35542168674698"/>
      <point x="240.710843373494" y="-9.421686746987952"/>
    </contour>
    <contour>
      <point x="507.06626506024094" y="40.72891566265061" type="curve" smooth="yes"/>
      <point x="270.8192771084337" y="40.72891566265061"/>
      <point x="112.43975903614458" y="165.3975903614458"/>
      <point x="112.43975903614458" y="352.0" type="curve" smooth="yes"/>
      <point x="112.43975903614458" y="538.6024096385543"/>
      <point x="271.46385542168673" y="664.2710843373494"/>
      <point x="507.06626506024094" y="664.2710843373494" type="curve" smooth="yes"/>
      <point x="744.0240963855422" y="664.2710843373494"/>
      <point x="901.6927710843373" y="539.6024096385543"/>
      <point x="901.6927710843373" y="353.0" type="curve" smooth="yes"/>
      <point x="901.6927710843373" y="166.3975903614458"/>
      <point x="743.3795180722891" y="40.72891566265061"/>
    </contour>
    <contour>
      <point x="324.07228915662654" y="142.710843373494" type="line"/>
      <point x="408.9457831325301" y="142.710843373494" type="line"/>
      <point x="408.9457831325301" y="328.1144578313253" type="line"/>
      <point x="385.41566265060237" y="308.1385542168675" type="line"/>
      <point x="502.5602409638554" y="308.1385542168675" type="line" smooth="yes"/>
      <point x="544.0722891566265" y="308.1385542168675"/>
      <point x="562.8734939759037" y="295.8493975903615"/>
      <point x="575.9638554216867" y="268.82530120481925" type="curve" smooth="yes"/>
      <point x="634.1024096385541" y="142.710843373494" type="line"/>
      <point x="727.8855421686748" y="142.710843373494" type="line"/>
      <point x="662.3253012048193" y="280.66867469879514" type="line" smooth="yes"/>
      <point x="644.4578313253012" y="319.0903614457831"/>
      <point x="617.6144578313254" y="334.5120481927711"/>
      <point x="579.5060240963855" y="334.5120481927711" type="curve"/>
      <point x="543.6204819277108" y="322.0903614457832" type="line"/>
      <point x="656.1084337349397" y="322.0903614457832"/>
      <point x="718.9518072289156" y="365.44578313253015"/>
      <point x="718.9518072289156" y="445.5120481927711" type="curve" smooth="yes"/>
      <point x="718.9518072289156" y="521.5783132530121"/>
      <point x="660.5301204819277" y="564.0662650602409"/>
      <point x="551.6867469879518" y="564.0662650602409" type="curve" smooth="yes"/>
      <point x="324.07228915662654" y="564.0662650602409" type="line"/>
    </contour>
    <contour>
      <point x="408.94578313253015" y="372.0843373493976" type="line"/>
      <point x="408.94578313253015" y="499.76506024096386" type="line"/>
      <point x="540.8012048192771" y="499.76506024096386" type="line" smooth="yes"/>
      <point x="603.0301204819278" y="499.76506024096386"/>
      <point x="632.789156626506" y="479.8072289156626"/>
      <point x="632.789156626506" y="436.60240963855426" type="curve" smooth="yes"/>
      <point x="632.789156626506" y="393.39759036144574"/>
      <point x="602.3192771084337" y="372.0843373493976"/>
      <point x="540.8012048192771" y="372.0843373493976" type="curve" smooth="yes"/>
    </contour>
  </outline>
</glyph>
<glyph name="degree" format="2">
  <advance width="415.15060240963857"/>
  <unicode hex="00B0"/>
  <outline>
    <contour>
      <point x="207.75301204819277" y="387.9397590361446" type="curve" smooth="yes"/>
      <point x="302.21686746987956" y="387.9397590361446"/>
      <point x="372.8373493975904" y="458.1385542168675"/>
      <point x="372.8373493975904" y="551.5361445783132" type="curve" smooth="yes"/>
      <point x="372.8373493975904" y="644.2228915662652"/>
      <point x="301.8614457831325" y="714.777108433735"/>
      <point x="207.75301204819277" y="714.777108433735" type="curve" smooth="yes"/>
      <point x="113.28915662650603" y="714.777108433735"/>
      <point x="42.66867469879518" y="643.8674698795181"/>
      <point x="42.66867469879518" y="551.5361445783132" type="curve" smooth="yes"/>
      <point x="42.66867469879518" y="458.49397590361446"/>
      <point x="113.28915662650603" y="387.9397590361446"/>
    </contour>
    <contour>
      <point x="207.75301204819277" y="454.10843373493975" type="curve" smooth="yes"/>
      <point x="152.63855421686748" y="454.10843373493975"/>
      <point x="114.96987951807228" y="495.1325301204819"/>
      <point x="114.96987951807228" y="551.5361445783132" type="curve" smooth="yes"/>
      <point x="114.96987951807228" y="607.2289156626506"/>
      <point x="152.63855421686748" y="648.6084337349397"/>
      <point x="207.75301204819277" y="648.6084337349397" type="curve" smooth="yes"/>
      <point x="262.1566265060241" y="648.6084337349397"/>
      <point x="299.8253012048193" y="607.2289156626506"/>
      <point x="299.8253012048193" y="551.5361445783132" type="curve" smooth="yes"/>
      <point x="299.8253012048193" y="495.1325301204819"/>
      <point x="262.1566265060241" y="454.10843373493975"/>
    </contour>
  </outline>
</glyph>
<glyph name="plusminus" format="2">
  <advance width="748.0"/>
  <unicode hex="00B1"/>
  <outline>
    <contour>
      <point x="331.09638554216866" y="137.10240963855424" type="line"/>
      <point x="416.90361445783134" y="137.10240963855424" type="line"/>
      <point x="416.90361445783134" y="302.289156626506" type="line"/>
      <point x="645.0" y="302.289156626506" type="line"/>
      <point x="645.0" y="380.31927710843377" type="line"/>
      <point x="416.90361445783134" y="380.31927710843377" type="line"/>
      <point x="416.90361445783134" y="545.5060240963855" type="line"/>
      <point x="331.09638554216866" y="545.5060240963855" type="line"/>
      <point x="331.09638554216866" y="380.31927710843377" type="line"/>
      <point x="103.0" y="380.31927710843377" type="line"/>
      <point x="103.0" y="302.289156626506" type="line"/>
      <point x="331.09638554216866" y="302.289156626506" type="line"/>
    </contour>
    <contour>
      <point x="103.0" y="0.0" type="line"/>
      <point x="645.0" y="0.0" type="line"/>
      <point x="645.0" y="78.74096385542168" type="line"/>
      <point x="103.0" y="78.74096385542168" type="line"/>
    </contour>
  </outline>
</glyph>
<glyph name="micro" format="2">
  <advance width="705.3012048192771"/>
  <unicode hex="00B5"/>
  <outline>
    <contour>
      <point x="89.00602409638554" y="-180.0" type="line"/>
      <point x="200.40361445783134" y="-180.0" type="line"/>
      <point x="191.0722891566265" y="56.25301204819277" type="line"/>
      <point x="186.04819277108433" y="56.25301204819277" type="line"/>
      <point x="214.49397590361446" y="7.891566265060241"/>
      <point x="265.5" y="-9.421686746987952"/>
      <point x="329.01807228915663" y="-9.421686746987952" type="curve" smooth="yes"/>
      <point x="423.8915662650602" y="-9.421686746987952"/>
      <point x="481.8072289156627" y="35.53614457831325"/>
      <point x="511.0542168674699" y="108.84939759036145" type="curve"/>
      <point x="506.0301204819277" y="108.84939759036145" type="line"/>
      <point x="506.0301204819277" y="0.0" type="line"/>
      <point x="615.0060240963855" y="0.0" type="line"/>
      <point x="615.0060240963855" y="487.5542168674699" type="line"/>
      <point x="503.60843373493975" y="487.5542168674699" type="line"/>
      <point x="503.60843373493975" y="235.81927710843374" type="line" smooth="yes"/>
      <point x="503.60843373493975" y="145.40963855421688"/>
      <point x="438.04819277108436" y="79.49397590361446"/>
      <point x="332.2831325301205" y="79.49397590361446" type="curve" smooth="yes"/>
      <point x="248.31927710843374" y="79.49397590361446"/>
      <point x="200.40361445783134" y="113.5421686746988"/>
      <point x="200.40361445783134" y="217.79518072289156" type="curve" smooth="yes"/>
      <point x="200.40361445783134" y="487.5542168674699" type="line"/>
      <point x="89.00602409638554" y="487.5542168674699" type="line"/>
    </contour>
  </outline>
</glyph>
<glyph name="paragraph" format="2">
  <advance width="738.1566265060242"/>
  <unicode hex="00B6"/>
  <outline>
    <contour>
      <point x="302.8855421686747" y="-180.0" type="line"/>
      <point x="388.6927710843373" y="-180.0" type="line"/>
      <point x="388.6927710843373" y="624.5481927710844" type="line"/>
      <point x="548.566265060241" y="624.5481927710844" type="line"/>
      <point x="548.566265060241" y="-180.0" type="line"/>
      <point x="634.3734939759037" y="-180.0" type="line"/>
      <point x="634.3734939759037" y="705.0" type="line"/>
      <point x="304.9518072289157" y="705.0" type="line" smooth="yes"/>
      <point x="147.8012048192771" y="705.0"/>
      <point x="50.2710843373494" y="626.1807228915662"/>
      <point x="50.2710843373494" y="498.7409638554217" type="curve" smooth="yes"/>
      <point x="50.2710843373494" y="371.30120481927713"/>
      <point x="147.44578313253012" y="290.7710843373494"/>
      <point x="302.8855421686747" y="290.7710843373494" type="curve"/>
    </contour>
  </outline>
</glyph>
<glyph name="periodcentered" format="2">
  <advance width="283.63253012048193"/>
  <unicode hex="00B7"/>
  <outline>
    <contour>
      <point x="74.84939759036145" y="203.12048192771084" type="line"/>
      <point x="208.4277108433735" y="203.12048192771084" type="line"/>
      <point x="208.4277108433735" y="330.78915662650604" type="line"/>
      <point x="74.84939759036145" y="330.78915662650604" type="line"/>
    </contour>
  </outline>
</glyph>
<glyph name="ordmasculine" format="2">
  <advance width="424.0361445783132"/>
  <unicode hex="00BA"/>
  <outline>
    <contour>
      <point x="212.3734939759036" y="408.73493975903614" type="curve" smooth="yes"/>
      <point x="325.39156626506025" y="408.73493975903614"/>
      <point x="396.7228915662651" y="467.73493975903614"/>
      <point x="396.7228915662651" y="561.933734939759" type="curve" smooth="yes"/>
      <point x="396.7228915662651" y="655.4216867469879"/>
      <point x="325.39156626506025" y="714.4216867469879"/>
      <point x="212.3734939759036" y="714.4216867469879" type="curve" smooth="yes"/>
      <point x="98.644578313253" y="714.4216867469879"/>
      <point x="27.313253012048193" y="655.4216867469879"/>
      <point x="27.313253012048193" y="561.933734939759" type="curve" smooth="yes"/>
      <point x="27.313253012048193" y="467.73493975903614"/>
      <point x="98.644578313253" y="408.73493975903614"/>
    </contour>
    <contour>
      <point x="212.3734939759036" y="466.2590361445783" type="curve" smooth="yes"/>
      <point x="143.8132530120482" y="466.2590361445783"/>
      <point x="103.98795180722891" y="500.1506024096385"/>
      <point x="103.98795180722891" y="561.933734939759" type="curve" smooth="yes"/>
      <point x="103.98795180722891" y="623.7168674698795"/>
      <point x="143.8132530120482" y="657.6084337349397"/>
      <point x="212.3734939759036" y="657.6084337349397" type="curve" smooth="yes"/>
      <point x="280.22289156626505" y="657.6084337349397"/>
      <point x="320.04819277108436" y="623.7168674698795"/>
      <point x="320.04819277108436" y="561.933734939759" type="curve" smooth="yes"/>
      <point x="320.04819277108436" y="500.15060240963857"/>
      <point x="280.22289156626505" y="466.2590361445783"/>
    </contour>
  </outline>
</glyph>
<glyph name="questiondown" format="2">
  <advance width="551.5903614457831"/>
  <unicode hex="00BF"/>
  <outline>
    <contour>
      <point x="265.7951807228916" y="-189.13253012048193" type="curve" smooth="yes"/>
      <point x="375.28313253012044" y="-189.13253012048193"/>
      <point x="482.83734939759034" y="-153.97590361445782"/>
      <point x="551.5240963855422" y="-94.88554216867469" type="curve"/>
      <point x="506.62048192771084" y="-9.325301204819283" type="line"/>
      <point x="436.10843373493975" y="-65.79518072289156"/>
      <point x="361.0843373493976" y="-92.8855421686747"/>
      <point x="271.77108433734935" y="-92.8855421686747" type="curve" smooth="yes"/>
      <point x="185.16265060240963" y="-92.8855421686747"/>
      <point x="138.9578313253012" y="-67.19277108433735"/>
      <point x="138.9578313253012" y="-18.319277108433738" type="curve" smooth="yes"/>
      <point x="138.9578313253012" y="16.240963855421686"/>
      <point x="161.91566265060243" y="47.51204819277108"/>
      <point x="220.54216867469881" y="89.93975903614458" type="curve" smooth="yes"/>
      <point x="300.2590361445783" y="148.1024096385542"/>
      <point x="324.7469879518072" y="196.2831325301205"/>
      <point x="324.7469879518072" y="250.30722891566268" type="curve" smooth="yes"/>
      <point x="324.7469879518072" y="286.6566265060241" type="line"/>
      <point x="258.1385542168674" y="286.6566265060241" type="line"/>
      <point x="255.0722891566265" y="263.23493975903614" type="line" smooth="yes"/>
      <point x="249.00602409638554" y="222.12048192771084"/>
      <point x="228.00602409638554" y="189.51807228915663"/>
      <point x="139.6265060240964" y="129.09036144578312" type="curve" smooth="yes"/>
      <point x="58.33734939759036" y="73.46385542168676"/>
      <point x="24.56024096385542" y="26.596385542168676"/>
      <point x="24.56024096385542" y="-32.825301204819276" type="curve" smooth="yes"/>
      <point x="24.56024096385542" y="-128.80120481927713"/>
      <point x="119.0" y="-189.13253012048193"/>
    </contour>
    <contour>
      <point x="226.60843373493975" y="359.8855421686747" type="line"/>
      <point x="356.27710843373495" y="359.8855421686747" type="line"/>
      <point x="356.27710843373495" y="487.5542168674699" type="line"/>
      <point x="226.60843373493975" y="487.5542168674699" type="line"/>
    </contour>
  </outline>
</glyph>
<glyph name="AE" format="2">
  <advance width="1222.4819277108434"/>
  <unicode hex="00C6"/>
  <anchor x="606.777108433735" y="0.0" name="bottom"/>
  <anchor x="605.8433734939758" y="705.0" name="top"/>
  <outline>
    <contour>
      <point x="-27.78915662650602" y="0.0" type="line"/>
      <point x="105.20481927710844" y="0.0" type="line"/>
      <point x="251.51807228915663" y="198.18072289156626" type="line"/>
      <point x="201.43975903614458" y="168.12048192771084" type="line"/>
      <point x="685.4638554216867" y="168.12048192771084" type="line"/>
      <point x="643.9819277108434" y="202.3132530120482" type="line"/>
      <point x="700.3373493975904" y="0.0" type="line"/>
      <point x="1162.7048192771085" y="0.0" type="line"/>
      <point x="1162.7048192771085" y="91.04819277108433" type="line"/>
      <point x="753.3012048192771" y="91.04819277108433" type="line"/>
      <point x="797.2048192771084" y="57.1867469879518" type="line"/>
      <point x="717.6686746987951" y="343.37951807228916" type="line"/>
      <point x="690.2289156626506" y="312.8313253012048" type="line"/>
      <point x="1136.9939759036145" y="312.8313253012048" type="line"/>
      <point x="1136.9939759036145" y="403.87951807228916" type="line"/>
      <point x="670.210843373494" y="403.87951807228916" type="line"/>
      <point x="709.1144578313254" y="372.39759036144574" type="line"/>
      <point x="632.7108433734941" y="645.7710843373494" type="line"/>
      <point x="607.5843373493976" y="613.9518072289156" type="line"/>
      <point x="1162.7048192771085" y="613.9518072289156" type="line"/>
      <point x="1162.7048192771085" y="705.0" type="line"/>
      <point x="504.7409638554217" y="705.0" type="line"/>
    </contour>
    <contour>
      <point x="536.066265060241" y="584.1566265060242" type="line"/>
      <point x="538.066265060241" y="584.1566265060242" type="line"/>
      <point x="636.1385542168674" y="229.90963855421685" type="line"/>
      <point x="658.8433734939758" y="259.8132530120482" type="line"/>
      <point x="256.3614457831325" y="259.8132530120482" type="line"/>
      <point x="275.89156626506025" y="231.81927710843374" type="line"/>
    </contour>
  </outline>
</glyph>
<glyph name="multiply" format="2">
  <advance width="748.0"/>
  <unicode hex="00D7"/>
  <outline>
    <contour>
      <point x="179.48192771084337" y="36.825301204819276" type="line"/>
      <point x="374.0" y="231.6987951807229" type="line"/>
      <point x="568.5180722891565" y="36.825301204819276" type="line"/>
      <point x="624.5301204819277" y="92.48192771084337" type="line"/>
      <point x="429.36746987951807" y="286.0" type="line"/>
      <point x="624.5301204819277" y="481.51807228915663" type="line"/>
      <point x="568.5180722891565" y="537.8855421686746" type="line"/>
      <point x="373.355421686747" y="343.433734939759" type="line"/>
      <point x="176.9036144578313" y="537.8855421686746" type="line"/>
      <point x="123.46987951807229" y="481.51807228915663" type="line"/>
      <point x="317.98795180722897" y="286.644578313253" type="line"/>
      <point x="123.46987951807229" y="92.48192771084337" type="line"/>
    </contour>
  </outline>
</glyph>
<glyph name="Thorn" format="2">
  <advance width="790.9879518072289"/>
  <unicode hex="00DE"/>
  <anchor x="404.9277108433735" y="0.0" name="bottom"/>
  <anchor x="405.2831325301205" y="705.0" name="top"/>
  <outline>
    <contour>
      <point x="103.78313253012048" y="0.0" type="line"/>
      <point x="220.5120481927711" y="0.0" type="line"/>
      <point x="220.5120481927711" y="148.2710843373494" type="line"/>
      <point x="473.144578313253" y="148.2710843373494" type="line" smooth="yes"/>
      <point x="659.4096385542168" y="148.2710843373494"/>
      <point x="756.4518072289156" y="223.02409638554215"/>
      <point x="756.4518072289156" y="366.421686746988" type="curve" smooth="yes"/>
      <point x="756.4518072289156" y="510.46385542168673"/>
      <point x="659.4096385542168" y="583.8614457831326"/>
      <point x="473.144578313253" y="583.8614457831326" type="curve" smooth="yes"/>
      <point x="220.5120481927711" y="583.8614457831326" type="line"/>
      <point x="220.5120481927711" y="705.0" type="line"/>
      <point x="103.78313253012048" y="705.0" type="line"/>
    </contour>
    <contour>
      <point x="220.5120481927711" y="238.60843373493978" type="line"/>
      <point x="220.5120481927711" y="493.5240963855422" type="line"/>
      <point x="460.99397590361446" y="493.5240963855422" type="line" smooth="yes"/>
      <point x="586.5602409638554" y="493.5240963855422"/>
      <point x="641.6987951807229" y="455.2530120481928"/>
      <point x="641.6987951807229" y="366.77710843373495" type="curve" smooth="yes"/>
      <point x="641.6987951807229" y="278.6566265060241"/>
      <point x="584.4939759036145" y="238.60843373493978"/>
      <point x="460.99397590361446" y="238.60843373493978" type="curve" smooth="yes"/>
    </contour>
  </outline>
</glyph>
<glyph name="germandbls" format="2">
  <advance width="771.644578313253"/>
  <unicode hex="00DF"/>
  <outline>
    <contour>
      <point x="505.78313253012044" y="-9.421686746987952" type="curve" smooth="yes"/>
      <point x="648.9096385542168" y="-9.421686746987952"/>
      <point x="739.5963855421686" y="51.0421686746988"/>
      <point x="739.5963855421686" y="149.34939759036146" type="curve" smooth="yes"/>
      <point x="739.5963855421686" y="230.48192771084337"/>
      <point x="677.8614457831326" y="271.45783132530124"/>
      <point x="560.6385542168675" y="292.1024096385542" type="curve" smooth="yes"/>
      <point x="469.50602409638554" y="308.4578313253012"/>
      <point x="428.855421686747" y="321.7710843373494"/>
      <point x="428.855421686747" y="366.4879518072289" type="curve" smooth="yes"/>
      <point x="428.855421686747" y="399.53614457831327"/>
      <point x="455.6807228915663" y="417.5602409638554"/>
      <point x="500.10240963855426" y="447.53614457831327" type="curve" smooth="yes"/>
      <point x="560.0602409638554" y="485.89156626506025"/>
      <point x="596.2409638554218" y="523.5361445783133"/>
      <point x="596.2409638554218" y="578.4939759036145" type="curve" smooth="yes"/>
      <point x="596.2409638554218" y="666.4457831325301"/>
      <point x="517.3132530120482" y="714.4216867469879"/>
      <point x="372.0120481927711" y="714.4216867469879" type="curve" smooth="yes"/>
      <point x="187.44578313253012" y="714.4216867469879"/>
      <point x="89.07228915662651" y="636.6686746987951"/>
      <point x="89.07228915662651" y="488.9638554216868" type="curve" smooth="yes"/>
      <point x="89.07228915662651" y="0.0" type="line"/>
      <point x="200.4698795180723" y="0.0" type="line"/>
      <point x="200.4698795180723" y="498.0722891566265" type="line" smooth="yes"/>
      <point x="200.4698795180723" y="588.789156626506"/>
      <point x="258.93975903614455" y="632.2590361445783"/>
      <point x="374.5" y="632.2590361445783" type="curve" smooth="yes"/>
      <point x="450.99397590361446" y="632.2590361445783"/>
      <point x="488.59638554216866" y="612.301204819277"/>
      <point x="488.59638554216866" y="569.0301204819277" type="curve" smooth="yes"/>
      <point x="488.59638554216866" y="532.4698795180723"/>
      <point x="460.32530120481925" y="511.222891566265"/>
      <point x="417.9457831325301" y="482.44578313253015" type="curve" smooth="yes"/>
      <point x="357.23493975903614" y="442.4698795180723"/>
      <point x="323.69879518072287" y="404.9156626506024"/>
      <point x="323.69879518072287" y="351.18072289156623" type="curve" smooth="yes"/>
      <point x="323.69879518072287" y="271.4698795180723"/>
      <point x="385.9216867469879" y="233.13855421686748"/>
      <point x="504.210843373494" y="214.2710843373494" type="curve" smooth="yes"/>
      <point x="605.2590361445783" y="197.4698795180723"/>
      <point x="634.5060240963854" y="177.35542168674698"/>
      <point x="634.5060240963854" y="144.15060240963857" type="curve" smooth="yes"/>
      <point x="634.5060240963854" y="99.85542168674698"/>
      <point x="589.5662650602409" y="73.87349397590361"/>
      <point x="514.2469879518072" y="73.87349397590361" type="curve" smooth="yes"/>
      <point x="449.5361445783132" y="73.87349397590361"/>
      <point x="376.27108433734935" y="90.80722891566265"/>
      <point x="313.8493975903615" y="131.54216867469881" type="curve"/>
      <point x="275.3433734939759" y="56.8012048192771" type="line"/>
      <point x="332.67469879518075" y="14.22289156626506"/>
      <point x="423.65060240963857" y="-9.421686746987952"/>
    </contour>
  </outline>
</glyph>
<glyph name="ae" format="2">
  <advance width="1067.9759036144576"/>
  <unicode hex="00E6"/>
  <anchor x="523.4638554216867" y="0.0" name="bottom"/>
  <anchor x="523.4638554216867" y="484.0" name="top"/>
  <outline>
    <contour>
      <point x="283.62048192771084" y="-9.421686746987952" type="curve" smooth="yes"/>
      <point x="407.9096385542169" y="-9.421686746987952"/>
      <point x="497.4879518072289" y="44.114457831325296"/>
      <point x="531.2650602409637" y="136.31927710843374" type="curve"/>
      <point x="495.95783132530124" y="136.31927710843374" type="line"/>
      <point x="536.4879518072289" y="42.69277108433735"/>
      <point x="640.2409638554217" y="-9.421686746987952"/>
      <point x="775.8855421686746" y="-9.421686746987952" type="curve" smooth="yes"/>
      <point x="874.7289156626506" y="-9.421686746987952"/>
      <point x="966.5722891566264" y="16.734939759036145"/>
      <point x="1014.1265060240963" y="56.04819277108433" type="curve"/>
      <point x="982.4638554216867" y="131.5" type="line"/>
      <point x="932.7951807228916" y="95.51807228915662"/>
      <point x="865.8855421686746" y="76.29518072289157"/>
      <point x="786.3734939759036" y="76.29518072289157" type="curve" smooth="yes"/>
      <point x="646.2349397590361" y="76.29518072289157"/>
      <point x="578.1626506024096" y="133.94578313253012"/>
      <point x="578.1626506024096" y="246.39759036144576" type="curve" smooth="yes"/>
      <point x="578.1626506024096" y="253.46385542168673" type="line" smooth="yes"/>
      <point x="578.1626506024096" y="356.00602409638554"/>
      <point x="646.6807228915662" y="420.0120481927711"/>
      <point x="761.4216867469879" y="420.0120481927711" type="curve" smooth="yes"/>
      <point x="868.3192771084337" y="420.0120481927711"/>
      <point x="927.1024096385541" y="367.3614457831325"/>
      <point x="928.1686746987951" y="270.3072289156627" type="curve"/>
      <point x="949.8795180722891" y="288.0843373493976" type="line"/>
      <point x="554.2530120481927" y="288.0843373493976" type="line"/>
      <point x="554.2530120481927" y="221.00602409638554" type="line"/>
      <point x="1024.1265060240964" y="221.00602409638554" type="line"/>
      <point x="1024.1265060240964" y="253.9578313253012" type="line" smooth="yes"/>
      <point x="1024.1265060240964" y="406.0"/>
      <point x="923.8855421686746" y="496.9759036144578"/>
      <point x="758.156626506024" y="496.9759036144578" type="curve" smooth="yes"/>
      <point x="663.9939759036145" y="496.9759036144578"/>
      <point x="572.5722891566265" y="457.2831325301205"/>
      <point x="528.0180722891566" y="389.4096385542168" type="curve"/>
      <point x="547.1506024096386" y="389.4096385542168" type="line"/>
      <point x="521.777108433735" y="460.2168674698795"/>
      <point x="447.933734939759" y="496.9759036144578"/>
      <point x="335.3975903614458" y="496.9759036144578" type="curve" smooth="yes"/>
      <point x="244.06626506024097" y="496.9759036144578"/>
      <point x="150.1144578313253" y="473.68674698795184"/>
      <point x="88.00602409638554" y="435.68674698795184" type="curve"/>
      <point x="121.80120481927712" y="356.23493975903614" type="line"/>
      <point x="180.0" y="392.03614457831327"/>
      <point x="253.19879518072287" y="411.6144578313253"/>
      <point x="328.8433734939759" y="411.6144578313253" type="curve" smooth="yes"/>
      <point x="425.27108433734935" y="411.6144578313253"/>
      <point x="470.0301204819277" y="379.9216867469879"/>
      <point x="470.0301204819277" y="312.53614457831327" type="curve" smooth="yes"/>
      <point x="470.0301204819277" y="201.710843373494" type="line" smooth="yes"/>
      <point x="470.0301204819277" y="125.32530120481928"/>
      <point x="395.95783132530124" y="68.96385542168676"/>
      <point x="294.4397590361446" y="68.96385542168676" type="curve" smooth="yes"/>
      <point x="219.92168674698794" y="68.96385542168676"/>
      <point x="173.4277108433735" y="100.23493975903614"/>
      <point x="173.4277108433735" y="149.17469879518075" type="curve" smooth="yes"/>
      <point x="173.4277108433735" y="203.40361445783134"/>
      <point x="226.47590361445785" y="221.00602409638554"/>
      <point x="377.6686746987952" y="221.00602409638554" type="curve" smooth="yes"/>
      <point x="483.7831325301205" y="221.00602409638554" type="line"/>
      <point x="483.7831325301205" y="288.0843373493976" type="line"/>
      <point x="376.0903614457831" y="288.0843373493976" type="line" smooth="yes"/>
      <point x="149.9819277108434" y="288.0843373493976"/>
      <point x="63.006024096385545" y="246.46385542168676"/>
      <point x="63.006024096385545" y="146.0421686746988" type="curve" smooth="yes"/>
      <point x="63.006024096385545" y="54.355421686746986"/>
      <point x="152.40361445783134" y="-9.421686746987952"/>
    </contour>
  </outline>
</glyph>
<glyph name="eth" format="2">
  <advance width="698.0542168674699"/>
  <unicode hex="00F0"/>
  <outline>
    <contour>
      <point x="348.2168674698795" y="-9.421686746987952" type="curve" smooth="yes"/>
      <point x="536.5421686746988" y="-9.421686746987952"/>
      <point x="646.4277108433736" y="88.42168674698794"/>
      <point x="646.4277108433736" y="254.0180722891566" type="curve" smooth="yes"/>
      <point x="646.4277108433736" y="423.18072289156623"/>
      <point x="585.1626506024096" y="533.6506024096385"/>
      <point x="458.22289156626505" y="609.3855421686746" type="curve"/>
      <point x="459.355421686747" y="597.8313253012049" type="line"/>
      <point x="584.9156626506024" y="649.855421686747" type="line"/>
      <point x="556.7650602409637" y="714.777108433735" type="line"/>
      <point x="379.5481927710843" y="641.7349397590361" type="line"/>
      <point x="408.2530120481928" y="637.5361445783133" type="line"/>
      <point x="346.5" y="666.6686746987951"/>
      <point x="266.2831325301205" y="694.710843373494"/>
      <point x="166.6024096385542" y="714.777108433735" type="curve"/>
      <point x="152.33734939759034" y="651.0542168674699" type="line"/>
      <point x="218.6024096385542" y="639.1204819277109"/>
      <point x="278.5783132530121" y="619.2771084337348"/>
      <point x="315.62650602409644" y="604.3192771084338" type="curve"/>
      <point x="315.91566265060237" y="616.6506024096385" type="line"/>
      <point x="144.49397590361446" y="545.5843373493976" type="line"/>
      <point x="173.0" y="480.66265060240966" type="line"/>
      <point x="392.77108433734935" y="571.4819277108435" type="line"/>
      <point x="372.1265060240964" y="573.5481927710844" type="line"/>
      <point x="474.3614457831325" y="518.1204819277109"/>
      <point x="541.3614457831326" y="428.2469879518072"/>
      <point x="539.7168674698795" y="305.83734939759034" type="curve"/>
      <point x="576.222891566265" y="305.83734939759034" type="line"/>
      <point x="543.4457831325302" y="405.04216867469876"/>
      <point x="453.91566265060237" y="447.95783132530124"/>
      <point x="334.86746987951807" y="447.95783132530124" type="curve" smooth="yes"/>
      <point x="165.3132530120482" y="447.95783132530124"/>
      <point x="54.27108433734939" y="356.9578313253012"/>
      <point x="54.27108433734939" y="219.4457831325301" type="curve" smooth="yes"/>
      <point x="54.27108433734939" y="80.1566265060241"/>
      <point x="169.22289156626505" y="-9.421686746987952"/>
    </contour>
    <contour>
      <point x="348.5722891566265" y="75.2289156626506" type="curve" smooth="yes"/>
      <point x="235.31927710843374" y="75.2289156626506"/>
      <point x="167.31325301204816" y="130.16867469879517"/>
      <point x="167.31325301204816" y="219.4457831325301" type="curve" smooth="yes"/>
      <point x="167.31325301204816" y="308.36746987951807"/>
      <point x="235.6746987951807" y="362.9518072289157"/>
      <point x="348.57228915662654" y="362.9518072289157" type="curve" smooth="yes"/>
      <point x="462.1807228915663" y="362.9518072289157"/>
      <point x="530.5421686746988" y="308.36746987951807"/>
      <point x="530.5421686746988" y="219.4457831325301" type="curve" smooth="yes"/>
      <point x="530.5421686746988" y="129.8132530120482"/>
      <point x="462.1807228915663" y="75.2289156626506"/>
    </contour>
  </outline>
</glyph>
<glyph name="divide" format="2">
  <advance width="748.0"/>
  <unicode hex="00F7"/>
  <outline>
    <contour>
      <point x="103.0" y="247.80722891566265" type="line"/>
      <point x="645.0" y="247.80722891566265" type="line"/>
      <point x="645.0" y="326.54819277108436" type="line"/>
      <point x="103.0" y="326.54819277108436" type="line"/>
    </contour>
    <contour>
      <point x="321.0722891566265" y="38.69277108433735" type="line"/>
      <point x="426.92771084337346" y="38.69277108433735" type="line"/>
      <point x="426.92771084337346" y="137.2168674698795" type="line"/>
      <point x="321.0722891566265" y="137.2168674698795" type="line"/>
    </contour>
    <contour>
      <point x="321.0722891566265" y="437.1385542168675" type="line"/>
      <point x="426.92771084337346" y="437.1385542168675" type="line"/>
      <point x="426.92771084337346" y="535.6626506024096" type="line"/>
      <point x="321.0722891566265" y="535.6626506024096" type="line"/>
    </contour>
  </outline>
</glyph>
